SplineFontDB: 3.0
FontName: Bevan
FullName: Bevan
FamilyName: Bevan
Weight: Light
Copyright: Copyright (c) 2011 by vernon adams. All rights reserved.
Version: 1.001
ItalicAngle: 0
UnderlinePosition: -205
UnderlineWidth: 102
Ascent: 1638
Descent: 410
sfntRevision: 0x00010042
LayerCount: 2
Layer: 0 0 "Back"  1
Layer: 1 0 "Fore"  0
NeedsXUIDChange: 1
XUID: [1021 956 130891471 16757817]
FSType: 0
OS2Version: 3
OS2_WeightWidthSlopeOnly: 0
OS2_UseTypoMetrics: 1
CreationTime: 1324629720
ModificationTime: 1324652871
PfmFamily: 17
TTFWeight: 400
TTFWidth: 5
LineGap: 0
VLineGap: 0
Panose: 2 0 5 5 5 0 0 2 0 3
OS2TypoAscent: 397
OS2TypoAOffset: 1
OS2TypoDescent: -550
OS2TypoDOffset: 1
OS2TypoLinegap: 0
OS2WinAscent: -400
OS2WinAOffset: 1
OS2WinDescent: 0
OS2WinDOffset: 1
HheadAscent: -400
HheadAOffset: 1
HheadDescent: 0
HheadDOffset: 1
OS2SubXSize: 1434
OS2SubYSize: 1331
OS2SubXOff: 0
OS2SubYOff: 287
OS2SupXSize: 1434
OS2SupYSize: 1331
OS2SupXOff: 0
OS2SupYOff: 977
OS2StrikeYSize: 102
OS2StrikeYPos: 512
OS2Vendor: 'newt'
OS2CodePages: 20000093.00000000
OS2UnicodeRanges: a00000af.5000204b.00000000.00000000
Lookup: 4 0 1 "'liga' Standard Ligatures lookup 0"  {"'liga' Standard Ligatures lookup 0 subtable"  } ['liga' ('DFLT' <'dflt' > ) ]
Lookup: 258 0 0 "'kern' Horizontal Kerning lookup 0"  {"'kern' Horizontal Kerning lookup 0 per glyph data 0"  "'kern' Horizontal Kerning lookup 0 kerning class 1"  } ['kern' ('DFLT' <'dflt' > ) ]
MarkAttachClasses: 1
DEI: 91125
KernClass2: 42+ 44 "'kern' Horizontal Kerning lookup 0 kerning class 1" 
 1 B
 1 D
 1 F
 1 K
 1 L
 1 P
 1 Q
 1 V
 1 W
 1 b
 1 d
 1 f
 1 h
 1 l
 1 m
 1 p
 8 quotedbl
 11 quotesingle
 1 v
 1 w
 1 x
 89 A Agrave Aacute Acircumflex Atilde Adieresis Aring Amacron Abreve Aogonek uni0200 uni0202
 36 C Ccedilla Cacute Ccircumflex Ccaron
 13 J Jcircumflex
 15 N Ntilde Nacute
 60 O Ograve Oacute Ocircumflex Otilde Odieresis uni020C uni020E
 44 R Racute Rcommaaccent Rcaron uni0210 uni0212
 22 T Tcommaaccent uni021A

StartChar: exclam
Encoding: 33 33 4
Width: 577
GlyphClass: 2
Flags: HW
LayerCount: 2
Fore
SplineSet
450.217773438 608.783203125 m 1
 120.865234375 607.21875 l 1
 44 1333.69042969 l 1
 44 1579 l 1
 529 1579 l 1
 529 1333.76269531 l 1
 450.217773438 608.783203125 l 1
284 18 m 0
 146.515625 18 57 91.0576171875 57 212 c 0
 57 335.049804688 147.671875 411 283 411 c 2
 295.0390625 411 l 1
 296.640625 411.80078125 l 1
 429.221679688 406.952148438 520 331.024414062 520 212 c 0
 520 90.3232421875 427.075195312 18 284 18 c 0
EndSplineSet
EndChar

StartChar: quotedbl
Encoding: 34 34 5
Width: 944
GlyphClass: 2
Flags: HW
LayerCount: 2
Fore
SplineSet
41 1573 m 1
 378.398819265 1573 l 1
 312.302826899 996 l 1
 108.982421875 996 l 1
 41 1573 l 1
552.178329172 1573 m 1
 889.577148438 1573 l 1
 804.599609375 996 l 1
 605.055426896 996 l 1
 552.178329172 1573 l 1
EndSplineSet
EndChar

StartChar: numbersign
Encoding: 35 35 6
Width: 1150
GlyphClass: 2
Flags: HW
LayerCount: 2
Fore
SplineSet
347.54925928 1195 m 1
 418.813445966 1572 l 1
 604.611846751 1572 l 1
 530.802510541 1195 l 1
 753.924800023 1195 l 1
 825.188986709 1572 l 1
 1040.02441406 1572 l 1
 953.024414062 1195 l 1
 1094.26855469 1195 l 1
 1052.76074219 998 l 1
 908.50390625 998 l 1
 809.150899308 534 l 1
 947.268554688 534 l 1
 905.760742188 337 l 1
 770.386250512 337 l 1
 715.241344148 51 l 1
 538.070933971 51 l 1
 591.519073986 337 l 1
 364.010709769 337 l 1
 308.865803405 51 l 1
 105.591796875 51 l 1
 168.591796875 337 l 1
 32 337 l 1
 73.5087890625 534 l 1
 213.09375 534 l 1
 309.893142406 998 l 1
 179 998 l 1
 220.508789062 1195 l 1
 347.54925928 1195 l 1
402.775358565 534 m 1
 629.273782264 534 l 1
 716.268683149 998 l 1
 493.032060778 998 l 1
 402.775358565 534 l 1
EndSplineSet
EndChar

StartChar: dollar
Encoding: 36 36 7
Width: 1090
GlyphClass: 2
Flags: HW
LayerCount: 2
Fore
SplineSet
861 1080 m 2
 848.256835938 1080 826.669921875 1078 823.5 1078 c 2
 812.28417719 1078 l 2
 811.312138735 1078 809.434170234 1078.03710938 809.014667492 1078.04785156 c 0
 791.619994453 1156.50390625 756.483800433 1225.57451789 714.149100906 1286.83789062 c 0
 700.530785864 1306.54522101 688.259089263 1326 666.865265571 1326 c 0
 660.222594719 1326 615.049331546 1314.95800781 615.049331546 1218 c 2
 615.049331546 951.336914062 l 1
 646.161091328 940.895507812 l 2
 850.300402278 872.383674269 1047.77318218 773.554570056 1059.09667969 517.489257812 c 0
 1070.69933254 255.1112316 849.999023438 45.5361328125 655.722326003 34 c 2
 615.049331546 31.771484375 l 1
 615.049331546 -167 l 1
 507.238759138 -167 l 1
 507.238759138 38.80078125 l 1
 472.975015718 47 l 2
 397.893002572 65.87890625 331.053320538 93.009765625 267.814453125 128 c 1
 229.159179688 146.291992188 l 1
 175.65625 66 l 1
 58 66 l 1
 58 494.211914062 l 1
 205.786132812 494.828125 l 1
 241.651367188 359.885742188 351.328198201 197 458.765788599 197 c 2
 501.388573039 197 l 1
 501.388573039 625.953125 l 1
 469.980549647 636.203125 l 2
 256.121940377 705.990490454 49 776.850124857 49 1053 c 0
 49 1341.70605469 236.037109375 1496.08496094 469.37333167 1512 c 1
 509.745981752 1514.55371094 l 1
 509.745981752 1703 l 1
 614.213590674 1703 l 1
 614.213590674 1504.87890625 l 1
 642.894030089 1493 l 2
 669.601827233 1481.59570312 708.933065838 1461.46679688 759.482330105 1433 c 2
 786.399062467 1418.296875 l 1
 834.125 1476 l 1
 944 1476 l 1
 944 1082.54003906 l 1
 867.157226562 1080 l 1
 861 1080 l 2
650.150448143 206 m 2
 700.893140717 206 746.539772744 267.934570312 767.387589949 349 c 1
 774.15268378 349 l 1
 777.827005463 395.165039062 l 2
 785.401723263 490.3359375 729.279764982 567.361328125 655.532162309 578.591796875 c 2
 607.527663703 585.90234375 l 1
 607.527663703 206 l 1
 650.150448143 206 l 2
464.87959218 1371.89453125 m 1
 404.030474596 1376.40917969 324.211508307 1308.14160156 324.211508307 1181 c 2
 324.211508307 1180 l 2
 324.211508307 1080.59863281 394.467607614 1024.5 453.957830129 1009.14648438 c 2
 505.567277395 995.827148438 l 1
 505.567277395 1369.68164062 l 1
 464.87959218 1371.89453125 l 1
EndSplineSet
EndChar

StartChar: percent
Encoding: 37 37 8
Width: 2489
GlyphClass: 2
Flags: HW
LayerCount: 2
Fore
SplineSet
2007.28520647 1044 m 0
 2291.44238281 1044 2447 856.551757812 2447 554 c 0
 2447 253.323242188 2300.9296875 33 2030.07660406 33 c 0
 1745.9974502 33 1586.59399254 216.110351562 1586.59399254 520.938476562 c 0
 1586.93712474 818.643554688 1743.00292616 1044 2007.28520647 1044 c 0
2148.78179987 580 m 2
 2148.78179987 680.808586262 2125.96099014 782.212821677 2011.743143 806.271484375 c 1
 1870.13262038 798.267934173 1868.63753777 651.835945547 1868.63753777 540 c 0
 1868.63753777 407.73046875 1895.21266348 281 2005.38592334 281 c 0
 2127.64671071 281 2147.8321583 413.400390625 2147.8321583 491 c 2
 2147.8321583 537.091796875 l 2
 2148.50358457 546.955078125 2148.78179987 554.0390625 2148.78179987 562 c 2
 2148.78179987 580 l 2
893.193356771 51 m 1
 1196.66968154 1572 l 1
 1576.27405957 1572 l 1
 1271.90837322 51 l 1
 893.193356771 51 l 1
465.067302565 1601 m 0
 744.682028207 1601 892.406007465 1413.55175781 892.406007465 1111 c 0
 892.406007465 810.323242188 753.691567092 590 487.85870016 590 c 0
 199.856445312 590 32 773.110351562 32 1077.93847656 c 0
 32.361328125 1375.64355469 196.703125 1601 465.067302565 1601 c 0
606.563895965 1137 m 2
 606.563895965 1237.44761738 583.893418771 1339.18087217 469.970383583 1363.17773438 c 1
 326.670917212 1357.87870678 326.419633865 1206.31477245 326.419633865 1097 c 0
 326.419633865 964.73046875 352.994759576 838 463.168019432 838 c 0
 585.428806806 838 605.614254399 970.400390625 605.614254399 1048 c 2
 605.614254399 1068.01953125 l 1
 606.563895965 1094.01953125 l 1
 606.563895965 1137 l 2
EndSplineSet
EndChar

StartChar: ampersand
Encoding: 38 38 9
Width: 1519
GlyphClass: 2
Flags: HW
LayerCount: 2
Fore
SplineSet
1164.02662859 797 m 0
 1164.02662859 845.101274685 1133.39619552 881.092042341 1097.30896882 882.912109375 c 1
 1097.30896882 1076 l 1
 1465 1076 l 1
 1465 873.923828125 l 1
 1373.87988281 839.125 1336.08817177 804.231392937 1269.31738281 729.431640625 c 2
 1067.59876095 503.45703125 l 1
 1117.8747297 475.575195312 l 1
 1131.8440919 460.419921875 1174.20561487 412.290039062 1246.32324219 332.5625 c 1
 1261.36035156 317 l 1
 1462 317 l 1
 1462 51 l 1
 1014.44281087 51 l 1
 983.845980808 85.3681640625 937.244167383 140.040039062 875.00540245 214.638671875 c 2
 840.822462958 255.610351562 l 1
 807.113210397 214.158203125 l 2
 704.057247547 87.4296875 579.04439862 21 425.624421118 21 c 0
 204.64453125 21 39 154.458007812 39 375 c 0
 39 583.98828125 150.517578125 681.8984375 319.578419567 757.248046875 c 1
 378.272456641 785.625976562 l 1
 335.276122745 838.247070312 l 1
 270.995117188 915.262695312 235 1003.01171875 235 1107 c 0
 235 1338.66992188 402.588972788 1462 628.482170423 1462 c 0
 814.156001789 1462 965.676829268 1349.93359375 965.676829268 1168 c 0
 965.676829268 1017.62209118 915.191089841 966.05619646 829.725157956 882.19921875 c 2
 792.694814118 845.866210938 l 1
 1020.08391156 599.293945312 l 1
 1076.7889918 655.200195312 l 2
 1091.18713752 669.94140625 1164.02662859 723.995117188 1164.02662859 797 c 0
490.637512301 651.038085938 m 1
 458.403028535 625.5 l 2
 429.502842931 602.604492188 384.15128126 557.8203125 384.15128126 484 c 2
 384.15128126 482 l 2
 384.15128126 367.270507812 465.198410953 279 568.977230627 279 c 0
 616.472709917 279 661.393538244 296.812666005 699.794065159 329.576171875 c 2
 740.612143535 364.40234375 l 1
 490.637512301 651.038085938 l 1
695.481577069 956.471679688 m 1
 723.782170106 977.84375 l 2
 764.026189226 1008.234375 826.831969744 1050.8125 826.831969744 1148 c 0
 826.831969744 1233.33203125 778.676146217 1320 686.183930225 1320 c 0
 610.464457828 1320 556.35497067 1246.64941406 556.35497067 1169.74511719 c 0
 556.35497067 1064.96839701 638.097662958 1008.18457031 668.909325011 980.41796875 c 2
 695.481577069 956.471679688 l 1
EndSplineSet
EndChar

StartChar: quotesingle
Encoding: 39 39 10
Width: 459
GlyphClass: 2
Flags: HW
LayerCount: 2
Fore
SplineSet
41 1573 m 1
 404.577148438 1573 l 1
 319.599609375 996 l 1
 108.982421875 996 l 1
 41 1573 l 1
EndSplineSet
EndChar

StartChar: parenleft
Encoding: 40 40 11
Width: 711
GlyphClass: 2
Flags: HW
LayerCount: 2
Fore
SplineSet
675 1601.28027344 m 1
 675 1366.91308594 l 1
 402.711221292 1335.95605469 359.344641249 1095.22363281 359.344641249 817 c 0
 359.344641249 556.104492188 405.364595842 291.73046875 670 262.569335938 c 1
 670 32.029296875 l 1
 386.742149974 44.763671875 264.791199152 170.9453125 141.807617188 360.72265625 c 0
 64.7587890625 479.694335938 19 624.45703125 19 816 c 0
 19 1350.68066406 257.262695312 1586.29394531 675 1601.28027344 c 1
EndSplineSet
EndChar

StartChar: parenright
Encoding: 41 41 12
Width: 711
GlyphClass: 2
Flags: HW
LayerCount: 2
Fore
SplineSet
300.588491673 1702.7109375 m 1
 300.588491673 1735.51953125 l 1
 36 1601 l 1
 202.260742188 1601 l 1
300.588491673 1369.17089844 m 1
 300.588491673 1600.22265625 l 1
 722.009765625 1584.68359375 959.0390625 1349.19140625 959.0390625 815 c 0
 959.0390625 516.9609375 841.832661473 324.634147555 685.939040118 188.060546875 c 0
 592.973807318 106.61656943 463.493944773 41.13671875 303.014941408 32.130859375 c 1
 303.014941408 262.568359375 l 1
 530.002521265 291.853515625 589.336010067 556.944335938 589.336010067 817 c 0
 589.336010067 1092.85058594 531.780495989 1339.97949219 300.588491673 1369.17089844 c 1
EndSplineSet
EndChar

StartChar: asterisk
Encoding: 42 42 13
Width: 1039
GlyphClass: 2
Flags: HW
LayerCount: 2
Fore
SplineSet
131.538085938 1494.03515625 m 1
 213.778320312 1608.46582031 l 1
 42.2724609375 1481.97851562 l 1
 131.538085938 1494.03515625 l 1
49.7705078125 1357.86328125 m 1
 171.931941351 1518.52800485 379.29206039 1110.88413764 418.5510211 1045.35058594 c 1
 462.012412972 982.790039062 l 1
 439.229476725 992.213867188 l 2
 310.615624166 1045.41349437 -81.0142430434 1117.21301956 37.2373046875 1328 c 1
 49.7705078125 1357.86328125 l 1
475.063449277 909.1953125 m 1
 421.885625598 832.649414062 l 2
 398.978944262 799.67578125 321.480325963 685.504882812 296.101999301 655.0625 c 2
 266.924209946 620.0625 l 1
 215.278475219 523.317544266 111.668776347 393.19806891 34.5888671875 560 c 0
 -66.8405389489 779.494560869 304.628814346 845.307081759 438.051456044 895.321289062 c 2
 475.063449277 909.1953125 l 1
512.69009739 993.299804688 m 1
 492.459403599 1090.36914062 l 2
 466.407805961 1215.37207031 422.869073408 1326.28417969 422.869073408 1454 c 0
 422.869073408 1565.41894531 462.034394008 1634 514.570697095 1634 c 0
 567.069551011 1634 606.272320781 1565.34765625 606.272320781 1454 c 0
 606.272320781 1320.78125 568.900489857 1218.0546875 538.038301892 1094.65429688 c 2
 512.69009739 993.299804688 l 1
539.850516153 961.19921875 m 1
 608.82537735 1043.9375 l 1
 672.705972295 1132.64208286 896.092498891 1579.7209625 1001.64257812 1322 c 0
 1096.52950191 1090.31519687 739.959368235 1046.92750074 597.807993886 986.029296875 c 2
 539.850516153 961.19921875 l 1
553.937917576 909.106445312 m 1
 597.578414182 890.0703125 l 2
 730.601310266 832.046085344 1104.0144077 775.830535529 1003.63964844 553 c 0
 892.717802347 306.755081979 690.015258938 718.669899371 628.548879099 804.690429688 c 2
 553.937917576 909.106445312 l 1
516.686575291 870.974609375 m 1
 537.881178194 781.989257812 l 2
 566.6364432 661.26171875 608.773274155 548.750976562 608.773274155 422 c 0
 608.773274155 310.581054688 569.607139443 242 517.071650468 242 c 0
 464.572796553 242 425.370026782 310.65234375 425.370026782 422 c 0
 425.370026782 556.103116422 465.14246971 664.875374416 495.270533807 785.345703125 c 2
 516.686575291 870.974609375 l 1
EndSplineSet
EndChar

StartChar: plus
Encoding: 43 43 14
Width: 612
GlyphClass: 2
Flags: HW
LayerCount: 2
Fore
SplineSet
12 711 m 1
 270.515114873 711 l 1
 270.515114873 1000 l 1
 344.887545345 1000 l 1
 344.887545345 711 l 1
 600 711 l 1
 600 568 l 1
 344.887545345 568 l 1
 344.887545345 289 l 1
 270.515114873 289 l 1
 270.515114873 568 l 1
 12 568 l 1
 12 711 l 1
EndSplineSet
EndChar

StartChar: comma
Encoding: 44 44 15
Width: 494
GlyphClass: 2
Flags: HW
LayerCount: 2
Fore
SplineSet
211.125 -169.380859375 m 1
 211.125 -99.875 l 1
 36 -275 l 1
 108.484375 -275 l 1
211.125 -395.818359375 m 1
 211.125 -272.506835938 l 1
 339.349609375 -258.83984375 401.125 -175.120117188 401.125 -38.5 c 2
 401.125 50 l 1
 212.125 50 l 1
 212.125 314 l 1
 627.028320312 314 l 1
 638.688476562 228.438476562 644.125 155.084960938 644.125 88 c 0
 644.125 -243.15625 516.669921875 -380.994140625 211.125 -395.818359375 c 1
EndSplineSet
EndChar

StartChar: hyphen
Encoding: 45 45 16
Width: 657
GlyphClass: 2
Flags: HW
LayerCount: 2
Fore
SplineSet
621 785 m 1
 621 588 l 1
 36 588 l 1
 36 785 l 1
 621 785 l 1
EndSplineSet
EndChar

StartChar: period
Encoding: 46 46 17
Width: 515
GlyphClass: 2
Flags: HW
LayerCount: 2
Fore
SplineSet
253 417 m 0
 396.118164062 417 489 344.705078125 489 223 c 0
 489 100.34765625 393.258789062 24 254 24 c 2
 241.9609375 24 l 1
 240.37890625 23.208984375 l 1
 112.07421875 28.126953125 26 103.618164062 26 223 c 0
 26 343.924804688 115.543945312 417 253 417 c 0
EndSplineSet
EndChar

StartChar: slash
Encoding: 47 47 18
Width: 689
GlyphClass: 2
Flags: HW
LayerCount: 2
Fore
SplineSet
19 51 m 1
 382.218530755 1572 l 1
 634.129882812 1572 l 1
 265.263354507 51 l 1
 19 51 l 1
EndSplineSet
EndChar

StartChar: zero
Encoding: 48 48 19
Width: 1094
GlyphClass: 2
Flags: HW
LayerCount: 2
Fore
SplineSet
1061.59667969 695 m 0
 1061.59667969 286.956054688 883.720703125 25 547.310996264 25 c 0
 209.51171875 25 31.5966796875 285.379882812 31.5966796875 695 c 2
 31.5966796875 760.310546875 l 1
 30 759.912109375 l 1
 54.779296875 1092.81738281 261.711914062 1315 545.628715325 1315 c 0
 850.8515625 1315 1061.59667969 1064.36816406 1061.59667969 695 c 0
542.264153448 1046 m 0
 379.091823769 1046 383.930279634 808.057401255 390.017728502 693.37109375 c 1
 390.017728502 667 l 2
 390.017728502 563.794921875 380.364327335 345.767578125 506.976503623 302.7109375 c 1
 508.777891366 292 l 1
 543.946434387 292 l 2
 707.991825837 292 697.033999802 558.193359375 697.033999802 665 c 2
 697.033999802 749 l 2
 697.033999802 853.81640625 685.573460907 1046 542.264153448 1046 c 0
EndSplineSet
EndChar

StartChar: one
Encoding: 49 49 20
Width: 619
GlyphClass: 2
Flags: HW
LayerCount: 2
Fore
SplineSet
101.84375 51 m 1
 101.159179688 273.428710938 l 1
 191 272.430664062 l 1
 191 1002.31152344 l 1
 27 1001.31152344 l 1
 27 1168.26757812 l 1
 485.372070312 1309.63085938 l 1
 491.290039062 273 l 1
 587 273 l 1
 587 51 l 1
 101.84375 51 l 1
EndSplineSet
EndChar

StartChar: two
Encoding: 50 50 21
Width: 1043
GlyphClass: 2
Flags: HW
LayerCount: 2
Fore
SplineSet
34 945 m 0
 34 1444.55379998 925 1475.224493 925 921 c 0
 925 673.836609464 671.531351494 483.042207021 529.655671363 358.245117188 c 2
 424.786400059 266 l 1
 688.4512975 266 l 1
 773.71875 270.235351562 902.25390625 285.302734375 931.712890625 414 c 1
 1008.54589844 414 l 1
 1012.44824219 51 l 1
 74 51 l 1
 74 268.245117188 l 1
 236.903320312 334.803710938 348.263426578 422.48828125 436.2760693 528.9375 c 0
 497.476523231 602.958984375 560.244998081 698.641601562 560.244998081 857 c 0
 560.244998081 957.892578125 504.983968389 1080 403.979036999 1080 c 0
 308.957130843 1080 245 991.798828125 245 887 c 0
 245 838.567382812 266.396484375 795.553710938 285.014533373 765.01953125 c 1
 136.053710938 649.485351562 l 1
 74.427734375 718.271484375 34 818.565429688 34 945 c 0
EndSplineSet
EndChar

StartChar: three
Encoding: 51 51 22
Width: 997
GlyphClass: 2
Flags: HW
LayerCount: 2
Fore
SplineSet
572.971826709 811.4453125 m 1
 673.281521824 800.208984375 l 1
 816.827148438 786.168945312 966 637.23046875 966 473 c 0
 966 170.650390625 719.015615694 33 435.163994977 33 c 0
 279.158203125 33 149.474609375 45.9267578125 47 106.012695312 c 1
 47 325.038085938 l 1
 151.186523438 259.9609375 256.713867188 227 349.943118859 227 c 0
 440.5497451 227 571.517396764 267.36328125 571.517396764 425 c 0
 571.517396764 598.224609375 432.622111144 643 329.65243407 643 c 0
 302.40426369 643 272.116210938 633.77734375 244 628.00390625 c 1
 244 716.431640625 l 1
 528.50114501 1007.43164062 l 1
 528.50114501 1092 l 1
 308.550121888 1092 l 2
 202.09765625 1092 160.3828125 1026.00488281 138.916015625 949.202148438 c 1
 35 949.737304688 l 1
 35 1301 l 1
 900 1301 l 1
 900 1110.73339844 l 1
 864.881835938 1080.69335938 776.244140625 1007.09277344 650.707342391 890.360351562 c 1
 572.971826709 811.4453125 l 1
EndSplineSet
EndChar

StartChar: four
Encoding: 52 52 23
Width: 1064
GlyphClass: 2
Flags: HW
LayerCount: 2
Fore
SplineSet
807 237 m 1
 929 237 l 1
 929 51 l 1
 401.785077308 51 l 1
 401.785077308 237 l 1
 508.008147815 237 l 1
 508.008147815 471.095703125 l 1
 22 470.095703125 l 1
 22 669.379882812 l 1
 500.207717795 1290.94628906 l 1
 808 1290.11621094 l 1
 808 623.548828125 l 1
 1035 625.548828125 l 1
 1035 471 l 1
 807 471 l 1
 807 237 l 1
508.008147815 625.729492188 m 1
 508.008147815 1054.83007812 l 1
 208.418945312 627.563476562 l 1
 508.008147815 625.729492188 l 1
EndSplineSet
EndChar

StartChar: five
Encoding: 53 53 24
Width: 853
GlyphClass: 2
Flags: HW
LayerCount: 2
Fore
SplineSet
444.739357955 888 m 0
 631.3671875 888 823 728.609375 823 511 c 0
 823 183.069335938 596.331054688 31 333.231860723 31 c 0
 247.564453125 31 98.2041015625 59.54296875 38 97.03515625 c 1
 38 268.587890625 l 1
 84.630859375 250.6953125 146.451171875 229 199 229 c 0
 309.984435046 229 427.641541713 285.475585938 427.641541713 445 c 0
 427.641541713 613.787109375 295.187186895 668 174 668 c 0
 126.501953125 668 79.8916015625 656.915039062 36 636.27734375 c 1
 36 1307 l 1
 748 1307 l 1
 748 1112 l 1
 239 1112 l 1
 239 862.19140625 l 1
 312.459959562 875.640625 l 2
 341.721240102 881.938476562 403.712439344 888 444.739357955 888 c 0
EndSplineSet
EndChar

StartChar: six
Encoding: 54 54 25
Width: 1099
GlyphClass: 2
Flags: HW
LayerCount: 2
Fore
SplineSet
1070.00195312 543.458007812 m 0
 1067.30859375 243.517578125 816.810920525 32 552.376718291 32 c 0
 272.84375 32 28 221.004882812 28 534 c 0
 28 760.279296875 169.204014598 905.674578378 284.195392648 1050.28808594 c 0
 306.095598692 1077.82985182 348.082693272 1132.72949219 375.256753125 1164.9375 c 2
 399.723458644 1193.9375 l 2
 424.990176658 1223.88574219 458.693689678 1261.63378906 486.535113199 1294 c 1
 823.454072687 1294 l 1
 765.959519231 1227.24298803 665.008065924 1129.96924089 636.23796631 1041.30761719 c 2
 614.831246793 975.338867188 l 1
 674.398809505 972.0546875 l 2
 901.63671875 960.194335938 1072.3359375 803.370117188 1070.00195312 543.458007812 c 0
683.99072039 596 m 2
 683.99072039 670.293945312 668.15277992 827 554.907756792 827 c 0
 431.994199543 827 412.325921185 683.447265625 412.325921185 585.5 c 2
 412.325921185 551 l 2
 412.325921185 475.20703125 411.619010041 278 543.096243784 278 c 0
 648.744031877 278 683.99072039 401.513671875 683.99072039 546 c 2
 683.99072039 596 l 2
EndSplineSet
EndChar

StartChar: seven
Encoding: 55 55 26
Width: 995
GlyphClass: 2
Flags: HW
LayerCount: 2
Fore
SplineSet
583.473015823 1071 m 1
 320.302686176 1071 l 2
 231.299804688 1071 163.255859375 1025.59570312 150.833984375 928.221679688 c 1
 32 928.766601562 l 1
 32 1286 l 1
 971 1286 l 1
 971 1078.88769531 l 1
 512.72303587 51 l 1
 148.158203125 51 l 1
 583.473015823 1071 l 1
EndSplineSet
EndChar

StartChar: eight
Encoding: 56 56 27
Width: 1057
GlyphClass: 2
Flags: HW
LayerCount: 2
Fore
SplineSet
105 1008 m 0
 105 1239.81738281 307.291669725 1326 527 1326 c 0
 746.174992607 1326 946 1239.32617188 946 1010 c 0
 946 887.583007812 881.874357744 815.809639281 795.913085938 777.684570312 c 2
 689.472350202 730.4765625 l 1
 795.594726562 682.4375 l 1
 954.368164062 620.99609375 1024 523.03125 1024 375 c 0
 1024 119.0703125 778.702148438 33 527 33 c 0
 275.350585938 33 30 119.063476562 30 375 c 2
 30 422.614257812 l 1
 45.244140625 542.498046875 113.952148438 625.698242188 255.405273438 680.4375 c 1
 362.033870021 728.4765625 l 1
 255.086914062 775.684570312 l 1
 167.104492188 809.057617188 105 885.537109375 105 1008 c 0
527 627 m 0
 438.461076566 627 416.442429857 514.516601562 416.442429857 404 c 0
 416.442429857 297.140625 438.09983568 187 525.337480148 187 c 0
 612.477711344 187 634.232530439 297.234375 634.232530439 404 c 0
 634.232530439 512.752929688 614.895995835 627 527 627 c 0
530.325039704 773 m 0
 615.672866684 773 637.557570143 879.250976562 637.557570143 984 c 0
 637.557570143 1050.41113281 628.132024245 1172 528.662519852 1172 c 0
 428.221318065 1172 416.442429857 1055.46679688 416.442429857 984 c 2
 416.442429857 933 l 1
 421.608580412 933 l 1
 428.365814419 849.556640625 458.960076223 773 530.325039704 773 c 0
EndSplineSet
EndChar

StartChar: nine
Encoding: 57 57 28
Width: 1104
GlyphClass: 2
Flags: HW
LayerCount: 2
Fore
SplineSet
28 781 m 0
 28 1098.91992188 280.699672446 1316 565.521564816 1316 c 0
 837.959960938 1316 1076 1117.90332031 1076 811 c 0
 1076 738.6796875 1048.73716301 650.993101684 1021.87207031 594.7578125 c 0
 919.033479698 379.491185766 754.719915295 217.013212334 612.808253003 49.078125 c 1
 280.286201745 50.541015625 l 1
 339.641117612 121.579101562 424.895145964 225.495224448 466.931498014 289.794921875 c 2
 520.673611006 372 l 1
 432.84121006 372 l 2
 218.571289062 372 28 546.377929688 28 781 c 0
556.225489005 520 m 0
 656.806157267 520 682.145061353 649.400390625 682.145061353 788 c 0
 682.145061353 852.467773438 683.864967425 1061 557.915684607 1061 c 0
 451.902126868 1061 421.009840846 929.57421875 421.009840846 780 c 0
 421.009840846 641.672851562 453.605527123 520 556.225489005 520 c 0
EndSplineSet
EndChar

StartChar: colon
Encoding: 58 58 29
Width: 527
GlyphClass: 2
Flags: HW
LayerCount: 2
Fore
SplineSet
260 1040 m 0
 403.118164062 1040 496 967.705078125 496 846 c 0
 496 723.34765625 400.258789062 647 261 647 c 2
 248.9609375 647 l 1
 247.37890625 646.208984375 l 1
 119.07421875 651.126953125 33 726.618164062 33 846 c 0
 33 966.924804688 122.543945312 1040 260 1040 c 0
258 425 m 0
 401.118164062 425 494 352.705078125 494 231 c 0
 494 108.34765625 398.258789062 32 259 32 c 2
 246.9609375 32 l 1
 245.37890625 31.208984375 l 1
 117.07421875 36.126953125 31 111.618164062 31 231 c 0
 31 351.924804688 120.543945312 425 258 425 c 0
EndSplineSet
EndChar

StartChar: semicolon
Encoding: 59 59 30
Width: 525
GlyphClass: 2
Flags: HW
LayerCount: 2
Fore
SplineSet
478 86 m 0
 478 -245.458007812 350.36328125 -383.298828125 44 -397.865234375 c 1
 44 -271.623046875 l 1
 172.712890625 -258.299804688 235 -176.220703125 235 -40 c 2
 235 48 l 1
 46 48 l 1
 46 312 l 1
 460.903320312 312 l 1
 472.563476562 226.438476562 478 153.084960938 478 86 c 0
260 1037 m 0
 403.118164062 1037 496 964.705078125 496 843 c 0
 496 720.34765625 400.258789062 644 261 644 c 2
 248.9609375 644 l 1
 247.37890625 643.208984375 l 1
 119.07421875 648.126953125 33 723.618164062 33 843 c 0
 33 963.924804688 122.543945312 1037 260 1037 c 0
EndSplineSet
EndChar

StartChar: less
Encoding: 60 60 31
Width: 664
GlyphClass: 2
Flags: HW
LayerCount: 2
Fore
SplineSet
628 1472.26855469 m 1
 628 1098.91113281 l 1
 271.909179688 761 l 1
 628 423.088867188 l 1
 628 49.7314453125 l 1
 15 599.8828125 l 1
 15 922.1171875 l 1
 628 1472.26855469 l 1
EndSplineSet
EndChar

StartChar: equal
Encoding: 61 61 32
Width: 617
GlyphClass: 2
Flags: HW
LayerCount: 2
Fore
SplineSet
581 341 m 1
 581 220 l 1
 36 220 l 1
 36 341 l 1
 581 341 l 1
581 710 m 1
 581 589 l 1
 36 589 l 1
 36 710 l 1
 581 710 l 1
EndSplineSet
EndChar

StartChar: greater
Encoding: 62 62 33
Width: 664
GlyphClass: 2
Flags: HW
LayerCount: 2
Fore
SplineSet
36 49.7314453125 m 1
 36 423.088867188 l 1
 392.090820312 761 l 1
 36 1098.91113281 l 1
 36 1472.26855469 l 1
 649 922.1171875 l 1
 649 599.8828125 l 1
 36 49.7314453125 l 1
EndSplineSet
EndChar

StartChar: question
Encoding: 63 63 34
Width: 1055
GlyphClass: 2
Flags: HW
LayerCount: 2
Fore
SplineSet
526.922444354 1686 m 0
 776.669314048 1686 1026.09765625 1534.96289062 1026.09765625 1273 c 0
 1026.09765625 973.140625 760.689620546 863.12890625 545.579112725 774.22265625 c 2
 516.927103364 762.379882812 l 1
 516.927103364 590 l 1
 312.976758172 590 l 1
 313.616108596 860.23046875 l 1
 517.692534343 974.8125 643.534755902 1097.07617188 643.534755902 1250 c 0
 643.534755902 1324.20117188 615.806794992 1432 521.091828777 1432 c 0
 440.819186721 1432 389.458849364 1364.74023438 375.095427229 1270 c 1
 26 1270 l 1
 67.189453125 1516.87402344 286.520990728 1686 526.922444354 1686 c 0
419.472528713 419 m 0
 538.682099684 419 616.04756818 346.705078125 616.04756818 225 c 0
 616.04756818 102.34765625 536.300397338 26 420.305473796 26 c 2
 410.277595889 26 l 1
 408.959850739 25.208984375 l 1
 302.089092225 30.126953125 222.09765625 105.618164062 222.09765625 225 c 0
 222.09765625 345.924804688 304.979183903 419 419.472528713 419 c 0
EndSplineSet
EndChar

StartChar: at
Encoding: 64 64 35
Width: 1613
GlyphClass: 2
Flags: HW
LayerCount: 2
Fore
SplineSet
938.26757424 357.391601562 m 1
 947.093959207 366.023965183 954.64015005 376.588494507 962.222206982 386.616210938 c 1
 962.222206982 667 l 2
 962.222206982 740.19921875 958.405328558 864 846.327412386 864 c 0
 710.630834326 864 726.731591385 650.0078125 726.774367515 591.021484375 c 1
 725.869830601 589.0390625 l 1
 725.869830601 577 l 2
 725.869830601 513.497183917 721.598059597 319 839.026952884 319 c 0
 851.684231486 319 864.161493875 320.423828125 876.17534819 323.349609375 c 1
 850.169147273 283.111982286 785.458202151 240 719.481928537 240 c 0
 592.768337755 240 505.030930663 395.653320312 505.030930663 587 c 0
 505.030930663 806.767578125 626.481275129 913 844.50229751 913 c 2
 869.14134833 913 l 2
 1056.54446457 913 1154.75958131 810.633683888 1155.68438379 602.875976562 c 2
 1156.72526961 369.040039062 l 1
 1194.80939276 344 l 1
 1207.70015774 344 l 2
 1385.21289062 344 1404 539.86328125 1404 675 c 0
 1404 1017.20703125 1139.76809879 1166 830.813935944 1166 c 0
 482.053019555 1166 243 945.206054688 243 565 c 0
 243 173.487304688 530.472925088 -17 876.441807832 -17 c 0
 916.01685734 -17 954.404869243 -13.123046875 990.280674685 -5.634765625 c 1
 1016.96852389 -133.860351562 l 1
 967.358016077 -144.904296875 921.99927734 -150 876.441807832 -150 c 0
 488.022963183 -150 216.2890625 14.5654296875 89.236328125 288.521484375 c 0
 49.7373046875 373.07421875 30 463.833984375 30 563 c 0
 30 797.41796875 126.254929242 968.887891662 249.569335938 1093.45117188 c 0
 376.994843677 1222.16718854 577.748569146 1317 829.901378506 1317 c 0
 1174.58341268 1317 1418.90332031 1167.32617188 1531.71582031 922.58203125 c 0
 1568.01171875 844.452148438 1586 762.31640625 1586 674 c 0
 1586 373.381835938 1388.51269531 253 1084.50490364 253 c 2
 978.489612713 253 l 1
 938.26757424 357.391601562 l 1
923.295928777 396.248046875 m 1
 876.17534819 323.349609375 l 1
 899.251287929 328.969726562 920.617964812 340.131835938 938.26757424 357.391601562 c 1
 923.295928777 396.248046875 l 1
EndSplineSet
EndChar

StartChar: A
Encoding: 65 65 36
Width: 1496
GlyphClass: 2
Flags: HW
HStem: 51 252<32 176.938 438.644 575.501 780.162 904.785 1342.56 1458> 574 138<500.641 823.143> 1291 251<219 430.163>
LayerCount: 2
Fore
SplineSet
844.063961829 574 m 1
 477.679446374 574 l 1
 438.644297436 303 l 1
 575.50108058 303 l 1
 575.50108058 51 l 1
 32 51 l 1
 32 303 l 1
 176.938476562 303 l 1
 430.162836068 1291 l 1
 219 1291 l 1
 219 1542 l 1
 1039.42372245 1542 l 1
 1342.56054688 303 l 1
 1458 303 l 1
 1458 51 l 1
 780.16200988 51 l 1
 780.16200988 303 l 1
 904.784815478 303 l 1
 844.063961829 574 l 1
658.371640824 1474.26757812 m 1
 500.640936149 712 l 1
 823.143375973 712 l 1
 658.371640824 1474.26757812 l 1
EndSplineSet
EndChar

StartChar: B
Encoding: 66 66 37
Width: 1436
GlyphClass: 2
Flags: HW
LayerCount: 2
Fore
SplineSet
61 1593 m 1
 766.717058748 1593 l 2
 1084.01143491 1593 1308 1533.67089844 1308 1225 c 0
 1308 1072.63085938 1212.57677444 984.284093681 1100.49692569 938.985351562 c 2
 970.019554851 886.250976562 l 1
 1102.99949835 842.094726562 l 1
 1268.32617188 792.169921875 1377 686.844726562 1377 471 c 0
 1377 191.150390625 1160.48925781 102 874.495564983 102 c 2
 54 102 l 1
 54 359 l 1
 227 359 l 1
 227 1342 l 1
 61 1342 l 1
 61 1593 l 1
613.511248232 359 m 1
 678.534644556 359 l 2
 807.267956246 359 946.644812958 382.428710938 946.644812958 552.205078125 c 0
 946.644812958 688.85546875 843.466099635 741 724.852680293 741 c 2
 703.920491066 741 l 2
 692.136566221 741 676.807970326 740.692776338 657.519819109 740.095703125 c 2
 613.511248232 738.733398438 l 1
 613.511248232 359 l 1
613.511248232 900 m 1
 695.458542229 900 l 2
 809.087692777 900 939.518961306 928.46484375 939.518961306 1101 c 0
 939.518961306 1209.68359375 867.511499686 1291 771.17071603 1291 c 2
 613.511248232 1291 l 1
 613.511248232 900 l 1
EndSplineSet
EndChar

StartChar: C
Encoding: 67 67 38
Width: 1318
GlyphClass: 2
Flags: HW
HStem: 24 318<697.84 988.664> 1311 261<437.079 848.665>
VStem: 45 467.441<576.909 1114.87> 1033.43 197.565<1013 1177.17 1504.56 1543>
LayerCount: 2
Fore
SplineSet
723.449779028 24 m 0
 316.714382639 24 45 325.818359375 45 805 c 0
 45 1260.61425781 245.75 1572 628.408698272 1572 c 0
 774.093623271 1572 869.32544014 1536.96679688 925.729685322 1460.14941406 c 2
 976.662188238 1390.78320312 l 1
 1026.64355469 1543 l 1
 1231 1543 l 1
 1231 1013 l 1
 1033.43457031 1013 l 1
 1021.16894531 1172.02148438 937.537442874 1311 779.253716352 1311 c 0
 574.715630709 1311 512.44114102 1032.72851562 512.44114102 846 c 0
 512.44114102 602.547851562 603.077409645 342 845.520891924 342 c 0
 975.026455761 342 1103.80859375 390.016601562 1201 455.5234375 c 1
 1201 162.663085938 l 1
 1054.10546875 81.2607421875 899.825336853 24 723.449779028 24 c 0
EndSplineSet
EndChar

StartChar: D
Encoding: 68 68 39
Width: 1547
GlyphClass: 2
Flags: HW
LayerCount: 2
Fore
SplineSet
781.614541607 1593 m 2
 1246.02842579 1593 1502 1354.87890625 1502 847 c 0
 1502 379.583984375 1193.70140585 102 761.734562769 102 c 2
 60 102 l 1
 60 359 l 1
 223 359 l 1
 223 1343 l 1
 54 1343 l 1
 54 1593 l 1
 781.614541607 1593 l 2
632.514700325 359 m 1
 710.227344872 359 l 2
 965.241373833 359 1033.72881868 607.07421875 1033.72881868 848 c 0
 1033.72881868 1088.12792969 979.934273675 1343 721.070969692 1343 c 2
 632.514700325 1343 l 1
 632.514700325 359 l 1
EndSplineSet
EndChar

StartChar: E
Encoding: 69 69 40
Width: 1199
GlyphClass: 2
Flags: HW
HStem: 102 257<54 212 608.95 872.077> 767 160<608.95 783.445> 1291 251<54 212 608.95 866.896>
VStem: 212 396.95<359 767 927 1291> 947.125 181.875<616.255 677 1010 1060.21>
LayerCount: 2
Fore
SplineSet
940.0390625 1010 m 1
 866.896178134 1291 l 1
 608.949582774 1291 l 1
 608.949582774 927 l 1
 783.445410515 927 l 1
 783.445410515 767 l 1
 608.949582774 767 l 1
 608.949582774 359 l 1
 872.07652302 359 l 1
 947.125 677 l 1
 1129 677 l 1
 1129 102 l 1
 54 102 l 1
 54 359 l 1
 212 359 l 1
 212 1291 l 1
 54 1291 l 1
 54 1542 l 1
 1118 1542 l 1
 1118 1010 l 1
 940.0390625 1010 l 1
EndSplineSet
EndChar

StartChar: F
Encoding: 70 70 41
Width: 1152
GlyphClass: 2
Flags: HW
LayerCount: 2
Fore
SplineSet
790.602042613 734 m 1
 618.836238774 734 l 1
 618.836238774 359 l 1
 749.786406057 359 l 1
 749.786406057 102 l 1
 54 102 l 1
 54 359 l 1
 212 359 l 1
 212 1291 l 1
 54 1291 l 1
 54 1542 l 1
 1125 1542 l 1
 1125 1000 l 1
 933.001953125 1000 l 1
 870.534324994 1291 l 1
 618.836238774 1291 l 1
 618.836238774 888 l 1
 790.602042613 888 l 1
 790.602042613 734 l 1
EndSplineSet
EndChar

StartChar: G
Encoding: 71 71 42
Width: 1483
GlyphClass: 2
Flags: HW
HStem: 22 305<707.112 1040.37> 609 202<915.019 1065.43> 1311 260<698.097 908.865>
VStem: 45 470.702<551.426 1080.37> 1065.43 343.566<381.708 609> 1122.11 212.893<1044 1157.15>
LayerCount: 2
Fore
SplineSet
820.114194237 22 m 0xf8
 358.337003934 22 45 285.977539062 45 792 c 0
 45 1271.7734375 316.55819963 1571 743.115918233 1571 c 0
 862.361647205 1571 932.234889698 1527.4609375 988.275127504 1452.35058594 c 2
 1041.80162481 1380.61035156 l 1
 1087.29114727 1542 l 1
 1335 1542 l 1
 1335 1044 l 1
 1122.1066718 1044 l 1xf4
 1088.05445003 1172.37207031 1009.23753742 1311 851.450701913 1311 c 0
 599.289741708 1311 515.702405385 1047.78710938 515.702405385 801 c 0
 515.702405385 571.58984375 617.511955896 327 849.660044331 327 c 0
 923.042031391 327 985.768381759 345.45703125 1037.00059904 368.76953125 c 2
 1065.4342829 381.708007812 l 1
 1065.4342829 609 l 1
 915.019046055 609 l 1
 915.019046055 811 l 1
 1409 811 l 1
 1409 170.939453125 l 1
 1235.31347656 83.1552734375 1036.27926481 22 820.114194237 22 c 0xf8
EndSplineSet
EndChar

StartChar: H
Encoding: 72 72 43
Width: 1671
GlyphClass: 2
Flags: W
HStem: 102 257<54 208 640.558 734.605 951.918 1032.27 1466 1617> 686 239<640.558 1032.27> 1291 251<54 208 640.558 733.692 951.918 1032.27 1466 1617>
VStem: 54 680.605<102 359 1291 1542> 208 432.558<359 686 925 1291> 951.918 665.082<102 359 1291 1542> 1032.27 433.731<359 686 925 1291>
LayerCount: 2
Fore
SplineSet
54 359 m 1xf0
 208 359 l 1
 208 1291 l 1xe8
 54 1291 l 1
 54 1542 l 1xf0
 733.691686266 1542 l 1
 733.691686266 1291 l 1
 640.557623479 1291 l 1
 640.557623479 925 l 1
 1032.26853461 925 l 1
 1032.26853461 1291 l 1xea
 951.917578485 1291 l 1
 951.917578485 1542 l 1
 1617 1542 l 1
 1617 1291 l 1xe4
 1466 1291 l 1
 1466 359 l 1xe2
 1617 359 l 1
 1617 102 l 1
 951.917578485 102 l 1
 951.917578485 359 l 1xe4
 1032.26853461 359 l 1
 1032.26853461 686 l 1
 640.557623479 686 l 1
 640.557623479 359 l 1xea
 734.604765313 359 l 1
 734.604765313 102 l 1
 54 102 l 1
 54 359 l 1xf0
EndSplineSet
EndChar

StartChar: I
Encoding: 73 73 44
Width: 736
GlyphClass: 2
Flags: W
HStem: 102 257<36 183 553 694> 1342 251<40 183 553 700>
VStem: 36 658<102 359 1342 1593>
LayerCount: 2
Fore
SplineSet
700 1342 m 1
 553 1342 l 1
 553 359 l 1
 694 359 l 1
 694 102 l 1
 36 102 l 1
 36 359 l 1
 183 359 l 1
 183 1342 l 1
 40 1342 l 1
 40 1593 l 1
 700 1593 l 1
 700 1342 l 1
EndSplineSet
EndChar

StartChar: J
Encoding: 74 74 45
Width: 1115
GlyphClass: 2
Flags: HW
HStem: 21 293<358.567 644.483> 1291 251<389.121 518.748 914 1061>
VStem: 27 202.427<372.832 582> 518.748 395.252<360.423 1291>
LayerCount: 2
Fore
SplineSet
914 1291 m 1
 914 475 l 2
 914 185.59765625 765.167777583 21 523.798411122 21 c 0
 418.691951021 21 353.689598561 54.6857014593 314.780685834 111.037109375 c 2
 268.102539062 178.640625 l 1
 211.541015625 38 l 1
 27 38 l 1
 27 582 l 1
 229.426757812 582 l 1
 231.604492188 483.52734375 244.6171875 314 382.387288977 314 c 0
 514.0461467 314 518.748013903 481.604492188 518.748013903 572 c 2
 518.748013903 1291 l 1
 389.121151936 1291 l 1
 389.121151936 1542 l 1
 1061 1542 l 1
 1061 1291 l 1
 914 1291 l 1
EndSplineSet
EndChar

StartChar: K
Encoding: 75 75 46
Width: 1543
GlyphClass: 2
Flags: HW
LayerCount: 2
Fore
SplineSet
958.162617898 358 m 2
 958.162617898 533 l 2
 958.162617898 611.631835938 912.39426325 732 812.602333539 732 c 2
 612.795980475 732 l 1
 612.795980475 359 l 1
 728.506800465 359 l 1
 733.037901126 102 l 1
 54 102 l 1
 54 359 l 1
 201 359 l 1
 201 1342 l 1
 54 1342 l 1
 54 1592 l 1
 727.616825901 1592 l 1
 727.616825901 1342 l 1
 612.795980475 1342 l 1
 612.795980475 781.263671875 l 1
 964.491325913 1273.27441406 l 1
 964.491325913 1592 l 1
 1455 1592 l 1
 1455 1342 l 1
 1344.98535156 1342 l 1
 1024.16200149 923.346679688 l 1
 1024.16200149 840 l 1
 1070.27115989 840 l 2
 1244.27178222 840 1345 796.748046875 1345 643 c 2
 1345 502 l 2
 1345 449.196289062 1374.41015625 359 1463 359 c 2
 1502.84570312 359 l 1
 1507.140625 102 l 1
 1215.83144425 102 l 2
 1031.77357959 102 958.162617898 180.900390625 958.162617898 358 c 2
EndSplineSet
EndChar

StartChar: L
Encoding: 76 76 47
Width: 1155
GlyphClass: 2
Flags: HW
HStem: 102 257<59 201 611.424 851.294> 1342 250<54 201 611.424 742.475>
VStem: 201 410.424<359 1342>
LayerCount: 2
Fore
SplineSet
611.423562412 359 m 1
 851.294048036 359 l 1
 932.875 709 l 1
 1128 709 l 1
 1128 102 l 1
 59 102 l 1
 59 359 l 1
 201 359 l 1
 201 1342 l 1
 54 1342 l 1
 54 1592 l 1
 742.474754558 1592 l 1
 742.474754558 1342 l 1
 611.423562412 1342 l 1
 611.423562412 359 l 1
EndSplineSet
EndChar

StartChar: M
Encoding: 77 77 48
Width: 2116
GlyphClass: 2
Flags: HW
LayerCount: 2
Fore
SplineSet
525.796549849 359 m 2
 587.637091592 359 l 1
 587.637091592 102 l 1
 58 102 l 1
 58 359 l 1
 131 359 l 2
 147.719726562 359 161.947259792 359.335054268 174.181640625 360.099609375 c 2
 222 363.087890625 l 1
 222 1342 l 1
 54 1342 l 1
 54 1593 l 1
 771.851156834 1593 l 1
 1097.1325528 734.05859375 l 1
 1386.73833203 1593 l 1
 2055 1593 l 1
 2055 1342 l 1
 1908 1342 l 1
 1908 359 l 1
 2062 359 l 1
 2062 102 l 1
 1389.69017844 102 l 1
 1389.69017844 359 l 1
 1504.93846078 359 l 1
 1504.93846078 1289.36523438 l 1
 1103.15702793 102 l 1
 904.903849407 102 l 1
 435.846670951 1268.07617188 l 1
 435.846670951 362.61328125 l 1
 481.120821118 360.0703125 l 2
 494.12596464 359.33984375 508.938267696 359 525.796549849 359 c 2
EndSplineSet
EndChar

StartChar: N
Encoding: 78 78 49
Width: 1620
GlyphClass: 2
Flags: HW
HStem: 102 257.652<54 217 419.074 562.717> 1341.65 250<60 217 1057.28 1200.93 1408 1566>
VStem: 217 202.074<362.407 1130.85> 1200.93 207.074<490.553 1341.65>
LayerCount: 2
Fore
SplineSet
419.074192859 359.65234375 m 1
 499.077613855 359.65234375 l 2
 519.384767713 359.65234375 541.272244828 359.278320312 562.716698739 359 c 1
 562.716698739 102 l 1
 54 102 l 1
 54 359 l 1
 123 359 l 2
 140.352539062 359 155.542350885 358.992151325 168.829101562 359.73046875 c 2
 217 362.407226562 l 1
 217 1343.65234375 l 1
 60 1343.65234375 l 1
 60 1592.65234375 l 1
 675.589955667 1592.65234375 l 1
 1200.92580714 490.552734375 l 1
 1200.92580714 1341.65234375 l 1
 1057.28330126 1341.65234375 l 1
 1057.28330126 1591.65234375 l 1
 1566 1591.65234375 l 1
 1566 1341.65234375 l 1
 1408 1341.65234375 l 1
 1408 102 l 1
 923.1458183 102 l 1
 419.074192859 1130.8515625 l 1
 419.074192859 359.65234375 l 1
EndSplineSet
EndChar

StartChar: O
Encoding: 79 79 50
Width: 1526
GlyphClass: 2
Flags: W
HStem: 22 245<652.525 873.472> 1311 261<644.522 881.552>
VStem: 45 473.414<527.788 1105.19> 1007.59 473.414<528.041 1105.11>
LayerCount: 2
Fore
SplineSet
763 1311 m 0
 542.229961842 1311 518.414264964 982.366210938 518.414264964 806 c 0
 518.414264964 630.453125 540.612634439 267 763 267 c 0
 985.27543064 267 1007.58573504 631.58203125 1007.58573504 806 c 0
 1007.58573504 982.970703125 983.451860941 1311 763 1311 c 0
45 798 m 0
 45 1282.99804688 326.659168564 1572 763 1572 c 0
 1200.52628395 1572 1481 1282.05761719 1481 798 c 0
 1481 555.435546875 1387.0197989 370.056778314 1266.109375 242.231445312 c 0
 1148.96250325 118.384903314 983.232397985 22 763 22 c 0
 542.891876218 22 376.935528215 118.498612401 259.890625 242.231445312 c 0
 138.859473772 370.178299901 45 555.286132812 45 798 c 0
EndSplineSet
EndChar

StartChar: P
Encoding: 80 80 51
Width: 1402
GlyphClass: 2
Flags: HW
LayerCount: 2
Fore
SplineSet
797.892659725 1542 m 2
 1122.28766174 1542 1377 1454.53515625 1377 1133 c 0
 1377 744.99609375 1170.77441406 610 805.909242833 610 c 0
 761.968520642 610 720.000712485 613.703716734 677.934444649 619.606445312 c 2
 626.87222008 626.771484375 l 1
 626.87222008 359 l 1
 756.919012727 359 l 1
 756.919012727 102 l 1
 54 102 l 1
 54 359 l 1
 210 359 l 1
 210 1291 l 1
 59 1291 l 1
 59 1542 l 1
 797.892659725 1542 l 2
709.710245533 834 m 2
 861.589527268 834 957.333590436 923.1953125 957.333590436 1086 c 0
 957.333590436 1225.22070312 855.774547008 1291 748.011698162 1291 c 2
 627.762951536 1291 l 1
 627.762951536 834 l 1
 709.710245533 834 l 2
EndSplineSet
EndChar

StartChar: Q
Encoding: 81 81 52
Width: 1578
GlyphClass: 2
Flags: HW
LayerCount: 2
Fore
SplineSet
971.890590862 52 m 1
 909.51934918 34.499367912 841.69657664 22 765.414245139 22 c 0
 544.180856729 22 377.247028838 118.392131554 259.890625 242.231445312 c 0
 138.742614144 370.071819054 45 555.286132812 45 798 c 0
 45 1282.99804688 326.84269684 1572 765.414245139 1572 c 0
 1205.17730637 1572 1481 1282.05761719 1481 798 c 0
 1481 628.693359375 1438.05209557 494.258591439 1373.98144531 384.755859375 c 2
 1305.51953125 267.748046875 l 1
 1429.27636719 309 l 1
 1533 309 l 1
 1533 52 l 1
 971.890590862 52 l 1
765.414245139 1311 m 0
 543.515558431 1311 519.578107931 982.366210938 519.578107931 806 c 0
 519.578107931 630.453125 541.889962721 267 765.414245139 267 c 0
 988.826020387 267 1011.25038235 631.58203125 1011.25038235 806 c 0
 1011.25038235 982.970703125 986.993128004 1311 765.414245139 1311 c 0
EndSplineSet
EndChar

StartChar: R
Encoding: 82 82 53
Width: 1525
GlyphClass: 2
Flags: HW
HStem: 100.601 257<55 209 608.19 717.236 1353.35 1476> 734 124<608.19 871.745> 1290 251<54 209 602.782 899.249>
VStem: 209 393.782<357.601 734 858 1290> 956.056 355.944<398.354 656.319> 974.982 419.018<996.331 1213.42>
LayerCount: 2
Fore
SplineSet
54 1541 m 1xf8
 947.044165504 1541 l 2
 1224.93768909 1541 1394 1443.82910156 1394 1160 c 0xf4
 1394 964.559570312 1260.91594456 882.159243365 1091.81578086 847.133789062 c 2
 873.847357969 801.986328125 l 1
 1090.02920494 747.276367188 l 1
 1216.17378613 718.895507812 1312 683.396484375 1312 570.114257812 c 2
 1312 496.982421875 l 2
 1312 396.418945312 1397.49511719 363.671875 1476 359 c 1
 1476 100.600585938 l 1
 1205.69107392 100.600585938 l 2
 1033.68693704 100.600585938 956.056252906 143.446289062 956.056252906 305.600585938 c 2
 956.056252906 474.954101562 l 2
 956.056252906 613.198242188 912.518365822 734 742.469781497 734 c 2
 608.189679219 734 l 1
 608.189679219 357.600585938 l 1
 717.235936774 357.600585938 l 1
 717.235936774 100.600585938 l 1
 462.193863319 100.600585938 l 2
 353.077198832 100.600585938 215.083007812 100.321289062 55 99.7802734375 c 1
 55 357.600585938 l 1
 209 357.600585938 l 1
 209 1290 l 1
 54 1290 l 1
 54 1541 l 1xf8
602.782426778 858 m 1
 703.717805672 858 l 2
 830.17921806 858 974.981636448 904.2890625 974.981636448 1085 c 0
 974.981636448 1226.07910156 866.211726105 1290 757.790330079 1290 c 2
 602.782426778 1290 l 1
 602.782426778 858 l 1
EndSplineSet
EndChar

StartChar: S
Encoding: 83 83 54
Width: 1114
GlyphClass: 2
Flags: HW
HStem: 22 261<473.769 670.674> 51 386<70 302.801> 1168 374<773.544 987> 1326 246<304.705 648.057>
VStem: 33 347.431<1081.83 1289.74> 706.82 376.18<322.941 528.067> 772.599 214.401<1168 1237.59 1495.86 1542>
LayerCount: 2
Fore
SplineSet
539.870683182 587.1640625 m 0x8c
 273.821289062 673.693359375 33 769.375976562 33 1133 c 0
 33 1387.39648438 196.001953125 1572 413.40806686 1572 c 0x9c
 541.76412538 1572 641.667354495 1543.02832031 715.588394875 1489.50488281 c 2
 761.860059516 1456.00097656 l 1
 778.854797363 1516.296875 l 2
 779.82918105 1518.94042969 784.344375965 1529.22949219 790.574651319 1542 c 1
 987 1542 l 1
 987 1168 l 1
 772.598923794 1168 l 1x2a
 722.931779728 1265.8984375 651.17667868 1326 521.640625 1326 c 0
 453.845815614 1326 380.430959302 1285.50683594 380.430959302 1183 c 0
 380.430959302 1068.49902344 489.679188573 1043.23046875 526.172334893 1031.72167969 c 0
 807.700593085 942.93752776 1083 878.79007209 1083 501 c 0
 1083 213.784179688 908.284179688 22 659.468023256 22 c 0x9c
 525.519167523 22 464.507059497 61.900390625 389.395289221 132.029296875 c 2
 343.720641025 174.673828125 l 1
 302.800654921 51 l 1
 70 51 l 1
 70 437 l 1
 302.699087808 437 l 1x4c
 345.962549254 331.608398438 430.917246264 283 546.162063953 283 c 0
 600.341099939 283 706.819767442 304.720703125 706.819767442 420 c 0
 706.819767442 552.702148438 580.83938847 573.801757812 539.870683182 587.1640625 c 0x8c
EndSplineSet
EndChar

StartChar: T
Encoding: 84 84 55
Width: 1353
GlyphClass: 2
Flags: HW
HStem: 51 258<324.764 470.249 879.203 1024.69> 1016 525<30 216.512 1136.8 1323> 1291 250<260.512 470.249 879.203 1094.8>
VStem: 30 186.512<1016 1105.6> 470.249 408.955<309 1291> 1136.8 186.197<1016 1109.87>
LayerCount: 2
Fore
SplineSet
1136.80273438 1016 m 1xdc
 1094.80273438 1291 l 1
 879.203081419 1291 l 1
 879.203081419 309 l 1
 1024.68800638 309 l 1
 1024.68800638 51 l 1
 324.763580821 51 l 1
 324.763580821 309 l 1
 470.248505778 309 l 1
 470.248505778 1291 l 1
 260.51171875 1291 l 1xbc
 216.51171875 1016 l 1
 30 1016 l 1
 30 1541 l 1
 1323 1541 l 1
 1323 1016 l 1
 1136.80273438 1016 l 1xdc
EndSplineSet
EndChar

StartChar: U
Encoding: 85 85 56
Width: 1451
GlyphClass: 2
Flags: HW
HStem: 22 273<699.881 958.456> 1291 250<29 190 610.024 742.965 900.159 1047.47 1267 1421>
VStem: 190 420.024<409.97 1291> 1047.47 219.527<385.567 1291>
LayerCount: 2
Fore
SplineSet
1267 1291 m 1
 1267 520 l 2
 1267 205.916992188 1019.55308086 22 718.712233661 22 c 0
 335.447085603 22 190 259.631835938 190 704 c 2
 190 1291 l 1
 29 1291 l 1
 29 1541 l 1
 742.965046684 1541 l 1
 742.965046684 1291 l 1
 610.023701221 1291 l 1
 610.023701221 600 l 2
 610.023701221 452.477539062 662.759183475 295 825.604261432 295 c 0
 955.125405868 295 1047.47258798 388.37890625 1047.47258798 536 c 2
 1047.47258798 1291 l 1
 900.159205171 1291 l 1
 900.159205171 1541 l 1
 1421 1541 l 1
 1421 1291 l 1
 1267 1291 l 1
EndSplineSet
EndChar

StartChar: V
Encoding: 86 86 57
Width: 1539
GlyphClass: 2
Flags: HW
LayerCount: 2
Fore
SplineSet
741.88377353 1291 m 1
 621.979723681 1291 l 1
 869.314653411 314.939453125 l 1
 1083.66633725 1290 l 1
 953.20895958 1290 l 1
 953.20895958 1541 l 1
 1513 1541 l 1
 1513 1291 l 1
 1346.83496094 1291 l 1
 977.547599549 51 l 1
 516.291444839 51 l 1
 180.26953125 1291 l 1
 27 1291 l 1
 27 1541 l 1
 741.88377353 1541 l 1
 741.88377353 1291 l 1
EndSplineSet
EndChar

StartChar: W
Encoding: 87 87 58
Width: 2353
GlyphClass: 2
Flags: HW
LayerCount: 2
Fore
SplineSet
30 1291 m 1
 30 1542 l 1
 789.889906907 1542 l 1
 789.889906907 1291 l 1
 631.614191035 1291 l 1
 845.532391905 483.547851562 l 1
 1128.32346401 1542 l 1
 1442.42105883 1542 l 1
 1717.9679977 517.80078125 l 1
 1929.18559161 1291 l 1
 1780.78529851 1291 l 1
 1780.78529851 1542 l 1
 2323 1542 l 1
 2323 1291 l 1
 2166.13183594 1291 l 1
 1838.64132001 51 l 1
 1398.3675234 51 l 1
 1179.92520513 895.311523438 l 1
 951.296922015 51 l 1
 516.024146707 51 l 1
 180.627929688 1291 l 1
 30 1291 l 1
EndSplineSet
EndChar

StartChar: X
Encoding: 88 88 59
Width: 1717
GlyphClass: 2
Flags: HW
LayerCount: 2
Fore
SplineSet
460.621728856 358 m 1
 558.483920221 358 l 2
 577.185571012 358 583.897741633 359 604.428189713 359 c 2
 716.532207272 359 l 1
 716.532207272 102 l 1
 35 102 l 1
 35 358 l 1
 165.76953125 358 l 1
 616.46522938 893.666992188 l 1
 228.181640625 1342 l 1
 86 1342 l 1
 86 1593 l 1
 851.608359576 1593 l 1
 851.608359576 1342 l 1
 723.590754612 1342 l 1
 973.643338668 1012.76074219 l 1
 1202.08686113 1342 l 1
 1022.52104208 1342 l 1
 1022.52104208 1593 l 1
 1631 1593 l 1
 1631 1342 l 1
 1459.95507812 1342 l 1
 1113.36147742 856.515625 l 1
 1559.15820312 359 l 1
 1682 359 l 1
 1682 102 l 1
 902.147056017 102 l 1
 902.147056017 359 l 1
 1080.45479174 359 l 1
 744.798701197 742.325195312 l 1
 460.621728856 358 l 1
EndSplineSet
EndChar

StartChar: Y
Encoding: 89 89 60
Width: 1431
GlyphClass: 2
Flags: HW
HStem: 102 257<392.299 531.24 939.098 1079.83> 1342 250<28 115.209 603.144 725.757 896.968 1059.62 1244.53 1402>
VStem: 531.24 407.858<359 719.375>
LayerCount: 2
Fore
SplineSet
1059.61808098 1342 m 1
 896.967576792 1342 l 1
 896.967576792 1592 l 1
 1402 1592 l 1
 1402 1342 l 1
 1244.53320312 1342 l 1
 939.098000975 768.647460938 l 1
 939.098000975 359 l 1
 1079.83154559 359 l 1
 1079.83154559 102 l 1
 392.298878596 102 l 1
 392.298878596 359 l 1
 531.2396392 359 l 1
 531.2396392 719.375 l 1
 115.208984375 1342 l 1
 28 1342 l 1
 28 1592 l 1
 725.756704047 1592 l 1
 725.756704047 1342 l 1
 603.144459115 1342 l 1
 858.602174101 926.203125 l 1
 1059.61808098 1342 l 1
EndSplineSet
EndChar

StartChar: Z
Encoding: 90 90 61
Width: 1283
GlyphClass: 2
Flags: HW
HStem: 102 257<560.564 953.106> 1342 250<309.495 710.222>
LayerCount: 2
Fore
SplineSet
1226 1330.97949219 m 1
 560.564056071 359 l 1
 953.106121107 359 l 1
 1053.28222656 695 l 1
 1247 695 l 1
 1247 102 l 1
 41 102 l 1
 41 383.787109375 l 1
 710.222167041 1342 l 1
 309.494818755 1342 l 1
 233.426757812 1030 l 1
 36 1030 l 1
 36 1592 l 1
 1226 1592 l 1
 1226 1330.97949219 l 1
EndSplineSet
EndChar

StartChar: bracketleft
Encoding: 91 91 62
Width: 684
GlyphClass: 2
Flags: HW
LayerCount: 2
Fore
SplineSet
36 51 m 1
 36 1572 l 1
 648 1572 l 1
 648 1373 l 1
 451 1373 l 1
 451 260 l 1
 643.8359375 260 l 1
 643.1640625 51 l 1
 36 51 l 1
EndSplineSet
EndChar

StartChar: backslash
Encoding: 92 92 63
Width: 743
GlyphClass: 2
Flags: HW
LayerCount: 2
Fore
SplineSet
310.903849667 51 m 1
 16 1572 l 1
 409.017216553 1572 l 1
 703.3046875 51 l 1
 310.903849667 51 l 1
EndSplineSet
EndChar

StartChar: bracketright
Encoding: 93 93 64
Width: 684
GlyphClass: 2
Flags: HW
LayerCount: 2
Fore
SplineSet
40.8359375 51 m 1
 40.1640625 260 l 1
 233 260 l 1
 233 1373 l 1
 36 1373 l 1
 36 1572 l 1
 648 1572 l 1
 648 51 l 1
 40.8359375 51 l 1
EndSplineSet
EndChar

StartChar: asciicircum
Encoding: 94 94 65
Width: 1234
GlyphClass: 2
Flags: HW
LayerCount: 2
Fore
SplineSet
702.958717886 1573 m 1
 1101.10253906 960 l 1
 775.464459109 960 l 1
 568.550854971 1335.71679688 l 1
 361.638079953 960 l 1
 36 960 l 1
 434.143821177 1573 l 1
 702.958717886 1573 l 1
EndSplineSet
EndChar

StartChar: underscore
Encoding: 95 95 66
Width: 1124
GlyphClass: 2
Flags: HW
LayerCount: 2
Fore
SplineSet
1058 -52 m 1
 1058 -173 l 1
 69 -173 l 1
 69 -52 l 1
 1058 -52 l 1
EndSplineSet
EndChar

StartChar: grave
Encoding: 96 96 67
Width: 654
GlyphClass: 2
Flags: HW
HStem: 1276.62 434.187
VStem: 48 516.017
LayerCount: 2
Fore
SplineSet
166.682617188 1710.80566406 m 1
 564.016601562 1344.48730469 l 1
 513.958007812 1276.61914062 l 1
 48 1539.87695312 l 1
 166.682617188 1710.80566406 l 1
EndSplineSet
EndChar

StartChar: a
Encoding: 97 97 68
Width: 1141
GlyphClass: 2
Flags: W
HStem: 51 199<1019 1115> 84 140<280.636 550.336> 489 90<315.979 637.223> 759 223.487<132 280.082> 854 186<291.594 597.746>
VStem: 59 349.292<260.256 460.846> 670.002 348.998<250 468.381 521.241 780.633>
LayerCount: 2
Fore
SplineSet
59 359 m 0x66
 59 506.95709544 223.666450632 579 408.292041772 579 c 0
 491.262412225 579 552.829745454 567.356445312 613.147320625 543.6171875 c 2
 670.001800504 521.241210938 l 1
 670.001800504 637 l 2
 670.001800504 798.2421875 567.093198596 854 445.558156284 854 c 0x6e
 363.23789161 854 290.231445312 822.690429688 232.127929688 759 c 1
 132 759 l 1
 132 982.487304688 l 1x36
 263.775390625 1015.29394531 395.524824451 1040 524.325171048 1040 c 0
 781.752998965 1040 1019 988.057617188 1019 750 c 2
 1019 250 l 1
 1115 250 l 1
 1115 51 l 1
 698.484043032 51 l 1xae
 641.37564143 208.333007812 l 1
 652.302532935 217.232457252 660.923648673 228.156450835 670.001800504 238.875 c 1
 670.001800504 468.380859375 l 1
 635.705825756 476.90625 l 2
 610.635397911 483.137695312 576.579284075 489 543.805185452 489 c 0
 464.153166637 489 408.292041772 437.374023438 408.292041772 372.646484375 c 0
 408.292041772 290.033203125 460.001918662 224 536.18257112 224 c 0
 564.488639944 224 594.952629861 231.126953125 620.726098308 245.427734375 c 1
 592.251299739 200.599609375 l 2
 552.750343221 138.415039062 468.756841916 84 369.332012964 84 c 0
 191.940429688 84 59 186.282226562 59 359 c 0x66
637.078822695 220.169921875 m 1
 620.726098308 194.427734375 l 1
 628.039374775 198.485351562 634.973836424 203.120117188 641.37564143 208.333007812 c 1
 637.078822695 220.169921875 l 1
EndSplineSet
EndChar

StartChar: b
Encoding: 98 98 69
Width: 1228
GlyphClass: 2
Flags: HW
LayerCount: 2
Fore
SplineSet
797.056847545 1092 m 0
 1044.39355469 1092 1178 880.658203125 1178 589 c 0
 1178 287.673828125 1037.47851562 84 778.77002584 84 c 0
 677.71373597 84 617.71716502 126.389846269 571.851882974 186.583984375 c 2
 523.751180959 249.711914062 l 1
 473.309350775 102 l 1
 142 102 l 1
 142 1324 l 1
 -1 1324 l 1
 -1 1500.02929688 l 1
 486.180878553 1554.42089844 l 1
 486.180878553 909.1484375 l 1
 558.521994105 976.348632812 l 2
 644.564619671 1056.27636719 723.666348716 1092 797.056847545 1092 c 0
652.503875969 830 m 0
 572.765486625 830 524.394147799 783.048449871 490.534883721 729.583984375 c 1
 490.534883721 320.416015625 l 1
 506.182940185 305.140625 l 2
 538.263964591 273.827148438 590.455900759 243 652.503875969 243 c 0
 787.71444505 243 824.051679587 395.814453125 824.051679587 509 c 0
 824.051679587 628.260742188 812.943013667 830 652.503875969 830 c 0
EndSplineSet
EndChar

StartChar: c
Encoding: 99 99 70
Width: 962
GlyphClass: 2
Flags: HW
HStem: 33 210<440.278 612.692> 830 210<434.612 578.508>
VStem: 34 340.397<313.669 764.074> 656.01 204.99<283.12 374 679 778.513>
LayerCount: 2
Fore
SplineSet
504.94120324 33 m 0
 233.682617188 33 34 213.475585938 34 546 c 0
 34 845.51171875 207.435546875 1040 448.883953764 1040 c 0
 533.398776324 1040 589.263875958 999.320805311 610.853199111 945.384765625 c 2
 657.983398438 827.640625 l 1
 732.07421875 1021 l 1
 861 1021 l 1
 861 679 l 1
 656.009765625 679 l 1
 639.946289062 757.314453125 590.442157049 830 517.227723673 830 c 0
 383.979269712 830 374.396923637 616.178710938 374.396923637 513 c 0
 374.396923637 391.583984375 409.152238334 243 532.585874215 243 c 0
 603.784550331 243 640.392578125 319.037109375 655.322265625 374 c 1
 863 374 l 1
 863 149.225585938 l 1
 768.555664062 80.77734375 639.203125 33 504.94120324 33 c 0
EndSplineSet
EndChar

StartChar: d
Encoding: 100 100 71
Width: 1224
GlyphClass: 2
Flags: HW
LayerCount: 2
Fore
SplineSet
423.9350406 84 m 0
 172.969726562 84 34 303.548828125 34 601 c 0
 34 880.3671875 180.291015625 1091 416.996876952 1091 c 0
 532.503919974 1091 587.905902012 1044.80957031 648.503884291 974.9375 c 2
 724.010618364 887.875 l 1
 724.010618364 1324 l 1
 590.450968145 1324 l 1
 590.450968145 1499.91015625 l 1
 1075 1554.56640625 l 1
 1075 301 l 1
 1192 301 l 1
 1192 102 l 1
 724.010618364 102 l 1
 724.010618364 331.334960938 l 1
 644.464809287 209.70703125 l 2
 599.867289365 141.515625 526.036657082 84 423.9350406 84 c 0
562.698313554 243 m 0
 645.029789779 243 693.662897625 298.706043873 724.010618364 355.564453125 c 1
 724.010618364 727.46484375 l 1
 691.323163465 772.693509985 643.939336928 830 562.698313554 830 c 0
 424.684585867 830 386.642410993 675.75 386.642410993 558 c 0
 386.642410993 436.314453125 405.61903388 243 562.698313554 243 c 0
EndSplineSet
EndChar

StartChar: e
Encoding: 101 101 72
Width: 1016
GlyphClass: 2
Flags: W
HStem: 33 139<411.454 655.051> 484 144<309.503 705.499> 887 153<381.29 641.322>
VStem: 34 274.895<308.591 484 628 778.055> 705.499 239.501<628 799.264> 716.005 209.995<234.993 364>
LayerCount: 2
Fore
SplineSet
308.89453125 484 m 1xf8
 308.89453125 337.906506876 372.303204287 172 532.298828125 172 c 0
 661.435905519 172 695.801022931 249.702713816 716.004882812 364 c 1
 926 364 l 1
 926 156.965820312 l 1xf4
 793.482421875 79.984375 668.821348988 33 497.946229961 33 c 0
 232.114257812 33 34 225.206054688 34 542 c 0
 34 863.547851562 230.303710938 1040 502.772647081 1040 c 0
 759.662109375 1040 945 900 945 556 c 0
 945 531.909855769 942.61328125 507.825120192 939.236328125 484 c 1
 308.89453125 484 l 1xf8
508.403467055 887 m 0
 345.021161097 887 309.502929688 747.759762679 309.502929688 628 c 1
 705.499023438 628 l 1xf8
 705.499023438 747.399730431 691.701108868 887 508.403467055 887 c 0
EndSplineSet
EndChar

StartChar: f
Encoding: 102 102 73
Width: 724
GlyphClass: 2
Flags: HW
LayerCount: 2
Fore
SplineSet
194 1218 m 2
 194 1467.69335938 283.97090912 1570 411.844809402 1570 c 0
 494.819335938 1570 603.2578125 1557.89453125 682 1536.35839844 c 1
 682 1322.12304688 l 1
 652.803710938 1325.53515625 630.493164062 1327 607 1327 c 0
 496.857421875 1327 468 1233.89257812 468 1158 c 2
 468 1141 l 2
 468 1133.11132812 468.438791464 1125.22258276 469.311523438 1117.36816406 c 2
 474.352539062 1072 l 1
 683 1072 l 1
 683 881 l 1
 477 881 l 1
 477 301 l 1
 653 301 l 1
 653 102 l 1
 46 102 l 1
 46 301 l 1
 194 301 l 1
 194 881 l 1
 28 881 l 1
 28 1072 l 1
 194 1072 l 1
 194 1218 l 2
EndSplineSet
EndChar

StartChar: g
Encoding: 103 103 74
Width: 1220
GlyphClass: 2
Flags: HW
HStem: -390 166<236.057 629.276> 0 261<293.413 583.998> 761 209<1083 1190> 830 159<291.779 610.863>
VStem: 34 352.6<346.94 745.694> 730.769 352.231<-109.238 181.625 294.948 697.085>
LayerCount: 2
Fore
SplineSet
1083 761 m 1xec
 1083 84 l 2
 1083 -253.333007812 846.916964769 -390 529.642208538 -390 c 0
 421.820214242 -390 305.542323348 -372.926757812 169 -339.180664062 c 1
 169 -159.157226562 l 1
 268.973632812 -190.352539062 366.607984308 -224 478.493685419 -224 c 0
 635.635534766 -224 732.502452771 -120.125976562 732.502452771 66 c 2
 732.502452771 181.625 l 1
 658.477800098 103.663085938 l 2
 603.245251629 45.4912109375 524.555802174 0 416.075148732 0 c 0
 170.750976562 0 34 203.234375 34 490 c 0
 34 780.078125 169.215820312 989 414.341300491 989 c 0xdc
 531.115302258 989 602.573893399 923.313476562 652.068149202 841.75390625 c 2
 695.700507923 769.853515625 l 1
 777.828869271 970 l 1
 1190 970 l 1
 1190 761 l 1
 1083 761 l 1xec
730.76860453 691.129882812 m 1
 713.265126352 773.927859154 653.394456287 830 572.12149045 830 c 0
 443.486544414 830 386.59972863 705.850585938 386.59972863 535 c 0
 386.59972863 403.161132812 432.077687529 261 575.589186932 261 c 0
 624.302025779 261 730.76860453 282.327148438 730.76860453 390 c 2
 730.76860453 691.129882812 l 1
EndSplineSet
EndChar

StartChar: h
Encoding: 104 104 75
Width: 1234
GlyphClass: 2
Flags: HW
LayerCount: 2
Fore
SplineSet
500.964982956 766.995117188 m 1
 511.222609646 788.654296875 l 1
 503.918385764 765.03515625 500.964982956 739.330078125 500.964982956 712 c 2
 500.964982956 301 l 1
 581.716764797 301 l 1
 581.716764797 102 l 1
 49 102 l 1
 49 301 l 1
 148 301 l 1
 148 1324 l 1
 44 1324 l 1
 44 1500.30175781 l 1
 500.964982956 1554.08300781 l 1
 500.964982956 766.995117188 l 1
632.946389836 830 m 0
 594.025577646 830 555.638124734 814.561523438 530.590589412 778.546875 c 1
 584.124089107 891.578125 l 2
 624.410945489 976.640625 699.014256541 1040 819.630616672 1040 c 0
 1007.91015625 1040 1102 923.1328125 1102 702 c 2
 1102 250 l 1
 1208 250 l 1
 1208 51 l 1
 749.298419585 51 l 1
 749.298419585 654 l 2
 749.298419585 745.286132812 716.004590177 830 632.946389836 830 c 0
EndSplineSet
EndChar

StartChar: i
Encoding: 105 105 76
Width: 690
GlyphClass: 2
Flags: HW
HStem: 51 199<51 153 538 642> 812 150.184<44 153> 1237 393<148.547 461.672>
VStem: 76 462<1310.03 1560.35> 153 385<250 812>
LayerCount: 2
Fore
SplineSet
44 962.18359375 m 1xe8
 538 1015.23046875 l 1
 538 250 l 1
 642 250 l 1
 642 51 l 1
 51 51 l 1
 51 250 l 1
 153 250 l 1
 153 812 l 1
 44 812 l 1
 44 962.18359375 l 1xe8
76 1436 m 0xf0
 76 1562.40234375 161.389648438 1630 302 1630 c 0
 448.241210938 1630 538 1563.11425781 538 1436 c 0
 538 1308.67871094 445.198242188 1237 302 1237 c 0
 163.526367188 1237 76 1310.015625 76 1436 c 0xf0
EndSplineSet
EndChar

StartChar: j
Encoding: 106 106 77
Width: 590
GlyphClass: 2
Flags: HW
LayerCount: 2
Fore
SplineSet
32 -172.653320312 m 1
 83.8310027439 -168.623767625 169 -144.921865993 169 -60 c 2
 169 761 l 1
 39 761 l 1
 39 911.016601562 l 1
 554 964.436523438 l 1
 554 78 l 2
 554 -275.774414062 385.138671875 -386.662109375 32 -397.263671875 c 1
 32 -172.653320312 l 1
95 1436 m 0
 95 1562.40234375 180.389648438 1630 321 1630 c 0
 467.241210938 1630 557 1563.11425781 557 1436 c 0
 557 1308.67871094 464.198242188 1237 321 1237 c 0
 182.526367188 1237 95 1310.015625 95 1436 c 0
EndSplineSet
EndChar

StartChar: k
Encoding: 107 107 78
Width: 1229
GlyphClass: 2
Flags: HW
HStem: 51 199<1057.39 1189> 102 199<45 148> 812 209<680.077 836.497 1032.64 1171> 1324 176.302<44 148>
VStem: 45 455.159<102 301 1324 1500.3> 148 352.159<301 1324>
LayerCount: 2
Fore
SplineSet
44 1500.30175781 m 1x74
 500.159315932 1554.08300781 l 1x74
 500.159315932 102 l 1
 45 102 l 1
 45 301 l 1x78
 148 301 l 1
 148 1324 l 1
 44 1324 l 1
 44 1500.30175781 l 1x74
814.721285898 51 m 1xb0
 548.581665588 523.856445312 l 1
 836.497152059 812 l 1
 680.076507651 812 l 1
 680.076507651 1021 l 1
 1171 1021 l 1
 1171 812 l 1
 1032.63867188 812 l 1
 974.062366688 763.540207243 910.299213456 705.252516656 859.174327394 657.75390625 c 2
 828.017074461 628.806640625 l 1
 1057.39257812 250 l 1
 1189 250 l 1
 1189 51 l 1
 814.721285898 51 l 1xb0
EndSplineSet
EndChar

StartChar: l
Encoding: 108 108 79
Width: 707
GlyphClass: 2
Flags: HW
LayerCount: 2
Fore
SplineSet
561 301 m 1
 659 301 l 1
 659 102 l 1
 44 102 l 1
 44 301 l 1
 176 301 l 1
 176 1324 l 1
 44 1324 l 1
 44 1500.07519531 l 1
 561 1554.36425781 l 1
 561 301 l 1
EndSplineSet
EndChar

StartChar: m
Encoding: 109 109 80
Width: 1872
GlyphClass: 2
Flags: HW
LayerCount: 2
Fore
SplineSet
1390.3375623 673.82421875 m 1
 1383.05937017 744.524736149 1345.07034856 830 1250.24178749 830 c 0
 1128.11009929 830 1091.59028092 711.138671875 1091.59028092 615 c 2
 1091.59028092 250 l 1
 1170.45214092 250 l 1
 1170.45214092 51 l 1
 780.781773901 51 l 1
 780.781773901 674 l 2
 780.781773901 772.330078125 716.50808955 830 629.552560036 830 c 0
 493.947127349 830 482.034492524 663.977539062 482.034492524 582 c 2
 482.034492524 250 l 1
 556.257419574 250 l 1
 556.257419574 51 l 1
 44 51 l 1
 44 250 l 1
 158 250 l 1
 158 812 l 1
 44 812 l 1
 44 986.133789062 l 1
 482.034492524 1034.29101562 l 1
 482.034492524 742.170898438 l 1
 567.923611087 872.459960938 l 2
 628.404605342 964.208007812 724.754880102 1040 867.993713185 1040 c 0
 976.316421516 1040 1033.19590045 964.16796875 1073.67874473 869.627929688 c 2
 1109.01436674 787.107421875 l 1
 1155.95003923 862.612304688 l 2
 1231.91528425 984.817382812 1323.94827084 1040 1440.43803806 1040 c 0
 1627.55078125 1040 1727 933.154296875 1727 729 c 2
 1727 250 l 1
 1846 250 l 1
 1846 51 l 1
 1390.3375623 51 l 1
 1390.3375623 673.82421875 l 1
EndSplineSet
EndChar

StartChar: n
Encoding: 110 110 81
Width: 1276
GlyphClass: 2
Flags: W
HStem: 51 199<44 177 520.989 597.996 1130 1250> 812 173.681<44 177> 830 210<615.223 970.71>
VStem: 177 343.989<250 812> 780.011 349.989<250 793.285>
LayerCount: 2
Fore
SplineSet
520.989417989 742.967773438 m 1xd8
 603.11215915 888.338867188 l 2
 652.821289637 976.331054688 743.458051445 1040 878.894473839 1040 c 0
 1062.52539062 1040 1130 921.609375 1130 680 c 2
 1130 250 l 1
 1250 250 l 1
 1250 51 l 1
 780.0111699 51 l 1
 780.0111699 669 l 2
 780.0111699 741.827148438 740.24745468 830 656.625808348 830 c 0xb8
 573.819416026 830 520.989417989 750.53515625 520.989417989 666 c 2
 520.989417989 250 l 1
 597.995884774 250 l 1
 597.995884774 51 l 1
 44 51 l 1
 44 250 l 1
 177 250 l 1
 177 812 l 1
 44 812 l 1
 44 985.680664062 l 1
 520.989417989 1034.84667969 l 1
 520.989417989 742.967773438 l 1xd8
EndSplineSet
EndChar

StartChar: o
Encoding: 111 111 82
Width: 1066
GlyphClass: 2
Flags: W
HStem: 33 210<449.4 616.734> 830 210<448.291 617.532>
VStem: 34 348.341<313.337 762.077> 683.659 348.341<319.421 762.1>
LayerCount: 2
Fore
SplineSet
533 33 m 0
 239.55859375 33 34 210.552734375 34 547 c 0
 34 877.951171875 241.431640625 1040 533 1040 c 0
 824.815429688 1040 1032 876.994140625 1032 547 c 0
 1032 209.682617188 826.056640625 33 533 33 c 0
533 830 m 0
 401.766918952 830 382.341178017 641.54296875 382.341178017 546 c 0
 382.341178017 450.90625 399.856696707 243 533 243 c 0
 666.961853846 243 683.658821983 453.419921875 683.658821983 546 c 0
 683.658821983 643.16015625 663.298291439 830 533 830 c 0
EndSplineSet
EndChar

StartChar: p
Encoding: 112 112 83
Width: 1244
GlyphClass: 2
Flags: HW
LayerCount: 2
Fore
SplineSet
829.392643726 989 m 0
 1076.171875 989 1210 779.614257812 1210 490 c 0
 1210 196.251953125 1075.18554688 -18 827.655367814 -18 c 0
 712.876954297 -18 641.101957964 37.6358585151 589.242242134 102.530273438 c 2
 512.339789821 198.760742188 l 1
 512.339789821 -198 l 1
 608.758602926 -198 l 1
 608.758602926 -397 l 1
 44 -397 l 1
 44 -196 l 1
 161 -196 l 1
 161 761 l 1
 44 761 l 1
 44 932.891601562 l 1
 512.339789821 983.58984375 l 1
 512.339789821 709.208984375 l 1
 592.933105167 841.75390625 l 2
 642.64311772 923.5078125 712.745763534 989 829.392643726 989 c 0
671.300535751 830 m 0
 589.892466904 830 529.885021534 773.961617644 512.339789821 691.129882812 c 1
 512.339789821 390 l 2
 512.339789821 284.543945312 603.770720914 243 667.825983927 243 c 0
 818.415061902 243 857.189058314 402.962890625 857.189058314 535 c 0
 857.189058314 705.85546875 800.211837394 830 671.300535751 830 c 0
EndSplineSet
EndChar

StartChar: q
Encoding: 113 113 84
Width: 1236
GlyphClass: 2
Flags: HW
LayerCount: 2
Fore
SplineSet
416.371199259 -18 m 0
 168.311523438 -18 34 196.502929688 34 490 c 0
 34 780.078125 169.215820312 989 414.63358543 989 c 0
 531.315881267 989 601.413496971 923.517578125 651.139117727 841.75390625 c 2
 694.325778627 770.7421875 l 1
 778.575444465 970 l 1
 1177 970 l 1
 1177 761 l 1
 1083 761 l 1
 1083 -196 l 1
 1201 -196 l 1
 1201 -398 l 1
 635.31054175 -398 l 1
 635.31054175 -198 l 1
 731.748109276 -198 l 1
 731.748109276 198.760742188 l 1
 654.830698669 102.530273438 l 2
 603.360405905 38.1367603469 530.620394396 -18 416.371199259 -18 c 0
731.748109276 691.129882812 m 1
 714.205447789 773.933377398 654.203089249 830 572.756443896 830 c 0
 443.842127269 830 386.831764161 705.850585938 386.831764161 535 c 0
 386.831764161 402.948242188 425.597182062 243 576.231671554 243 c 0
 640.312969064 243 731.748109276 284.541015625 731.748109276 390 c 2
 731.748109276 691.129882812 l 1
EndSplineSet
EndChar

StartChar: r
Encoding: 114 114 85
Width: 795
GlyphClass: 2
Flags: HW
HStem: 51 199<45 161 452.193 562> 812 173.823<44 161>
VStem: 161 303.517<250 646.651 735.397 812>
LayerCount: 2
Fore
SplineSet
757 730.098632812 m 1
 735.18359375 733.338867188 714.41796875 735 691 735 c 0
 506.801781602 735 452.193273154 588.323242188 452.193273154 426 c 2
 452.193273154 250 l 1
 562 250 l 1
 562 51 l 1
 45 51 l 1
 45 250 l 1
 161 250 l 1
 161 812 l 1
 44 812 l 1
 44 985.823242188 l 1
 464.517497218 1035.67382812 l 1
 464.517497218 735.397460938 l 1
 537.543945312 890.44921875 l 1
 576.693359375 954.655273438 659.7578125 1018.46679688 757 1035.58691406 c 1
 757 730.098632812 l 1
EndSplineSet
EndChar

StartChar: s
Encoding: 115 115 86
Width: 977
GlyphClass: 2
Flags: HW
HStem: 33 114<351.431 628.96> 803 218<746.904 837> 941 99<354.254 609.231>
VStem: 69 145.647<248.989 345> 70 384.481<746.563 891.67> 509.381 378.619<189.234 369.668> 711.351 125.649<803 876.923>
LayerCount: 2
Fore
SplineSet
549.031573065 941 m 0
 515.354779524 941 454.481139983 922.860214258 454.481139983 843 c 0xaa
 454.481139983 759.716796875 518.324425577 731.40234375 537.786880446 719.369140625 c 0
 691.314780619 624.447166985 888 588.298628337 888 358 c 0
 888 149.434570312 724.900390625 33 533.018999721 33 c 0
 426.415947956 33 344.022382081 71.7099609375 266.002929688 131.950195312 c 1
 211.801757812 169.422851562 l 1
 168.379882812 51 l 1
 69 51 l 1
 69 345 l 1
 214.647460938 345 l 1
 242.85546875 250.642578125 316.745011045 147 414.830958368 147 c 0
 465.462977394 147 509.38139145 194.510742188 509.38139145 268 c 0
 509.38139145 349.94921875 452.088636349 384.790039062 429.571699715 400.821289062 c 0
 293.498453681 497.698082118 70 543.017700599 70 755 c 0
 70 937.712890625 263.176757812 1040 445.331098072 1040 c 0xac
 531.324961199 1040 598.915236612 1008.20996094 660.026367188 961.716796875 c 1
 713.689453125 928.274414062 l 1
 746.904296875 1021 l 1
 837 1021 l 1
 837 803 l 1
 711.350585938 803 l 1xca
 682.31640625 865.510742188 632.652292998 941 549.031573065 941 c 0
EndSplineSet
EndChar

StartChar: t
Encoding: 116 116 87
Width: 691
GlyphClass: 2
Flags: HW
HStem: 84 250<314.771 623.744> 881 191<26 148 431 604>
VStem: 148 283<378.274 881 1072 1310.82>
LayerCount: 2
Fore
SplineSet
431 881 m 1
 431 489 l 2
 431 404.4453125 485.317382812 334 580 334 c 0
 597.440429688 334 617.94921875 335.655273438 637 338.178710938 c 1
 637 133.642578125 l 1
 564.076171875 104.561523438 475.989257812 84 385.715911143 84 c 0
 243.826171875 84 148 188.663085938 148 433 c 2
 148 881 l 1
 26 881 l 1
 26 1072 l 1
 148 1072 l 1
 148 1310.82421875 l 1
 431 1393.83203125 l 1
 431 1072 l 1
 604 1072 l 1
 604 881 l 1
 431 881 l 1
EndSplineSet
EndChar

StartChar: u
Encoding: 117 117 88
Width: 1262
GlyphClass: 2
Flags: HW
HStem: 33 210<377.618 639.624> 51 199<1110 1230> 812 173.823<31 147 671.141 757.666>
VStem: 147 352.838<283.37 812> 757.666 352.334<250 812>
LayerCount: 2
Fore
SplineSet
499.838019469 394 m 2xb8
 499.838019469 317.958007812 545.734610587 243 623.071057963 243 c 0xb8
 703.755821011 243 757.666007807 316.965820312 757.666007807 402 c 2
 757.666007807 812 l 1
 671.140682908 812 l 1
 671.140682908 985.955078125 l 1
 1110 1035.51171875 l 1
 1110 250 l 1
 1230 250 l 1
 1230 51 l 1
 758.540000988 51 l 1x78
 758.540000988 329.032226562 l 1
 676.5186429 183.661132812 l 2
 626.672012289 95.31640625 537.462401692 33 401.076790038 33 c 0
 220.772460938 33 147 149.663085938 147 385 c 2
 147 812 l 1
 31 812 l 1
 31 985.823242188 l 1
 499.838019469 1035.67382812 l 1
 499.838019469 394 l 2xb8
EndSplineSet
EndChar

StartChar: v
Encoding: 118 118 89
Width: 1201
GlyphClass: 2
Flags: HW
LayerCount: 2
Fore
SplineSet
157.418945312 812 m 1
 27 812 l 1
 27 1021 l 1
 565.453609336 1021 l 1
 565.453609336 812 l 1
 466.275501189 812 l 1
 676.86229262 137.3046875 l 1
 857.185741496 812 l 1
 752.367692876 812 l 1
 752.367692876 1021 l 1
 1174 1021 l 1
 1174 812 l 1
 1046.90039062 812 l 1
 779.107128963 51 l 1
 438.610722756 51 l 1
 157.418945312 812 l 1
EndSplineSet
EndChar

StartChar: w
Encoding: 119 119 90
Width: 1793
GlyphClass: 2
Flags: HW
LayerCount: 2
Fore
SplineSet
1446.18627847 812 m 1
 1323.41187018 812 l 1
 1323.41187018 1021 l 1
 1756 1021 l 1
 1756 812 l 1
 1633.94433594 812 l 1
 1415.7398635 51 l 1
 1047.0693137 51 l 1
 895.347851668 594.24609375 l 1
 719.117878115 51 l 1
 376.972128833 51 l 1
 147.486328125 812 l 1
 28 812 l 1
 28 1021 l 1
 606.54760624 1021 l 1
 606.54760624 812 l 1
 506.363754034 812 l 1
 648.141798906 203.053710938 l 1
 881.493645777 1021 l 1
 1057.89412431 1021 l 1
 1298.22584947 193.987304688 l 1
 1446.18627847 812 l 1
EndSplineSet
EndChar

StartChar: x
Encoding: 120 120 91
Width: 1050
GlyphClass: 2
Flags: W
HStem: 51 199<44 167.529 899.267 1006> 812 209<64 167.894 873.296 975>
LayerCount: 2
Fore
SplineSet
1006 51 m 1
 637.54306223 51 l 1
 461.626158883 364.721679688 l 1
 264.444335938 51 l 1
 44 51 l 1
 44 250 l 1
 167.529296875 250 l 1
 371.281276475 509.559570312 l 1
 167.893554688 812 l 1
 64 812 l 1
 64 1021 l 1
 445.460869539 1021 l 1
 599.142675017 731.264648438 l 1
 777.766601562 1021 l 1
 975 1021 l 1
 975 812 l 1
 873.295898438 812 l 1
 684.526092888 584.157226562 l 1
 899.266601562 250 l 1
 1006 250 l 1
 1006 51 l 1
EndSplineSet
EndChar

StartChar: y
Encoding: 121 121 92
Width: 1271
GlyphClass: 2
Flags: HW
HStem: -377 213<353.74 511.604 707.318 870.048> 761 209<28 132.949 510.162 626.358 812.194 935.932 1155.27 1244>
LayerCount: 2
Fore
SplineSet
870.048204433 -377 m 1
 353.739618624 -377 l 1
 353.739618624 -164 l 1
 511.60368067 -164 l 1
 586.783688051 -18.98046875 l 1
 132.94921875 761 l 1
 28 761 l 1
 28 970 l 1
 626.357564611 970 l 1
 626.357564611 761 l 1
 510.162109186 761 l 1
 732.419217646 292.086914062 l 1
 935.931616615 761 l 1
 812.193592101 761 l 1
 812.193592101 970 l 1
 1244 970 l 1
 1244 761 l 1
 1155.27050781 761 l 1
 707.317554569 -164 l 1
 870.048204433 -164 l 1
 870.048204433 -377 l 1
EndSplineSet
EndChar

StartChar: z
Encoding: 122 122 93
Width: 1003
GlyphClass: 2
Flags: HW
HStem: 51 192<412.022 789.883> 830 191<238.95 534.36>
VStem: 824.883 91.1172<335.693 400>
LayerCount: 2
Fore
SplineSet
238.950195312 830 m 1
 174.950195312 687 l 1
 62 687 l 1
 62 1021 l 1
 880 1021 l 1
 880 815.146484375 l 1
 412.022429066 243 l 1
 789.8828125 243 l 1
 824.8828125 400 l 1
 916 400 l 1
 916 51 l 1
 35 51 l 1
 35 261.935546875 l 1
 534.359768025 830 l 1
 238.950195312 830 l 1
EndSplineSet
EndChar

StartChar: braceleft
Encoding: 123 123 94
Width: 654
GlyphClass: 2
Flags: HW
LayerCount: 2
Fore
SplineSet
134.622070312 1020.87109375 m 1
 134.622070312 1279.27636719 l 1
 11 908.409179688 l 1
 31.841796875 909.154296875 l 1
134.622070312 768.229492188 m 1
 134.622070312 915.938476562 l 1
 239.15234375 933.868164062 286.067218271 1009.22265625 286.067218271 1125 c 0
 286.067218271 1456.92675781 433.686398134 1632.82910156 740.622070312 1649.734375 c 1
 740.622070312 1416.50390625 l 1
 622.180664062 1388.99609375 578.622070312 1272.43164062 578.622070312 1125 c 0
 578.622070312 1025.56835938 518.479492188 947.208007812 401.078884335 888.823242188 c 1
 310.22921234 840.741210938 l 1
 401.196477583 793.115234375 l 1
 518.71484375 735.333007812 578.622070312 657.573242188 578.622070312 559 c 0
 578.622070312 410.75 623.393554688 294.721679688 740.622070312 267.49609375 c 1
 740.622070312 34.259765625 l 1
 432.23562562 51.2421875 286.767308306 227.509765625 286.767308306 559 c 0
 286.767308306 676.030273438 238.657226562 750.76171875 134.622070312 768.229492188 c 1
EndSplineSet
EndChar

StartChar: bar
Encoding: 124 124 95
Width: 365
GlyphClass: 2
Flags: HW
LayerCount: 2
Fore
SplineSet
329 1572 m 1
 329 51 l 1
 36 51 l 1
 36 1572 l 1
 329 1572 l 1
EndSplineSet
EndChar

StartChar: braceright
Encoding: 125 125 96
Width: 654
GlyphClass: 2
Flags: HW
LayerCount: 2
Fore
SplineSet
642 665.251953125 m 1
 642 505.9609375 l 1
 778.037109375 778.034179688 l 1
 744.092773438 776.821289062 l 1
642 918.770507812 m 1
 642 770.061523438 l 1
 537.469726562 752.131835938 493.70495448 676.77734375 493.70495448 561 c 0
 493.70495448 229.073242188 343.858633795 53.1708984375 36 36.265625 c 1
 36 269.49609375 l 1
 154.44140625 297.00390625 198 413.568359375 198 561 c 0
 198 659.57421875 257.90625 737.333007812 376.839426031 795.115234375 c 1
 469.178426727 842.741210938 l 1
 376.95809942 890.823242188 l 1
 258.142578125 949.208007812 198 1027.56933594 198 1127 c 0
 198 1275.25 153.228515625 1391.27832031 36 1418.50390625 c 1
 36 1651.73828125 l 1
 345.016913833 1634.74414062 492.994302138 1458.6015625 492.994302138 1128 c 0
 492.994302138 1010.96972656 537.96484375 936.23828125 642 918.770507812 c 1
EndSplineSet
EndChar

StartChar: asciitilde
Encoding: 126 126 97
Width: 1066
GlyphClass: 2
Flags: HW
LayerCount: 2
Fore
SplineSet
728.969801473 682 m 2
 541.716782968 682 494.450816388 884 293.43499247 884 c 0
 259.006835938 884 226.991210938 862.416992188 198.801757812 836.512695312 c 0
 173.481445312 813.192382812 132.736328125 767.672851562 76.5283203125 701.458007812 c 1
 24 735.94140625 l 1
 110.50390625 897.955078125 151.978515625 1070 302.543134864 1070 c 0
 481.391492248 1070 547.502732218 871 740.561982701 871 c 0
 775.462890625 871 805.972439077 893.08670294 835.423828125 918.17578125 c 0
 863.081814077 941.737093565 901.954101562 984.409179688 956.219726562 1048.42285156 c 1
 1006.58789062 1015.234375 l 1
 923.978515625 861.303710938 881.223632812 695.12109375 747.301716974 680.985351562 c 1
 746.461574933 682 l 1
 728.969801473 682 l 2
EndSplineSet
EndChar

StartChar: exclamdown
Encoding: 161 161 98
Width: 587
GlyphClass: 2
Flags: HW
LayerCount: 2
Fore
SplineSet
129.865234375 1022.78125 m 1
 459.217773438 1021.21679688 l 1
 538 296.237304688 l 1
 538 51 l 1
 53 51 l 1
 53 296.309570312 l 1
 129.865234375 1022.78125 l 1
293 1602 m 0
 436.118164062 1602 529 1529.70507812 529 1408 c 0
 529 1285.34765625 433.258789062 1209 294 1209 c 2
 281.9609375 1209 l 1
 280.37890625 1208.20898438 l 1
 152.07421875 1213.12695312 66 1288.61816406 66 1408 c 0
 66 1528.92480469 155.543945312 1602 293 1602 c 0
EndSplineSet
EndChar

StartChar: cent
Encoding: 162 162 99
Width: 897
GlyphClass: 2
Flags: HW
LayerCount: 2
Fore
SplineSet
480.246504195 33 m 2
 229.465820312 33 45 223.41015625 45 545 c 0
 45 836.209960938 227.47265625 1041 456.396723931 1041 c 0
 465.599501692 1041 475.131964335 1040.15903388 485.018934895 1038.42871094 c 2
 527.946064722 1030.91601562 l 1
 527.946064722 1311 l 1
 535.769590359 1311 l 1
 537.873768665 1023.12695312 l 1
 559.808608381 1009.63769531 l 2
 580.360556785 996.999023438 607.054997752 978.551884822 638.525390625 953.870117188 c 2
 686.413085938 916.3125 l 1
 741.623046875 1020 l 1
 835 1020 l 1
 835 678 l 1
 689.721679688 678 l 1
 676.59765625 738.395507812 638.764423488 781.26834953 591.25 811.890625 c 2
 536.144426688 847.405273438 l 1
 536.144426688 231.859375 l 1
 587.295392794 257.14453125 l 1
 638.075195312 276.09765625 672.522460938 324.447265625 688.694335938 374 c 1
 835 374 l 1
 835 146.178710938 l 1
 776.065429688 95.353515625 686.606445312 59.0439453125 568.156904878 41.5107421875 c 1
 535.399121055 35.3779296875 l 1
 535.399121055 -210 l 1
 527.946064722 -210 l 1
 527.946064722 33 l 1
 480.246504195 33 l 2
471.652198612 800.930664062 m 2
 409.039974882 747.055664062 385.592688773 642.588867188 385.592688773 512 c 0
 385.592688773 413.79296875 408.142551204 304.462890625 476.057071358 261.809570312 c 2
 530.181981622 227.817382812 l 1
 530.181981622 851.29296875 l 1
 471.652198612 800.930664062 l 2
EndSplineSet
EndChar

StartChar: sterling
Encoding: 163 163 100
Width: 1031
GlyphClass: 2
Flags: HW
LayerCount: 2
Fore
SplineSet
597.611896391 313.025390625 m 1
 668.127282001 285.182333657 758.305723322 279 865 279 c 0
 902.318359375 279 945.748046875 280.717773438 989 283.725585938 c 1
 989 65.265625 l 1
 913.763671875 42.9541015625 840.319335938 32 768 32 c 0
 632.050987886 32 597.611896391 77.419921875 597.611896391 152 c 2
 597.611896391 313.025390625 l 1
560.028341824 327.864257812 m 1
 587.999781032 316.8203125 l 1
 520.193954898 178.202148438 l 2
 472.488436735 80.6982421875 396.293652281 31 274 31 c 0
 214.610351562 31 134.48046875 43.1142578125 42 67.052734375 c 1
 42 277.956054688 l 1
 58.107421875 275.985351562 72.59765625 275 87 275 c 0
 236.17578125 275 248 410.0390625 248 520 c 2
 248 811 l 1
 124 811 l 1
 124 942 l 1
 248 942 l 1
 248 1207 l 2
 248 1456.796875 458.407369925 1557 698.924086963 1557 c 0
 792.428710938 1557 881.690429688 1545.66699219 955 1524.72070312 c 1
 955 1307.55078125 l 1
 902.2734375 1312.34375 852.713867188 1315 799 1315 c 0
 683.414008897 1315 560.028341824 1283.5625 560.028341824 1117 c 2
 560.028341824 942 l 1
 772 942 l 1
 772 811 l 1
 560.028341824 811 l 1
 560.028341824 327.864257812 l 1
EndSplineSet
EndChar

StartChar: currency
Encoding: 164 164 101
Width: 1030
GlyphClass: 2
Flags: HW
LayerCount: 2
Fore
SplineSet
40 1097 m 2
 40 1098 l 2
 40 1229.34863281 75.0810546875 1334.25585938 143.6328125 1418.90332031 c 2
 172.3203125 1454.32519531 l 1
 108.858398438 1518.73339844 l 1
 139.747070312 1549.62207031 l 1
 204.66015625 1483.79492188 l 1
 239.858398438 1507.95019531 l 1
 324.407932883 1571.953125 411.152438997 1604 512 1604 c 0
 615.397698068 1604 703.460306278 1570.45410156 789.356445312 1503.5 c 1
 824.512695312 1478.38769531 l 1
 896 1549.875 l 1
 926.875 1519 l 1
 857.2734375 1449.3984375 l 1
 884.576171875 1413.90429688 l 2
 950.452148438 1328.265625 984 1224.47851562 984 1097 c 0
 984 963.669921875 948.280273438 857.952148438 878.639648438 773.430664062 c 2
 849.188476562 737.686523438 l 1
 926.875 660 l 1
 896 629.125 l 1
 816.176757812 708.948242188 l 1
 781.260742188 685.131835938 l 1
 698.386330436 622.47265625 612.421209962 591 512 591 c 0
 414.1153795 591 329.777565241 620.971679688 249.025390625 680.609375 c 1
 214.314453125 703.439453125 l 1
 140 629.125 l 1
 109.125 660 l 1
 180.040039062 730.915039062 l 1
 150.135742188 766.702148438 l 2
 77.1416015625 854.0546875 40 961.986328125 40 1097 c 2
130 1046.55566406 m 0
 130 787.807617188 300.113892746 599.555664062 511.183956139 599.555664062 c 0
 722.359212686 599.555664062 892 789.872070312 892 1048.55566406 c 0
 892 1117.17675781 879.862304688 1181.34570312 854.875976562 1239.64550781 c 2
 830.724609375 1296 l 1
 824.977539062 1292.16894531 l 1
 754.57421875 1411.13085938 646.572326775 1493.55566406 510.367912278 1493.55566406 c 0
 299.001395452 1493.55566406 130 1304.50878906 130 1046.55566406 c 0
EndSplineSet
EndChar

StartChar: yen
Encoding: 165 165 102
Width: 1458
GlyphClass: 2
Flags: HW
LayerCount: 2
Fore
SplineSet
905.016063754 964.82421875 m 2
 973.722413784 1080.45507812 1014.82733287 1157.35546875 1014.82733287 1221 c 0
 1014.82733287 1301.43457031 951.482455964 1322.25878906 909.937167675 1323.10839844 c 1
 909.937167675 1571 l 1
 1415 1571 l 1
 1415 1323 l 1
 1392 1323 l 2
 1225.29785156 1323 1179.76212116 1192.80216905 1138.50016371 1120.34570312 c 2
 1003.33833683 883 l 1
 1337 883 l 1
 1337 811 l 1
 948.486544628 811 l 1
 948.486544628 577 l 1
 1337 577 l 1
 1337 505 l 1
 948.486544628 505 l 1
 948.486544628 318 l 1
 1089.23659536 318 l 1
 1089.23659536 49 l 1
 401.623290173 49 l 1
 401.623290173 318 l 1
 540.580346633 318 l 1
 540.580346633 505 l 1
 148 505 l 1
 148 577 l 1
 540.580346633 577 l 1
 540.580346633 686.076171875 l 1
 462.18499872 811 l 1
 148.876953125 811 l 1
 150.137695312 885 l 1
 419.383388758 885 l 1
 127.591796875 1325 l 1
 40 1325 l 1
 40 1571 l 1
 737.809717092 1571 l 1
 737.809717092 1325 l 1
 611.723172773 1325 l 1
 665.079635764 1243.84082031 l 2
 713.154294814 1170.71582031 779.085355851 1045.46386719 829.228787106 964.107421875 c 2
 867.598689535 901.852539062 l 1
 905.016063754 964.82421875 l 2
EndSplineSet
EndChar

StartChar: brokenbar
Encoding: 166 166 103
Width: 442
GlyphClass: 2
Flags: HW
LayerCount: 2
Fore
SplineSet
367 670 m 1
 367 51 l 1
 74 51 l 1
 74 670 l 1
 367 670 l 1
367 1572 m 1
 367 953 l 1
 74 953 l 1
 74 1572 l 1
 367 1572 l 1
EndSplineSet
EndChar

StartChar: section
Encoding: 167 167 104
Width: 812
GlyphClass: 2
Flags: HW
LayerCount: 2
Fore
SplineSet
573.482421875 509.435546875 m 1
 669.798828125 450.80859375 710 382.052734375 710 295 c 0
 710 156.568359375 564.552734375 33 438.02537594 33 c 0
 349.613396896 33 302.835001432 55.3756006965 255.404296875 103.717773438 c 2
 206.873046875 153.181640625 l 1
 152.506835938 52 l 1
 64 52 l 1
 64 328 l 1
 194.642578125 328 l 1
 224.774414062 240.694335938 294.681497215 158 373.586466165 158 c 0
 418.622839906 158 470.945253759 201.505859375 470.945253759 286 c 0
 470.945253759 381.06640625 413.685136462 437.502093319 382.266512075 467.3671875 c 0
 307.348076007 538.581194882 203.064352861 597.607931486 117.260742188 671.663085938 c 0
 71.3250950485 711.309103361 31 768.973632812 31 837 c 2
 31 891.358398438 l 1
 54.3828125 963.858398438 120.717578439 1018.9332138 191.38671875 1045.0546875 c 2
 280.786583693 1078.09960938 l 1
 203.666992188 1134.48339844 l 1
 100.629882812 1208.16992188 60 1279.91699219 60 1351 c 0
 60 1481.84179688 197.381835938 1583 335.76362782 1583 c 0
 401.502150457 1583 473.623850618 1558.65269617 494.715857025 1532.9375 c 2
 534.764648438 1484.11035156 l 1
 579.706054688 1569 l 1
 666 1569 l 1
 666 1348 l 1
 548.896484375 1348 l 1
 518.65625 1414.80957031 l 1
 496.440772516 1455.3568622 471.103275911 1514 414.210996241 1514 c 0
 358.50206487 1514 321.054746241 1446.4140625 321.054746241 1373 c 0
 321.054746241 1241.13432328 438.551079113 1187.64387379 484.07613172 1158.13574219 c 0
 601.478430574 1082.03868603 761 1002.37597656 761 852 c 0
 761 723.647460938 684.625976562 631.6328125 585.345703125 601.849609375 c 1
 487.545414057 568.956054688 l 1
 573.482421875 509.435546875 l 1
356.232530407 1041.90722656 m 1
 301.931800755 1003.90577591 237 956.13438455 237 875 c 0
 237 724.602522913 403.321810487 660.417630211 459.332186821 627.669921875 c 1
 475.028090169 642.26171875 l 1
 523.581054688 685.077148438 567 744.501953125 567 817 c 0
 567 972.588883417 399.799033252 1010.80977595 356.232530407 1041.90722656 c 1
EndSplineSet
EndChar

StartChar: dieresis
Encoding: 168 168 105
Width: 980
GlyphClass: 2
Flags: HW
HStem: 1273 358<105.062 335.66 631.372 862.888>
VStem: 52 327.544<1324.85 1580.7> 587.456 327.544<1323.85 1579.7>
LayerCount: 2
Fore
SplineSet
228 1273 m 0
 117.935546875 1273 52 1342.35253906 52 1455 c 0
 52 1563.25976562 119.5859375 1631 227 1631 c 0
 328.395737165 1631 379.54397229 1564.03808594 379.54397229 1453 c 0
 379.54397229 1343.33691406 326.222069339 1273 228 1273 c 0
741 1272 m 0
 639.187329883 1272 587.45602771 1341.35253906 587.45602771 1454 c 0
 587.45602771 1562.25976562 640.482183118 1630 740 1630 c 0
 849.807617188 1630 915 1563.03808594 915 1452 c 0
 915 1342.33691406 847.037109375 1272 741 1272 c 0
EndSplineSet
EndChar

StartChar: copyright
Encoding: 169 169 106
Width: 1566
GlyphClass: 2
Flags: HW
LayerCount: 2
Fore
SplineSet
273.326171875 256.784179688 m 0
 151.576239188 378.741157499 44 563.739257812 44 792 c 0
 44 1146.50683594 265.52734375 1379.83496094 503.376419866 1487.87890625 c 0
 592.74327559 1528.7109375 685.224914834 1549 782 1549 c 0
 996.835999196 1549 1171.31295111 1445.7956669 1290.67382812 1326.21582031 c 0
 1412.41556611 1204.25074502 1520 1019.26074219 1520 791 c 0
 1520 562.971679688 1412.24660658 377.587135922 1290.67382812 255.784179688 c 0
 1171.17666512 136.060768735 997.027133639 33 782 33 c 0
 569.688568243 33 392.074479995 137.833930937 273.326171875 256.784179688 c 0
781.093881157 79 m 0
 1145.52532289 79 1447 386.534179688 1447 788 c 0
 1447 1190.09472656 1143.93253586 1497 781.093881157 1497 c 2
 780.187762315 1497 l 2
 584.582896717 1497 426.677136674 1400.07075132 321.005844706 1289.36621094 c 0
 212.695506274 1175.89692319 114 999.856445312 114 788 c 0
 114 575.647460938 212.788203501 400.975990891 321.908424022 286.637695312 c 0
 427.915008426 175.561928391 585.798724148 79 781.093881157 79 c 0
1071.05191076 414.205078125 m 1
 1019.70751517 344.945319503 871.750975007 296 753.910315882 296 c 0
 493.182582888 296 358.842500552 474.380859375 358.842500552 774 c 0
 358.842500552 1056.70605469 472.048068792 1264 704.979898387 1264 c 0
 798.819831014 1264 853.874583006 1242.12603949 879.152044763 1214.65917969 c 2
 924.89600332 1164.953125 l 1
 960.355866968 1245 l 1
 1063.80296002 1245 l 1
 1063.80296002 946 l 1
 982.384111563 946 l 1
 970.268311572 1043.11523438 912.638622259 1136 805.559089905 1136 c 0
 647.735132607 1136 622.52308372 959.194335938 622.52308372 840 c 2
 622.52308372 731 l 2
 622.52308372 603.498046875 651.605605085 434 812.808040645 434 c 0
 914.407500742 434 972.759253507 510.961914062 986.436869667 605 c 1
 1071.05191076 605 l 1
 1071.05191076 414.205078125 l 1
EndSplineSet
EndChar

StartChar: ordfeminine
Encoding: 170 170 107
Width: 787
GlyphClass: 2
Flags: HW
LayerCount: 2
Fore
SplineSet
447.449775475 1027.12402344 m 1
 451.833310112 1033.21951241 455.879600665 1039.61238269 460.057948316 1045.875 c 1
 460.057948316 1210.52832031 l 1
 438.668816073 1223.35253906 l 2
 423.015943128 1232.73632812 401.665903974 1242 377.326546594 1242 c 0
 345.719132366 1242 320.489755653 1213.93457031 306.574570527 1181.04199219 c 1
 291.259201253 1192.51953125 l 1
 291.259201253 1110 l 2
 291.259201253 1043.37304688 322.557780075 983 371.989036805 983 c 0
 382.389101654 983 392.144130531 985.150390625 401.142056578 988.818359375 c 1
 378.630952672 948.787109375 327.441158477 909 274 909 c 0
 139.640625 909 38 984.434570312 38 1097 c 2
 38 1114.86328125 l 1
 50.2522512471 1229.88180306 171.646230946 1282 299.932654659 1282 c 0
 345.534091743 1282 383.765829948 1273.13867188 414.790757146 1256.86328125 c 2
 460.057948316 1233.11621094 l 1
 460.057948316 1338 l 2
 460.057948316 1453.00292969 400.872314262 1511 321.949882537 1511 c 0
 268.7109375 1511 203.989257812 1487.90722656 159.360351562 1441 c 1
 104 1441 l 1
 104 1582.56445312 l 1
 175.300337735 1601.10322063 298.564696407 1624 368.653093187 1624 c 2
 387.667971809 1624 l 2
 533.268554688 1624 678 1571.67089844 678 1425 c 2
 678 1046 l 1
 734 1046 l 1
 734 923 l 1
 476.658828676 923 l 1
 447.449775475 1027.12402344 l 1
402.68883981 940.65625 m 2
 402.18975137 939.709960938 401.673722592 938.764648438 401.142056578 937.818359375 c 1
 420.42863217 945.682617188 436.233968163 960.524414062 447.449775475 976.124023438 c 1
 438.421226507 1008.30664062 l 1
 402.68883981 940.65625 l 2
EndSplineSet
EndChar

StartChar: guillemotleft
Encoding: 171 171 108
Width: 1110
GlyphClass: 2
Flags: HW
LayerCount: 2
Fore
SplineSet
598.60015922 647.079101562 m 1
 928.079101562 998.995117188 l 1
 1053.62890625 851.75390625 l 1
 747.813338663 534 l 1
 1053.62890625 216.24609375 l 1
 928.079101562 69.0048828125 l 1
 598.60015922 420.920898438 l 1
 598.60015922 647.079101562 l 1
49 647.079101562 m 1
 399.298150044 998.995117188 l 1
 504.02874703 851.75390625 l 1
 227.875 534 l 1
 504.02874703 216.24609375 l 1
 399.298150044 69.0048828125 l 1
 49 420.920898438 l 1
 49 647.079101562 l 1
EndSplineSet
EndChar

StartChar: logicalnot
Encoding: 172 172 109
Width: 933
GlyphClass: 2
Flags: HW
LayerCount: 2
Fore
SplineSet
56 1041 m 1
 862.845703125 1041 l 1
 862.845703125 593 l 1
 733.845703125 593 l 1
 733.845703125 812 l 1
 56.69140625 812 l 1
 56 1041 l 1
EndSplineSet
EndChar

StartChar: uni00AD
Encoding: 173 173 110
Width: 676
GlyphClass: 2
Flags: HW
LayerCount: 2
Fore
SplineSet
611 785 m 1
 611 588 l 1
 66 588 l 1
 66 785 l 1
 611 785 l 1
EndSplineSet
EndChar

StartChar: registered
Encoding: 174 174 111
Width: 1566
GlyphClass: 2
Flags: HW
LayerCount: 2
Fore
SplineSet
1081.92533687 618 m 2
 1081.92533687 561.324885845 1115.38903716 518.092181508 1165.28827038 510.46875 c 1
 1165.28827038 411 l 1
 1046.58670201 411 l 2
 956.429646945 411 927.885133643 430.491210938 927.885133643 502 c 2
 927.885133643 611 l 2
 927.885133643 704.294921875 898.122138264 798 786.530594213 798 c 2
 691.38811575 798 l 1
 691.38811575 515 l 1
 752.098078197 515 l 1
 752.098078197 411 l 1
 630.678153302 411 l 2
 574.807608774 411 509.174164648 410.763671875 437.67483985 410.314453125 c 1
 437.67483985 511 l 1
 514.694941462 511 l 1
 514.694941462 1109 l 1
 436.768721007 1109 l 1
 436.768721007 1211 l 1
 901.60768721 1211 l 2
 1055.50807913 1211 1123.60680362 1159.72558594 1123.60680362 1011 c 0
 1123.60680362 922.299804688 1070.14579192 875.875976562 980.920517261 859.291992188 c 2
 843.551484927 833.758789062 l 1
 899.860045888 853.595703125 938.758559753 898.76171875 938.758559753 970 c 0
 938.758559753 1061.84765625 872.919823075 1119 796.49790148 1119 c 2
 688.669759222 1119 l 1
 688.669759222 821 l 1
 774.907673318 821 l 1
 752.922787925 816.9140625 l 1
 978.164110821 759.31640625 l 2
 1053.28702611 740.106445312 1081.92533687 717.830078125 1081.92533687 670 c 2
 1081.92533687 618 l 2
781.093881157 79 m 0
 1145.52532289 79 1447 386.534179688 1447 788 c 0
 1447 1190.09472656 1143.93253586 1497 781.093881157 1497 c 2
 780.187762315 1497 l 2
 584.582896717 1497 426.677136674 1400.07075132 321.005844706 1289.36621094 c 0
 212.695506274 1175.89692319 114 999.856445312 114 788 c 0
 114 575.647460938 212.788203501 400.975990891 321.908424022 286.637695312 c 0
 427.915008426 175.561928391 585.798724148 79 781.093881157 79 c 0
273.326171875 256.784179688 m 0
 151.576239188 378.741157499 44 563.739257812 44 792 c 0
 44 1146.50683594 265.52734375 1379.83496094 503.376419866 1487.87890625 c 0
 592.74327559 1528.7109375 685.224914834 1549 782 1549 c 0
 996.835999196 1549 1171.31295111 1445.7956669 1290.67382812 1326.21582031 c 0
 1412.41556611 1204.25074502 1520 1019.26074219 1520 791 c 0
 1520 562.971679688 1412.24660658 377.587135922 1290.67382812 255.784179688 c 0
 1171.17666512 136.060768735 997.027133639 33 782 33 c 0
 569.688568243 33 392.074479995 137.833930937 273.326171875 256.784179688 c 0
843.551484927 833.758789062 m 1
 774.907673318 821 l 1
 784.831621383 821 l 1
 786.241237902 822.555664062 l 1
 806.610329343 823.825195312 825.932605754 827.551757812 843.551484927 833.758789062 c 1
EndSplineSet
EndChar

StartChar: degree
Encoding: 176 176 112
Width: 706
GlyphClass: 2
Flags: HW
LayerCount: 2
Fore
SplineSet
603 1297 m 0
 603 1442.73925781 489.596679688 1547 344 1547 c 0
 198.33203125 1547 93 1437.76855469 93 1297 c 0
 93 1156.24902344 197.611328125 1041 345 1041 c 2
 468.125 1041 l 1
 446.778320312 1062.34667969 l 1
 542.125976562 1100.60449219 603 1190.25585938 603 1297 c 0
344 1583 m 0
 534.857421875 1583 658 1474.71777344 658 1300 c 0
 658 1119.45605469 531.318359375 1004 343 1004 c 2
 288.491210938 1004 l 1
 137.310546875 1026.13085938 42 1134.85839844 42 1296 c 0
 42 1472.08300781 160.883789062 1583 344 1583 c 0
EndSplineSet
EndChar

StartChar: plusminus
Encoding: 177 177 113
Width: 712
GlyphClass: 2
Flags: HW
LayerCount: 2
Fore
SplineSet
628 172 m 1
 628 50 l 1
 83 50 l 1
 83 172 l 1
 628 172 l 1
53 711 m 1
 285 711 l 1
 285 980 l 1
 438 980 l 1
 438 711 l 1
 663 711 l 1
 663 568 l 1
 438 568 l 1
 438 329 l 1
 285 329 l 1
 285 568 l 1
 53 568 l 1
 53 711 l 1
EndSplineSet
EndChar

StartChar: twosuperior
Encoding: 178 178 114
Width: 703
GlyphClass: 2
Flags: HW
LayerCount: 2
Fore
SplineSet
223.489257812 430 m 1
 473.424804688 430 l 1
 533.653320312 431.00390625 617.098632812 439.666015625 646.616210938 519 c 1
 657 519 l 1
 657 337 l 1
 69.873046875 337 l 1
 67.7587890625 431.600585938 l 1
 213.285088489 496.710066699 397 598.473483768 397 800 c 0
 397 865.688476562 354.552734375 955 264 955 c 0
 183.896484375 955 132 892.16796875 132 819 c 0
 132 795.25 138.354492188 771.959960938 149.284179688 751.291015625 c 1
 89.8486328125 705.73828125 l 1
 60.5263671875 744.935546875 46 792.881835938 46 856 c 0
 46 1137.96116297 605 1134.83890569 605 845 c 0
 605 774.26646156 564.252004369 710.761479993 516.087890625 663.59765625 c 0
 479.041015625 627.3203125 421.940446938 579.436500529 345.321289062 521.741210938 c 2
 223.489257812 430 l 1
EndSplineSet
EndChar

StartChar: threesuperior
Encoding: 179 179 115
Width: 565
GlyphClass: 2
Flags: HW
LayerCount: 2
Fore
SplineSet
174.010742188 551.8984375 m 1
 174.010742188 745.0390625 l 1
 58 513.017578125 l 1
 71.740234375 501.973632812 l 1
306.043411583 939 m 2
 246.703821362 939 205.11206548 899.395834838 190.729492188 856.340820312 c 1
 167.010742188 856.55078125 l 1
 167.010742188 1020 l 1
 589.010742188 1020 l 1
 589.010742188 940.572265625 l 1
 564.084960938 919.825195312 506.81087386 888.141096052 440.665039062 818.4296875 c 2
 365.863226631 739.595703125 l 1
 468.340820312 728.213867188 l 1
 551.95703125 720.525390625 628.010742188 643.55078125 628.010742188 558 c 0
 628.010742188 397.538085938 500.5546875 321 346.051825276 321 c 0
 302.586914062 321 227.625 329.681640625 174.010742188 355.623046875 c 1
 174.010742188 431.951171875 l 1
 227.068359375 404.545898438 282.663085938 390 319.089633439 390 c 0
 347.523772052 390 419.010742188 416.58984375 419.010742188 528 c 0
 419.010742188 647.635742188 345.382102234 677 312.566522511 677 c 0
 306.684680952 677 298.215820312 674.659179688 288.010742188 672.751953125 c 1
 288.010742188 688.416015625 l 1
 386.010742188 858.416015625 l 1
 386.010742188 939 l 1
 306.043411583 939 l 2
EndSplineSet
EndChar

StartChar: acute
Encoding: 180 180 116
Width: 652
GlyphClass: 2
Flags: HW
HStem: 1276.62 434.187
VStem: 48 516.017
LayerCount: 2
Fore
SplineSet
564.016601562 1539.87695312 m 1
 98.05859375 1276.61914062 l 1
 48 1344.48730469 l 1
 445.333984375 1710.80566406 l 1
 564.016601562 1539.87695312 l 1
EndSplineSet
EndChar

StartChar: paragraph
Encoding: 182 182 117
Width: 1257
GlyphClass: 2
Flags: HW
LayerCount: 2
Fore
SplineSet
526.326171875 789.995117188 m 0
 263.400390625 800.8984375 84.3359375 892.686523438 88.994140625 1165.21484375 c 0
 94.2513912655 1549.0404719 391.172798682 1567.76330585 774.393554688 1572.00195312 c 0
 923.1640625 1573.64941406 1083.54785156 1572.29492188 1254 1572.04003906 c 1
 1254 1319 l 1
 1103 1319 l 1
 1103 312 l 1
 1259 312 l 1
 1259 51 l 1
 960.002929688 51 l 1
 960.002929688 1321 l 1
 762.665039062 1321 l 1
 762.665039062 51 l 1
 488.827148438 51 l 1
 488.827148438 312 l 1
 615.749023438 312 l 1
 615.749023438 687 l 1
EndSplineSet
EndChar

StartChar: periodcentered
Encoding: 183 183 118
Width: 568
GlyphClass: 2
Flags: HW
HStem: 565 393<123.9 264.379 265.961 435.641>
VStem: 50 463<639.458 885.995>
LayerCount: 2
Fore
SplineSet
277 958 m 0
 420.118164062 958 513 885.705078125 513 764 c 0
 513 641.34765625 417.258789062 565 278 565 c 2
 265.9609375 565 l 1
 264.37890625 564.208984375 l 1
 136.07421875 569.126953125 50 644.618164062 50 764 c 0
 50 884.924804688 139.543945312 958 277 958 c 0
EndSplineSet
EndChar

StartChar: cedilla
Encoding: 184 184 119
Width: 410
GlyphClass: 2
Flags: HW
HStem: -435.264 13.2041<60 102.12>
VStem: 137 77<-120.711 -51> 247 100<-361.042 -211.461>
LayerCount: 2
Fore
SplineSet
60 -435.263671875 m 1
 60 -422.059570312 l 1
 137.618164062 -414.016601562 247 -383.092773438 247 -272 c 0
 247 -185.041992188 184.853515625 -123.750976562 137 -90.623046875 c 1
 137 -51 l 1
 214 -51 l 1
 214 -151.596679688 l 1
 239.697265625 -166.280273438 l 2
 323.31640625 -214.0625 347 -256.19140625 347 -287 c 0
 347 -367.639648438 212.409179688 -427.891601562 60 -435.263671875 c 1
EndSplineSet
EndChar

StartChar: onesuperior
Encoding: 185 185 120
Width: 433
GlyphClass: 2
Flags: HW
LayerCount: 2
Fore
SplineSet
85.732421875 337 m 1
 85.26953125 425 l 1
 138 425 l 1
 138 894.534179688 l 1
 42 893.534179688 l 1
 42 953.3046875 l 1
 327.424804688 1025.58300781 l 1
 331.331054688 425 l 1
 387 425 l 1
 387 337 l 1
 85.732421875 337 l 1
EndSplineSet
EndChar

StartChar: ordmasculine
Encoding: 186 186 121
Width: 789
GlyphClass: 2
Flags: HW
LayerCount: 2
Fore
SplineSet
395.829704822 1040 m 0
 593.744140625 1040 740 921.234375 740 688 c 0
 740 455.775390625 585.5078125 322 395.170295178 322 c 0
 214.375 322 64.9033203125 445.17578125 51 656.508789062 c 1
 51 688 l 2
 51 920.4765625 199.1015625 1040 395.829704822 1040 c 0
494.081741686 685 m 0
 494.081741686 765.8359375 489.493564235 910 395.170295178 910 c 0
 314.579360736 910 297.748315961 798.408203125 294.76171875 723.012695312 c 1
 291 721.758789062 l 1
 291 685 l 2
 291 561.018554688 317.651668752 449 393.192066248 449 c 0
 468.883793106 449 494.081741686 560.7109375 494.081741686 685 c 0
EndSplineSet
EndChar

StartChar: guillemotright
Encoding: 187 187 122
Width: 1107
GlyphClass: 2
Flags: HW
LayerCount: 2
Fore
SplineSet
493.02874703 420.920898438 m 1
 163.548828125 69.0048828125 l 1
 38 216.24609375 l 1
 343.815567587 534 l 1
 38 851.75390625 l 1
 163.548828125 998.995117188 l 1
 493.02874703 647.079101562 l 1
 493.02874703 420.920898438 l 1
1042.62890625 420.920898438 m 1
 692.329941581 69.0048828125 l 1
 587.60015922 216.24609375 l 1
 863.75390625 534 l 1
 587.60015922 851.75390625 l 1
 692.329941581 998.995117188 l 1
 1042.62890625 647.079101562 l 1
 1042.62890625 420.920898438 l 1
EndSplineSet
EndChar

StartChar: onequarter
Encoding: 188 188 123
Width: 1470
GlyphClass: 2
Flags: HW
LayerCount: 2
Fore
SplineSet
78.732421875 869 m 1
 78.26953125 957 l 1
 131 957 l 1
 131 1426.53417969 l 1
 35 1425.53417969 l 1
 35 1485.3046875 l 1
 316.416988705 1557.58300781 l 1
 319.928542921 957 l 1
 369.972579942 957 l 1
 369.972579942 869 l 1
 78.732421875 869 l 1
328.361540371 51 m 1
 742.009458691 1572 l 1
 973.03109901 1572 l 1
 550.115311225 51 l 1
 328.361540371 51 l 1
1300 119 m 1
 1372 119 l 1
 1372 52 l 1
 1072.95764156 52 l 1
 1072.95764156 119 l 1
 1139.48052463 119 l 1
 1139.48052463 298 l 1
 858.106708404 298 l 1
 858.106708404 386.358398438 l 1
 1124.75569991 737.908203125 l 1
 1301 737.197265625 l 1
 1301 345.615234375 l 1
 1434 346.615234375 l 1
 1434 298 l 1
 1300 298 l 1
 1300 119 l 1
1139.48052463 346.538085938 m 1
 1139.48052463 679.959960938 l 1
 898.392136259 348.954101562 l 1
 1139.48052463 346.538085938 l 1
EndSplineSet
EndChar

StartChar: onehalf
Encoding: 189 189 124
Width: 1537
GlyphClass: 2
Flags: HW
LayerCount: 2
Fore
SplineSet
77.732421875 869 m 1
 77.26953125 957 l 1
 130 957 l 1
 130 1426.53417969 l 1
 34 1425.53417969 l 1
 34 1485.3046875 l 1
 315.655931417 1557.58300781 l 1
 319.191017073 957 l 1
 369.570406528 957 l 1
 369.570406528 869 l 1
 77.732421875 869 l 1
334.9203807 51 m 1
 751.340214405 1572 l 1
 983.909964627 1572 l 1
 558.160156104 51 l 1
 334.9203807 51 l 1
1081.32897136 143 m 1
 1313.42480469 143 l 1
 1373.65332031 144.00390625 1457.09863281 152.666015625 1486.61621094 232 c 1
 1497 232 l 1
 1497 50 l 1
 942.309076628 50 l 1
 940.395711516 144.600585938 l 1
 1076.36721995 211.822481528 1238.35305735 316.399886904 1238.35305735 513 c 0
 1238.35305735 578.688476562 1199.93904907 668 1117.99046093 668 c 0
 1045.49822693 668 998.532846443 605.16796875 998.532846443 532 c 0
 998.532846443 508.25 1004.28354703 484.959960938 1014.1747167 464.291015625 c 1
 960.386620901 418.73828125 l 1
 933.850500424 457.935546875 920.704400641 505.881835938 920.704400641 569 c 0
 920.704400641 858.276423894 1445 840.358054467 1445 558 c 0
 1445 487.26646156 1404.25200437 423.761479993 1356.08789062 376.59765625 c 0
 1319.04101562 340.3203125 1261.52628168 292.937885141 1191.58475789 234.741210938 c 2
 1081.32897136 143 l 1
EndSplineSet
EndChar

StartChar: threequarters
Encoding: 190 190 125
Width: 1574
GlyphClass: 2
Flags: HW
LayerCount: 2
Fore
SplineSet
160.010742188 1103.8984375 m 1
 160.010742188 1297.0390625 l 1
 44 1065.01757812 l 1
 57.740234375 1053.97363281 l 1
294.569754303 1491 m 2
 232.805624389 1491 191.667261425 1453.05784406 176.729492188 1408.34082031 c 1
 153.010742188 1408.55078125 l 1
 153.010742188 1572 l 1
 644.487171335 1572 l 1
 644.487171335 1492.57226562 l 1
 621.654802245 1471.82519531 576.657664842 1431.37958118 508.600403625 1370.4296875 c 2
 420.573587767 1291.59570312 l 1
 534.254167955 1280.18359375 l 2
 611.189519139 1272.09570312 680.211724383 1195.31738281 680.211724383 1110 c 0
 680.211724383 949.538085938 563.460170871 873 378.843058929 873 c 0
 288.586914062 873 213.625 881.681640625 160.010742188 907.623046875 c 1
 160.010742188 983.951171875 l 1
 213.068359375 956.545898438 268.663085938 942 322.050179724 942 c 0
 381.943552239 942 488.764760614 968.58984375 488.764760614 1080 c 0
 488.764760614 1199.63574219 377.432361308 1229 308.309967014 1229 c 0
 295.920517402 1229 284.215820312 1226.65917969 274.010742188 1224.75195312 c 1
 274.010742188 1240.41601562 l 1
 458.536292651 1410.41601562 l 1
 458.536292651 1491 l 1
 294.569754303 1491 l 2
570.026131893 49 m 1
 991.523258605 1570 l 1
 1226.92727396 1570 l 1
 795.987329192 49 l 1
 570.026131893 49 l 1
1514.01074219 115 m 1
 1586.01074219 115 l 1
 1586.01074219 48 l 1
 1284.78108365 48 l 1
 1284.78108365 115 l 1
 1352.56613303 115 l 1
 1352.56613303 294 l 1
 1065.85369446 294 l 1
 1065.85369446 382.358398438 l 1
 1337.56192809 733.908203125 l 1
 1515.01074219 733.197265625 l 1
 1515.01074219 341.615234375 l 1
 1648.01074219 342.615234375 l 1
 1648.01074219 294 l 1
 1514.01074219 294 l 1
 1514.01074219 115 l 1
1352.56613303 342.538085938 m 1
 1352.56613303 675.959960938 l 1
 1106.90436903 344.954101562 l 1
 1352.56613303 342.538085938 l 1
EndSplineSet
EndChar

StartChar: questiondown
Encoding: 191 191 126
Width: 1084
GlyphClass: 2
Flags: HW
LayerCount: 2
Fore
SplineSet
543.158704758 35 m 0
 293.402075413 35 44 185.712890625 44 448 c 0
 44 746.778320312 309.285563734 859.254882812 524.303162651 946.6953125 c 2
 553.153394664 958.427734375 l 1
 553.153394664 1130.70507812 l 1
 757.091268166 1129.29394531 l 1
 756.456026238 860.69921875 l 1
 552.312370139 745.478515625 426.553989184 623.375976562 426.553989184 471 c 0
 426.553989184 396.798828125 454.280143931 289 548.988940537 289 c 0
 628.944833047 289 679.990304169 356.154296875 694.777369802 451 c 1
 1043.89941406 451 l 1
 1001.90039062 203.376953125 784.063428972 35 543.158704758 35 c 0
846 1497 m 0
 846 1376.43261719 763.398952103 1303 649.768730425 1303 c 0
 529.97804477 1303 453.206495601 1375.17578125 453.206495601 1497 c 0
 453.206495601 1611.20898438 525.400398709 1686.15527344 628.375474084 1696 c 1
 649.768730425 1696 l 2
 762.492044613 1696 846 1620.0546875 846 1497 c 0
EndSplineSet
EndChar

StartChar: AE
Encoding: 198 198 133
Width: 1947
GlyphClass: 2
Flags: HW
LayerCount: 2
Fore
SplineSet
846.092738019 589 m 2
 590.551904987 589 l 2
 463.579318111 589 469.732524303 324 574.754835308 324 c 2
 605.419735272 324 l 1
 605.419735272 49.9248046875 l 1
 50 49.0751953125 l 1
 50 305.227539062 l 1
 115.126953125 313.875 170.272460938 340.147460938 209.423828125 386.639648438 c 1
 223.82421875 404.640625 l 2
 256.870117188 445.948242188 281.797493432 497.826881407 302.047574937 545.10546875 c 0
 404.337547155 783.925514219 512.428643922 1014.84472656 617.531608491 1252.04980469 c 2
 649.855345965 1325 l 1
 435.759134329 1325 l 1
 482.45250636 1572 l 1
 1872 1572 l 1
 1872 1020.80957031 l 1
 1694.39746094 1020.14746094 l 1
 1617.7661614 1320 l 1
 1335.80189805 1320 l 1
 1335.80189805 935 l 1
 1526.29597358 935 l 1
 1526.29597358 685 l 1
 1335.80189805 685 l 1
 1335.80189805 297 l 1
 1626.4206107 297 l 1
 1633.3590525 339.091796875 l 1
 1651.01953125 439.447265625 1676.52246094 535.298828125 1699.63671875 634 c 1
 1881 634 l 1
 1881 49 l 1
 816.23094046 49 l 1
 815.553975043 323 l 1
 918.583392725 323 l 1
 926.059051044 364.233398438 l 2
 942.009682605 452.19835114 954.842463948 589 846.092738019 589 c 2
919.41190402 718 m 1
 920.848413745 1523.58007812 l 1
 576.014390266 718 l 1
 919.41190402 718 l 1
EndSplineSet
EndChar

StartChar: Eth
Encoding: 208 208 143
Width: 1551
GlyphClass: 2
Flags: HW
LayerCount: 2
Fore
SplineSet
57 1571 m 1
 784.663042247 1571 l 2
 1253.55934412 1571 1506 1327.11132812 1506 816 c 0
 1506 584.645507812 1419.52735455 411.630219593 1305.30859375 282.356445312 c 0
 1188.68225944 150.357758656 1002.44256067 51 762.973609695 51 c 2
 61 51 l 1
 61 300 l 1
 224 300 l 1
 224 704 l 1
 94 704 l 1
 94 901 l 1
 223.680664062 901 l 1
 226.321289062 1321 l 1
 57 1321 l 1
 57 1571 l 1
711.461207385 296 m 2
 972.674308719 296 1036.80269566 576.385742188 1036.80269566 815 c 0
 1036.80269566 1054.56835938 984.905503614 1320 724.113376373 1320 c 2
 635.548193453 1320 l 1
 635.548193453 900 l 1
 713.268660097 900 l 1
 713.268660097 703 l 1
 635.992113724 703 l 1
 639.435805367 319.393554688 l 1
 625.341557408 296 l 1
 711.461207385 296 l 2
EndSplineSet
EndChar

StartChar: multiply
Encoding: 215 215 150
Width: 708
GlyphClass: 2
Flags: HW
LayerCount: 2
Fore
SplineSet
140.78125 310.15625 m 1
 39.90625 411.03125 l 1
 231.90625 640.09375 l 1
 28 880.0625 l 1
 135.240234375 987.302734375 l 1
 332.875 746.58203125 l 1
 530.509765625 987.302734375 l 1
 637.75 880.0625 l 1
 433.84375 640.09375 l 1
 625.84375 411.03125 l 1
 524.96875 310.15625 l 1
 332.875 539.3125 l 1
 140.78125 310.15625 l 1
EndSplineSet
EndChar

StartChar: Oslash
Encoding: 216 216 151
Width: 1525
GlyphClass: 2
Flags: HW
LayerCount: 2
Fore
SplineSet
538.359814728 17.8095703125 m 2
 276.2421875 119.817382812 45 411.704101562 45 810.837890625 c 0
 45 1322.62402344 334.227472033 1653 762.951218579 1653 c 0
 795.738593607 1653 825.385908754 1650.82981218 857.412770555 1646.39355469 c 2
 898.493930831 1640.703125 l 1
 931.205515237 1795.49121094 l 1
 979.170402702 1785.06933594 l 1
 947.613303332 1623.20898438 l 1
 989.110430735 1608.9453125 l 1
 1270.06542969 1513.57519531 1480 1232.41113281 1480 808.387695312 c 0
 1480 327.49609375 1169.31056302 -20.5693359375 762.048781421 -20.5693359375 c 0
 731.899096251 -20.5693359375 702.418274986 -18.5754308677 673.572925908 -14.609375 c 2
 632.285544641 -8.9326171875 l 1
 599.135079663 -183.268554688 l 1
 543.296780508 -168.372070312 l 1
 578.503286394 2.1015625 l 1
 538.359814728 17.8095703125 l 2
732.694016482 1345 m 1
 730.067783346 1337.7265625 l 1
 528.59428138 1308.03027344 517.215994126 1031.234375 527.415120328 852.37109375 c 1
 527.415120328 694.5 l 2
 527.415120328 594.625 535.682755575 491.636451314 571.078449425 413.192382812 c 2
 628.266879171 286.451171875 l 1
 847.555583433 1336.97949219 l 1
 795.505934027 1342.74707031 l 2
 785.900794783 1343.81152344 775.722819453 1345 763.853655737 1345 c 2
 732.694016482 1345 l 1
674.247109918 258 m 1
 760.243907105 258 l 2
 1002.87083482 258 1002.39758409 594.271484375 997.584879672 782.725585938 c 1
 997.584879672 932 l 2
 997.584879672 1031.08886719 985.282153254 1123.36231652 955.865668125 1198.33496094 c 2
 899.620214706 1341.68554688 l 1
 683.846961444 275.594726562 l 1
 681.709842197 272.04296875 677.463804866 263.34765625 674.247109918 258 c 1
EndSplineSet
EndChar

StartChar: Thorn
Encoding: 222 222 157
Width: 1409
GlyphClass: 2
Flags: HW
LayerCount: 2
Fore
SplineSet
1374 1085.69140625 m 0
 1374 732.115234375 1139.14257812 610 805.709053392 610 c 0
 761.785710399 610 719.834623435 613.863706543 677.784871115 620.021484375 c 2
 626.742842404 627.49609375 l 1
 626.742842404 312 l 1
 756.738199639 312 l 1
 756.738199639 51 l 1
 54 51 l 1
 54 311.673828125 l 1
 211 310.673828125 l 1
 211 1578.07421875 l 1
 60 1578.07421875 l 1
 60 1842 l 1
 627.481926667 1842 l 1
 626.591547508 1529.04492188 l 1
 734.47872066 1529.04492188 l 2
 1094.05451823 1529.04492188 1374 1455.67578125 1374 1085.69140625 c 0
727.355687387 843 m 2
 847.969891548 843 974.881093629 888.982421875 974.881093629 1055 c 0
 974.881093629 1193.83691406 867.540842831 1258 765.64199123 1258 c 2
 627.633221563 1258 l 1
 627.633221563 843 l 1
 727.355687387 843 l 2
EndSplineSet
EndChar

StartChar: germandbls
Encoding: 223 223 158
Width: 1495
GlyphClass: 2
Flags: HW
LayerCount: 2
Fore
SplineSet
775.276269826 848.49609375 m 1
 774.263606827 905.138671875 l 1
 882.736340094 934.05859375 966.98339664 1051.56738281 966.98339664 1173 c 0
 966.98339664 1288.76855469 900.976580741 1376 789.654853742 1376 c 0
 687.516538503 1376 615.789652344 1301.12687412 615.926890394 1181.93457031 c 2
 616.885931481 349 l 1
 752.748913341 349 l 1
 752.748913341 102 l 1
 54 102 l 1
 54 369 l 1
 226 369 l 1
 226 1143 l 2
 226 1471.15722656 385.439693394 1594.90234375 664.980391541 1619 c 1
 759.950072444 1619 l 2
 964.899174444 1619 1120.89295569 1567.54566299 1210.70641549 1470.11523438 c 0
 1257.46656614 1419.38941299 1290 1366.16699219 1290 1286 c 0
 1290 1155.70800781 1196.42980111 1051.26367188 1102.79539373 992.3828125 c 2
 1011.98888294 935.28125 l 1
 1111.2351311 899.491210938 l 1
 1293.5625 836.41796875 1465 687.969726562 1465 477 c 0
 1465 220.329620081 1225.69562342 95.6340883488 968.656224493 82.18359375 c 1
 967.954744395 368.1171875 l 1
 1047.25012501 423.8984375 1098.40455026 493.994140625 1098.40455026 581 c 0
 1098.40455026 770.545898438 923.784353455 838.358398438 775.276269826 848.49609375 c 1
EndSplineSet
EndChar

StartChar: ae
Encoding: 230 230 165
Width: 1717
GlyphClass: 2
Flags: HW
LayerCount: 2
Fore
SplineSet
41 332.27734375 m 1
 65.3013619848 487.343315261 228.030826482 564 409.979781645 564 c 0
 494.013951366 564 566.848584925 551.885742188 628.883473674 528.749023438 c 2
 690.859200473 505.634765625 l 1
 690.859200473 622 l 2
 690.859200473 766.102539062 592.81799121 839 450.367671934 839 c 0
 361.151453347 839 284.231445312 807.690429688 226.127929688 744 c 1
 126 744 l 1
 126 967.32421875 l 1
 154.888671875 974.654296875 l 1
 241.715820312 997.98046875 428.989591423 1027 536.650892097 1027 c 0
 675.833858299 1027 772.851386572 981.028320312 846.114496062 917.17578125 c 2
 877.633472411 889.705078125 l 1
 907.212653957 919.627929688 l 2
 968.106434211 981.229492188 1063.25677553 1030 1192.0362027 1030 c 0
 1479.17675781 1030 1673 845.345703125 1673 545 c 0
 1673 522.708984375 1673.18847656 500.891601562 1671.63378906 490 c 1
 1061.69346585 490 l 1
 1061.69346585 439 l 2
 1061.69346585 308.83203125 1130.28009222 163 1271.89407668 163 c 0
 1363.06981072 163 1427.828125 214.643554688 1444.45800781 306 c 1
 1654 306 l 1
 1654 148.13671875 l 1
 1508.140625 64.345703125 1382.79852781 25 1180.10341693 25 c 0
 1074.98966562 25 985.881910605 62.912109375 906.968835017 141.6171875 c 2
 878.511041316 170 l 1
 847.502112677 144.98828125 l 2
 653.211887306 -11.7270478176 41 -70.3978543578 41 299 c 2
 41 332.27734375 l 1
549.501584462 156 m 0
 621.261793292 156 663.975825819 197.587298258 695.448733461 231.875 c 1
 695.448733461 435.940429688 l 1
 664.380642873 448.029296875 l 2
 639.280737955 457.794921875 601.646567458 473 558.680650437 473 c 0
 475.820755758 473 414.569314633 393.575195312 414.569314633 310 c 2
 414.569314633 297.9609375 l 1
 415.897769298 295.065429688 l 1
 420.786697602 219.422851562 472.712064274 156 549.501584462 156 c 0
1353.58776385 641 m 0
 1353.58776385 723.955078125 1326.47455989 848 1207.64061485 848 c 0
 1095.42653331 848 1061.69346585 721.147460938 1061.69346585 640 c 2
 1061.69346585 560.47265625 l 1
 1349.97261023 557.55078125 l 1
 1352.58918187 606.004882812 l 2
 1353.24803084 618.216796875 1353.58776385 629.8671875 1353.58776385 641 c 0
EndSplineSet
EndChar

StartChar: eth
Encoding: 240 240 175
Width: 1115
GlyphClass: 2
Flags: HW
LayerCount: 2
Fore
SplineSet
34 590 m 0
 34 869.000112592 244.441162509 1029 535.740374037 1029 c 2
 619.169540131 1029 l 1
 605.283089963 1092.74414062 l 2
 591.337285421 1156.76074219 577.425395257 1206.06254973 561.420208362 1243.19335938 c 2
 543.52074309 1284.71875 l 1
 335.102808718 1185.37011719 l 1
 314.020465198 1247.609375 l 1
 527.523915217 1348.77832031 l 1
 425.503640533 1395.56054688 l 2
 384.479052072 1414.37304688 338.03837708 1423 286.715804914 1423 c 0
 261.474609375 1423 235.1640625 1421.89160156 214 1420.02929688 c 1
 214 1630.234375 l 1
 296.887660576 1646.33007812 364.044660456 1654 429.377337734 1654 c 0
 587.921935878 1654 711.852217839 1605.265625 806.921435959 1510.90722656 c 2
 826.691388345 1491.28515625 l 1
 1020.9765625 1569.77441406 l 1
 1047.36816406 1505.21484375 l 1
 879.432617188 1437.82714844 l 1
 914.7109375 1385.49316406 l 2
 1007.63671875 1247.64257812 1078 1031.34863281 1078 774 c 2
 1078 739 l 2
 1078 330.41015625 886.834960938 83 543.337733773 83 c 0
 266.090820312 83 34 280.6328125 34 590 c 0
426.000733407 566 m 0
 426.000733407 416.422851562 456.854290572 285 562.753208654 285 c 0
 688.450931942 285 686.843417675 492.56640625 686.843417675 558 c 0
 686.843417675 696.611328125 661.543616211 826 561.064906491 826 c 0
 458.562377527 826 426.000733407 704.325195312 426.000733407 566 c 0
EndSplineSet
EndChar

StartChar: divide
Encoding: 247 247 182
Width: 642
GlyphClass: 2
Flags: HW
LayerCount: 2
Fore
SplineSet
39 589 m 1
 39 710 l 1
 609 710 l 1
 609 589 l 1
 39 589 l 1
330.957446809 336 m 0
 403.018554688 336 474 279.326171875 474 187 c 0
 474 93.7607421875 400.451171875 33 330.957446809 33 c 2
 321.325136875 33 l 1
 275.299804688 41.7041015625 215 99.30078125 215 187 c 0
 215 280.181640625 281.229492188 336 330.957446809 336 c 0
330.957446809 1239 m 0
 403.018554688 1239 474 1182.32617188 474 1090 c 0
 474 996.760742188 400.451171875 936 330.957446809 936 c 2
 321.325136875 936 l 1
 275.299804688 944.704101562 215 1002.30078125 215 1090 c 0
 215 1183.18164062 281.229492188 1239 330.957446809 1239 c 0
EndSplineSet
EndChar

StartChar: oslash
Encoding: 248 248 183
Width: 1068
GlyphClass: 2
Flags: HW
LayerCount: 2
Fore
SplineSet
1032 547 m 0
 1032 215.374023438 821.326171875 33 533.033327282 33 c 0
 244.821289062 33 34 215.58984375 34 547 c 2
 34 597.990234375 l 1
 55.3779296875 887.159179688 257.728515625 1040 532.167630818 1040 c 0
 823.307617188 1040 1032 871.157226562 1032 547 c 0
686.988298712 545 m 0
 686.988298712 656.1640625 676.000050074 832 531.335261636 832 c 0
 406.479071441 832 380.599217903 695.190429688 376.595066934 596 c 1
 374.017486195 596 l 1
 374.017486195 545 l 2
 374.017486195 377.02734375 415.236830786 243 530.502892453 243 c 0
 645.770579841 243 686.988298712 377.026367188 686.988298712 545 c 0
EndSplineSet
EndChar

StartChar: thorn
Encoding: 254 254 189
Width: 1202
GlyphClass: 2
Flags: HW
LayerCount: 2
Fore
SplineSet
788.394777444 1056.90625 m 0
 1025.390625 1056.90625 1167.83105469 830.12109375 1167.83105469 534.47265625 c 0
 1167.83105469 234.124023438 1026.83398438 3.509765625 787.533683156 3.509765625 c 0
 686.24074025 3.509765625 592.02819979 60.2655726574 552.975467346 119.865234375 c 2
 474.956456671 238.932617188 l 1
 474.956456671 -198 l 1
 570.537922621 -198 l 1
 570.537922621 -397.075195312 l 1
 44 -397.923828125 l 1
 44.662109375 -198 l 1
 128.831054688 -198 l 1
 128.831054688 1241 l 1
 54.8310546875 1241 l 1
 54.8310546875 1445 l 1
 485.289588125 1445 l 1
 485.289588125 921.5 l 1
 556.598117924 921.5 l 1
 569.571714284 938.317382812 l 2
 629.875223629 1016.48339844 678.971052634 1056.90625 788.394777444 1056.90625 c 0
633.397805633 787 m 0
 546.355808878 787 496.836078555 724.530969693 475.817550958 651.276367188 c 1
 475.817550958 423.125 l 1
 473.103085762 419.973632812 l 1
 475.17425298 395.92578125 l 2
 482.914010622 306.04296875 561.095317388 255 629.953428481 255 c 0
 776.589208394 255 817.67198323 411.427734375 817.67198323 542 c 0
 817.67198323 688.440429688 753.552413457 787 633.397805633 787 c 0
EndSplineSet
EndChar

StartChar: hbar
Encoding: 295 295 209
Width: 1232
GlyphClass: 2
Flags: HW
LayerCount: 2
Fore
SplineSet
629.957869923 1001.9375 m 2
 672.155831734 1050.83480203 721.414785959 1089 817.17311412 1089 c 0
 1003.01757812 1089 1104 974.461914062 1104 753 c 2
 1104 305 l 1
 1190 305 l 1
 1190 102 l 1
 747.270793037 102 l 1
 747.270793037 670.408203125 l 1
 746.004959628 762.072265625 712.667694544 846 630.766924565 846 c 0
 546.647996441 846 499.592198582 773.50390625 499.592198582 677 c 2
 499.592198582 305 l 1
 568.631528046 305 l 1
 568.631528046 102 l 1
 60.16796875 102 l 1
 60.8330078125 305 l 1
 140 305 l 1
 140 1235 l 1
 56 1235 l 1
 56 1272 l 1
 140 1272 l 1
 140 1434 l 1
 56 1434 l 1
 56 1640 l 1
 496.140232108 1640 l 1
 496.140232108 1272 l 1
 647.163765313 1272 l 1
 647.163765313 1235 l 1
 496.140232108 1235 l 1
 496.140232108 834.095703125 l 1
 572.867266204 932.8828125 l 2
 588.080864538 952.469726562 598.557109517 965.551560972 601.398241054 968.84375 c 2
 629.957869923 1001.9375 l 2
EndSplineSet
EndChar

StartChar: dotlessi
Encoding: 305 305 216
Width: 644
GlyphClass: 2
Flags: HW
HStem: 51 197<51 133 512 596> 798 164.406<44 133>
VStem: 133 379<248 798>
LayerCount: 2
Fore
SplineSet
512 248 m 1
 596 248 l 1
 596 51 l 1
 51 51 l 1
 51 248 l 1
 133 248 l 1
 133 798 l 1
 44 798 l 1
 44 962.40625 l 1
 512 1014.953125 l 1
 512 248 l 1
EndSplineSet
EndChar

StartChar: ij
Encoding: 307 307 218
Width: 1286
GlyphClass: 2
Flags: HW
LayerCount: 2
Fore
SplineSet
748.78020033 -394.256835938 m 1
 747.581298752 -169.063476562 l 1
 787.552592621 -160.979492188 841.021908421 -129.405273438 841.021908421 -57 c 2
 841.021908421 763 l 1
 496.5787561 763 l 1
 496.5787561 206 l 1
 569.458415533 206 l 1
 569.458415533 3 l 1
 65 3 l 1
 65 206 l 1
 147 206 l 1
 147 764 l 1
 58 764 l 1
 58 911.40625 l 1
 543.303720976 970 l 1
 1216 970 l 1
 1216 78 l 2
 1216 -273.374023438 1064.06738281 -383.615234375 748.78020033 -394.256835938 c 1
68 1439 m 0
 68 1564.29589844 154.813476562 1633 295 1633 c 0
 422.97975572 1633 500.916831066 1565.45019531 500.916831066 1439 c 0
 500.916831066 1310.86230469 421.703751639 1240 296 1240 c 0
 157.102539062 1240 68 1313.56152344 68 1439 c 0
783.759318866 1438 m 0
 783.759318866 1563.29589844 859.079992748 1632 982 1632 c 0
 1128.17089844 1632 1218 1564.45019531 1218 1438 c 0
 1218 1309.86230469 1126.70019531 1239 983 1239 c 0
 861.066017694 1239 783.759318866 1312.56152344 783.759318866 1438 c 0
EndSplineSet
EndChar

StartChar: kgreenlandic
Encoding: 312 312 222
Width: 1203
GlyphClass: 2
Flags: HW
LayerCount: 2
Fore
SplineSet
35 961.301757812 m 1
 491.159315932 1015.08300781 l 1
 491.159315932 51 l 1
 36 51 l 1
 36 250 l 1
 139 250 l 1
 139 785 l 1
 35 785 l 1
 35 961.301757812 l 1
805.419723222 51 m 1
 551.286014148 492.215820312 l 1
 811.091973553 812 l 1
 671.076507651 812 l 1
 671.076507651 1021 l 1
 1162 1021 l 1
 1162 812 l 1
 1020.21191406 812 l 1
 1005.14941406 796.256835938 l 2
 950.09375 738.712890625 892.957370542 669.4609375 846.100274774 613.458007812 c 2
 819.989339559 582.25 l 1
 1050.44433594 250 l 1
 1180 250 l 1
 1180 51 l 1
 805.419723222 51 l 1
EndSplineSet
EndChar

StartChar: ldot
Encoding: 320 320 223
Width: 1059
GlyphClass: 2
Flags: HW
LayerCount: 2
Fore
SplineSet
529.080226495 304 m 1
 613.070022986 304 l 1
 613.070022986 102 l 1
 60 102 l 1
 60 304 l 1
 175 304 l 1
 175 1324 l 1
 50 1324 l 1
 50 1500.06738281 l 1
 529.080226495 1554.37402344 l 1
 529.080226495 304 l 1
721.056904188 713 m 0
 721.056904188 871.234375 795.45941673 958 917 958 c 0
 1063.17089844 958 1153 872.692382812 1153 713 c 0
 1153 617.701171875 1061.70019531 565 918 565 c 0
 797.42123197 565 721.056904188 619.708984375 721.056904188 713 c 0
EndSplineSet
EndChar

StartChar: Lslash
Encoding: 321 321 224
Width: 1194
GlyphClass: 2
Flags: HW
LayerCount: 2
Fore
SplineSet
601.443049577 359 m 1
 842.090318725 359 l 1
 923.771484375 709 l 1
 1118.89648438 709 l 1
 1118.89648438 102 l 1
 49.7548828125 102 l 1
 49.0390625 359 l 1
 191.896484375 359 l 1
 191.896484375 662.69921875 l 1
 82.044921875 599.041015625 l 1
 32 688.12109375 l 1
 191.896484375 780.857421875 l 1
 191.896484375 1372 l 1
 44.896484375 1372 l 1
 44.896484375 1622 l 1
 732.91863077 1622 l 1
 732.91863077 1372 l 1
 601.443049577 1372 l 1
 601.443049577 1050.546875 l 1
 734.252595676 1140.76953125 l 1
 776.610983829 1051.06152344 l 1
 601.443049577 932.163085938 l 1
 601.443049577 359 l 1
EndSplineSet
EndChar

StartChar: lslash
Encoding: 322 322 225
Width: 688
GlyphClass: 2
Flags: HW
LayerCount: 2
Fore
SplineSet
468.016601562 305 m 1
 546.016601562 305 l 1
 546.016601562 102 l 1
 103.016601562 102 l 1
 103.016601562 305 l 1
 177.016601562 305 l 1
 177.016601562 731.623046875 l 1
 40.1376953125 659.309570312 l 1
 -10 748.5546875 l 1
 177.016601562 848.416992188 l 1
 177.016601562 1419 l 1
 93.0166015625 1419 l 1
 93.0166015625 1630 l 1
 468.016601562 1630 l 1
 468.016601562 1058.45898438 l 1
 609.833984375 1135.11621094 l 1
 659.41796875 1045.46386719 l 1
 468.016601562 942.471679688 l 1
 468.016601562 305 l 1
EndSplineSet
EndChar

StartChar: OE
Encoding: 338 338 228
Width: 2066
GlyphClass: 2
Flags: HW
LayerCount: 2
Fore
SplineSet
797.715033047 51 m 2
 354.731092562 51 45 332.546875 45 792 c 0
 45 1261.64355469 351.770184792 1559 793.975323449 1559 c 2
 1991 1559 l 1
 1991 1007.80957031 l 1
 1813.71875 1007.1484375 l 1
 1738.95867048 1309 l 1
 1454.96899482 1309 l 1
 1454.96899482 937 l 1
 1646.6291117 937 l 1
 1646.6291117 687 l 1
 1454.96899482 687 l 1
 1454.96899482 299 l 1
 1747.36662596 299 l 1
 1754.34753895 341.091796875 l 1
 1772.01953125 441.447265625 1797.52246094 537.298828125 1820.63671875 636 c 1
 2002 636 l 1
 2002 51 l 1
 797.715033047 51 l 2
788.365759053 1308 m 2
 537.889033013 1308 530.9170495 1015.54606285 541.544925613 815.537109375 c 1
 541.544925613 723.48046875 l 1
 543.543515532 722.411132812 l 1
 545.242636519 535.178710938 567.071000059 299 798.649960446 299 c 2
 1032.38181029 299 l 1
 1032.38181029 1308 l 1
 788.365759053 1308 l 2
EndSplineSet
EndChar

StartChar: oe
Encoding: 339 339 229
Width: 1706
GlyphClass: 2
Flags: HW
LayerCount: 2
Fore
SplineSet
1186.01882528 1026 m 0
 1473.17675781 1026 1667 841.345703125 1667 541 c 0
 1667 519.2421875 1667.05078125 497.326171875 1664.96484375 485 c 1
 1055.66678 485 l 1
 1055.66678 434 l 2
 1055.66678 303.83203125 1124.25830449 158 1265.88240233 158 c 0
 1357.0646477 158 1421.828125 209.643554688 1438.45800781 301 c 1
 1648 301 l 1
 1648 143.353515625 l 1
 1499.46386719 58.9248046875 1376.92956082 20 1172.39626201 20 c 0
 1054.6430259 20 965.797844393 77.263671875 916.891623067 143.859375 c 2
 879.140018401 195.265625 l 1
 842.881014937 142.599609375 l 2
 799.308713817 79.3125 684.054800315 25 559.043846891 25 c 2
 512.227267245 25 l 1
 512.227267245 18.48046875 l 1
 224.016601562 36.8583984375 34 215.630859375 34 531 c 0
 34 855.120117188 242.749023438 1024 559.961819041 1024 c 0
 691.264108937 1024 790.949250635 977.391601562 853.985429996 913.627929688 c 2
 887.044977794 880.185546875 l 1
 918.946302918 914.9375 l 2
 976.467477722 977.598632812 1060.63494567 1026 1186.01882528 1026 c 0
729.786666775 528 m 0
 729.786666775 640.447265625 701.191475723 774 558.125874741 774 c 0
 428.944602527 774 391.341809753 662.197265625 387.085431073 560.857421875 c 1
 384.629138407 559.51953125 l 1
 384.629138407 528 l 2
 384.629138407 380.228515625 435.926211026 266 557.207902591 266 c 0
 678.489594156 266 729.786666775 380.228515625 729.786666775 528 c 0
1346.66395152 639 m 0
 1346.66395152 721.955078125 1319.54881127 846 1200.70637968 846 c 0
 1088.48428436 846 1054.74880785 719.147460938 1054.74880785 638 c 2
 1054.74880785 556 l 1
 1343.07274407 556 l 1
 1345.66529822 604.004882812 l 2
 1346.32419425 616.216796875 1346.66395152 627.8671875 1346.66395152 639 c 0
EndSplineSet
EndChar

StartChar: dotlessj
Encoding: 567 567 281
Width: 590
GlyphClass: 2
Flags: HW
LayerCount: 2
Fore
SplineSet
32 -172.653320312 m 1
 83.8310027439 -168.623767625 169 -144.921865993 169 -60 c 2
 169 761 l 1
 39 761 l 1
 39 911.016601562 l 1
 554 964.436523438 l 1
 554 78 l 2
 554 -275.774414062 385.138671875 -386.662109375 32 -397.263671875 c 1
 32 -172.653320312 l 1
EndSplineSet
EndChar

StartChar: circumflex
Encoding: 710 710 282
Width: 719
GlyphClass: 2
Flags: HW
LayerCount: 2
Fore
SplineSet
392.3671875 1659 m 1
 619.537109375 1347.26367188 l 1
 544.329101562 1297.93945312 l 1
 334.285606147 1548.72460938 l 1
 124.286132812 1297.93945312 l 1
 49 1347.31445312 l 1
 275.303710938 1659 l 1
 392.3671875 1659 l 1
EndSplineSet
EndChar

StartChar: caron
Encoding: 711 711 283
Width: 720
GlyphClass: 2
Flags: HW
LayerCount: 2
Fore
SplineSet
280.303710938 1301 m 1
 54 1612.68554688 l 1
 129.286132812 1662.06054688 l 1
 339.285606147 1411.27539062 l 1
 549.329101562 1662.06054688 l 1
 624.537109375 1612.73632812 l 1
 397.3671875 1301 l 1
 280.303710938 1301 l 1
EndSplineSet
EndChar

StartChar: breve
Encoding: 728 728 284
Width: 722
GlyphClass: 2
Flags: HW
LayerCount: 2
Fore
SplineSet
505.334960938 1570 m 1
 657.920898438 1570 l 1
 638.526367188 1389.24902344 521.229492188 1296 358.997637732 1296 c 2
 348.162708196 1296 l 1
 347.301203074 1294.3203125 l 1
 183.940429688 1300.94433594 76.953125 1393.3828125 59 1569 c 1
 211.775390625 1569 l 1
 232.505859375 1473.8203125 307.661949952 1409 358.48474166 1409 c 0
 409.976201588 1409 485.185546875 1475.89257812 505.334960938 1570 c 1
EndSplineSet
EndChar

StartChar: dotaccent
Encoding: 729 729 285
Width: 583
GlyphClass: 2
Flags: HW
LayerCount: 2
Fore
SplineSet
59 1460 m 0
 59 1585.29589844 145.813476562 1654 286 1654 c 0
 432.170898438 1654 522 1586.45019531 522 1460 c 0
 522 1331.86230469 430.700195312 1261 287 1261 c 0
 148.102539062 1261 59 1334.56152344 59 1460 c 0
EndSplineSet
EndChar

StartChar: ring
Encoding: 730 730 286
Width: 566
GlyphClass: 2
Flags: HW
LayerCount: 2
Fore
SplineSet
277 1684 m 0
 256.875976562 1684 237.2890625 1681.66308594 218.681640625 1677.140625 c 1
 236.856445312 1680.35644531 256.334960938 1682 277 1682 c 0
 296.93359375 1682 315.827148438 1680.57421875 333.576171875 1677.78320312 c 1
 315.282226562 1681.8984375 296.26171875 1684 277 1684 c 0
57 1490 m 0
 57 1592.85449219 117.703125 1659.27246094 218.681640625 1677.140625 c 1
 132.2890625 1656.14355469 67 1588.0390625 67 1488 c 0
 67 1382.86132812 138.467773438 1310.37304688 232.517578125 1293.015625 c 1
 123.9296875 1308.33203125 57 1381.07910156 57 1490 c 0
493 1488 m 0
 493 1591.38574219 421.7265625 1657.95507812 333.576171875 1677.78320312 c 1
 441.397460938 1660.82617188 507 1593.46191406 507 1489 c 0
 507 1380.56738281 433.59375 1307.80175781 321.307617188 1292.85253906 c 1
 416.083007812 1309.60058594 493 1380.12011719 493 1488 c 0
277 1289 m 0
 292.043945312 1289 306.8828125 1290.30371094 321.307617188 1292.85253906 c 1
 307.134765625 1290.96582031 292.342773438 1290 277 1290 c 0
 261.502929688 1290 246.657226562 1291.02050781 232.517578125 1293.015625 c 1
 246.876953125 1290.36523438 261.76171875 1289 277 1289 c 0
EndSplineSet
EndChar

StartChar: ogonek
Encoding: 731 731 287
Width: 425
GlyphClass: 2
Flags: HW
LayerCount: 2
Fore
SplineSet
271.243164062 -51 m 1
 237.833718893 -110.442835343 166 -189.856748356 166 -273 c 0
 166 -384.725585938 276.450195312 -415.26953125 353 -423.107421875 c 1
 353 -436.276367188 l 1
 198.10546875 -428.84765625 66 -368.637695312 66 -288 c 0
 66 -269.005859375 67.7470703125 -269.317382812 82.890625 -244.799804688 c 0
 122.44921875 -180.752929688 162.934570312 -120.596679688 207.853515625 -51 c 1
 271.243164062 -51 l 1
EndSplineSet
EndChar

StartChar: tilde
Encoding: 732 732 288
Width: 796
GlyphClass: 2
Flags: HW
LayerCount: 2
Fore
SplineSet
90.9462890625 1542.88769531 m 1
 123.741210938 1507.07421875 172.564453125 1446 249.64453125 1446 c 0
 373.870958125 1446 414.534898461 1572 502.64453125 1572 c 0
 596.89453125 1572 639.077148438 1463.14941406 703.345703125 1346.58105469 c 1
 667.25390625 1322.9453125 l 1
 636.004882812 1357.21386719 589.39453125 1417 513.64453125 1417 c 0
 391.758085328 1417 340.375749376 1297 259.64453125 1297 c 0
 157.6015625 1297 118.4375 1402.90722656 54 1518.58105469 c 1
 90.9462890625 1542.88769531 l 1
EndSplineSet
EndChar

StartChar: hungarumlaut
Encoding: 733 733 289
Width: 807
GlyphClass: 2
Flags: HW
LayerCount: 2
Fore
SplineSet
133.5859375 1143.43457031 m 1
 54 1172.375 l 1
 182.240234375 1792.40527344 l 1
 348.072426539 1715.62695312 l 1
 133.5859375 1143.43457031 l 1
407.562838306 1154.48242188 m 1
 363.631428672 1202.01855469 l 1
 555.58203125 1760.34667969 l 1
 723.251953125 1596.07226562 l 1
 407.562838306 1154.48242188 l 1
EndSplineSet
EndChar

StartChar: dotaccentcmb
Encoding: 775 775 290
Width: 583
GlyphClass: 2
Flags: HW
LayerCount: 2
Fore
SplineSet
59 1460 m 0
 59 1585.29589844 145.813476562 1654 286 1654 c 0
 432.170898438 1654 522 1586.45019531 522 1460 c 0
 522 1331.86230469 430.700195312 1261 287 1261 c 0
 148.102539062 1261 59 1334.56152344 59 1460 c 0
EndSplineSet
EndChar

StartChar: uni030F
Encoding: 783 783 291
Width: 807
GlyphClass: 2
Flags: HW
LayerCount: 2
Fore
SplineSet
-56 1696.07226562 m 1
 111.32421875 1860.09179688 l 1
 310.106958027 1267.78125 l 1
 264.007612779 1241.02636719 l 1
 -56 1696.07226562 l 1
319.179526586 1815.62695312 m 1
 485.01171875 1892.40527344 l 1
 613.251953125 1272.375 l 1
 533.665039062 1243.43457031 l 1
 319.179526586 1815.62695312 l 1
EndSplineSet
EndChar

StartChar: uni0311
Encoding: 785 785 292
Width: 722
GlyphClass: 2
Flags: HW
LayerCount: 2
Fore
SplineSet
505.322265625 1294 m 1
 484.840820312 1389.71386719 409.596621048 1455 358.472419882 1455 c 0
 307.288618806 1455 232.15625 1388.578125 211.762695312 1295 c 1
 59 1295 l 1
 77.0986328125 1471.32421875 185.634765625 1563.0625 347.290675559 1569.67773438 c 1
 348.151117947 1568 l 1
 358.985279605 1568 l 2
 522.049804688 1568 639.0546875 1472.92480469 657.905273438 1294 c 1
 505.322265625 1294 l 1
EndSplineSet
EndChar

StartChar: uni0326
Encoding: 806 806 293
Width: 491
GlyphClass: 2
Flags: HW
LayerCount: 2
Fore
SplineSet
209.125 -681.380859375 m 1
 209.125 -611.875 l 1
 34 -787 l 1
 106.484375 -787 l 1
209.125 -907.818359375 m 1
 209.125 -784.506835938 l 1
 337.349609375 -770.83984375 399.125 -687.120117188 399.125 -550.5 c 2
 399.125 -462 l 1
 210.125 -462 l 1
 210.125 -198 l 1
 625.028320312 -198 l 1
 636.688476562 -283.561523438 642.125 -356.915039062 642.125 -424 c 0
 642.125 -755.15625 514.669921875 -892.994140625 209.125 -907.818359375 c 1
EndSplineSet
EndChar

StartChar: endash
Encoding: 8211 8211 295
Width: 681
GlyphClass: 2
Flags: HW
LayerCount: 2
Fore
SplineSet
613 785 m 1
 613 588 l 1
 68 588 l 1
 68 785 l 1
 613 785 l 1
EndSplineSet
EndChar

StartChar: emdash
Encoding: 8212 8212 296
Width: 1102
GlyphClass: 2
Flags: HW
LayerCount: 2
Fore
SplineSet
1034 785 m 1
 1034 588 l 1
 68 588 l 1
 68 785 l 1
 1034 785 l 1
EndSplineSet
EndChar

StartChar: quoteleft
Encoding: 8216 8216 297
Width: 549
GlyphClass: 2
Flags: HW
LayerCount: 2
Fore
SplineSet
484 1600.82226562 m 1
 484 1474.51953125 l 1
 355.747070312 1460.89160156 294 1378.7109375 294 1243 c 2
 294 1155 l 1
 483 1155 l 1
 483 891 l 1
 68.0634765625 891 l 1
 56.4765625 975.619140625 51 1049.47070312 51 1117 c 0
 51 1448.2265625 177.747070312 1585.98828125 484 1600.82226562 c 1
EndSplineSet
EndChar

StartChar: quoteright
Encoding: 8217 8217 298
Width: 547
GlyphClass: 2
Flags: HW
LayerCount: 2
Fore
SplineSet
197.51953125 1086.765625 m 1
 197.51953125 1250.0390625 l 1
 63 981 l 1
 94.814453125 981 l 1
197.51953125 861.181640625 m 1
 197.51953125 983.493164062 l 1
 325.744140625 997.16015625 387.51953125 1080.87988281 387.51953125 1217.5 c 2
 387.51953125 1306 l 1
 198.51953125 1306 l 1
 198.51953125 1570 l 1
 613.42578125 1570 l 1
 625.118164062 1484.24707031 630.51953125 1411.54492188 630.51953125 1345 c 0
 630.51953125 1013.84375 503.065429688 876.005859375 197.51953125 861.181640625 c 1
EndSplineSet
EndChar

StartChar: quotesinglbase
Encoding: 8218 8218 299
Width: 491
GlyphClass: 2
Flags: HW
LayerCount: 2
Fore
SplineSet
209.125 -169.380859375 m 1
 209.125 -99.875 l 1
 34 -275 l 1
 106.484375 -275 l 1
209.125 -395.818359375 m 1
 209.125 -272.506835938 l 1
 337.349609375 -258.83984375 399.125 -175.120117188 399.125 -38.5 c 2
 399.125 50 l 1
 210.125 50 l 1
 210.125 314 l 1
 625.028320312 314 l 1
 636.688476562 228.438476562 642.125 155.084960938 642.125 88 c 0
 642.125 -243.15625 514.669921875 -380.994140625 209.125 -395.818359375 c 1
EndSplineSet
EndChar

StartChar: quotedblleft
Encoding: 8220 8220 300
Width: 1078
GlyphClass: 2
Flags: HW
LayerCount: 2
Fore
SplineSet
1013 1600.82226562 m 1
 1013 1474.51953125 l 1
 884.747070312 1460.89160156 823 1378.7109375 823 1243 c 2
 823 1155 l 1
 1012 1155 l 1
 1012 891 l 1
 627.437252356 891 l 1
 617.918416327 975.619140625 613.41933226 1049.47070312 613.41933226 1117 c 0
 613.41933226 1448.2265625 717.54408653 1585.98828125 1013 1600.82226562 c 1
451.58066774 1598.82226562 m 1
 451.58066774 1472.51953125 l 1
 346.218825804 1458.89160156 295 1376.7109375 295 1241 c 2
 295 1153 l 1
 450.759151676 1153 l 1
 450.759151676 889 l 1
 69.0634765625 889 l 1
 57.4765625 973.619140625 52 1047.47070312 52 1115 c 0
 52 1446.2265625 178.747070312 1583.98828125 451.58066774 1598.82226562 c 1
EndSplineSet
EndChar

StartChar: quotedblright
Encoding: 8221 8221 301
Width: 1096
GlyphClass: 2
Flags: HW
LayerCount: 2
Fore
SplineSet
772.753723966 1086.765625 m 1
 772.753723966 1250.0390625 l 1
 657.081721593 981 l 1
 684.438652316 981 l 1
772.753723966 861.181640625 m 1
 772.753723966 983.493164062 l 1
 883.012785844 997.16015625 936.51953125 1080.87988281 936.51953125 1217.5 c 2
 936.51953125 1306 l 1
 773.613613986 1306 l 1
 773.613613986 1570 l 1
 1162.42578125 1570 l 1
 1174.11816406 1484.24707031 1179.51953125 1411.54492188 1179.51953125 1345 c 0
 1179.51953125 1013.84375 1052.06542969 876.005859375 772.753723966 861.181640625 c 1
196.51953125 1084.765625 m 1
 196.51953125 1248.0390625 l 1
 62 979 l 1
 93.814453125 979 l 1
196.51953125 859.181640625 m 1
 196.51953125 981.493164062 l 1
 322.364493016 995.16015625 375.484534876 1078.87988281 375.484534876 1215.5 c 2
 375.484534876 1304 l 1
 197.51953125 1304 l 1
 197.51953125 1568 l 1
 569.739064633 1568 l 1
 579.79322792 1482.24707031 584.437809657 1409.54492188 584.437809657 1343 c 0
 584.437809657 1011.84375 474.841299757 874.005859375 196.51953125 859.181640625 c 1
EndSplineSet
EndChar

StartChar: quotedblbase
Encoding: 8222 8222 302
Width: 1031
GlyphClass: 2
Flags: HW
LayerCount: 2
Fore
SplineSet
768.50149896 -169.380859375 m 1
 768.50149896 -99.875 l 1
 617.111060915 -275 l 1
 679.771682087 -275 l 1
768.50149896 -395.818359375 m 1
 768.50149896 -272.506835938 l 1
 879.347921695 -258.83984375 933.125 -175.120117188 933.125 -38.5 c 2
 933.125 50 l 1
 769.365969699 50 l 1
 769.365969699 314 l 1
 1159.02832031 314 l 1
 1170.68847656 228.438476562 1176.125 155.084960938 1176.125 88 c 0
 1176.125 -243.15625 1048.66992188 -380.994140625 768.50149896 -395.818359375 c 1
209.125 -170.380859375 m 1
 209.125 -100.875 l 1
 34 -276 l 1
 106.484375 -276 l 1
209.125 -396.818359375 m 1
 209.125 -273.506835938 l 1
 329.544532135 -259.83984375 382.947549677 -176.120117188 382.947549677 -39.5 c 2
 382.947549677 49 l 1
 210.125 49 l 1
 210.125 313 l 1
 578.234359773 313 l 1
 588.314223655 227.438476562 593.013939085 154.084960938 593.013939085 87 c 0
 593.013939085 -244.15625 482.832753598 -381.994140625 209.125 -396.818359375 c 1
EndSplineSet
EndChar

StartChar: bullet
Encoding: 8226 8226 303
Width: 695
GlyphClass: 2
Flags: HW
LayerCount: 2
Fore
SplineSet
640.869140625 536 m 0
 640.869140625 322.177734375 503.747070312 191 345.445521683 191 c 0
 186.155273438 191 56.869140625 322.368164062 56.869140625 537 c 2
 56.869140625 547.896484375 l 1
 53 556.537109375 l 1
 58.1572265625 749.811523438 193.114257812 866 343.988255869 866 c 0
 500.56640625 866 640.869140625 739.944335938 640.869140625 536 c 0
EndSplineSet
EndChar

StartChar: guilsinglleft
Encoding: 8249 8249 304
Width: 613
GlyphClass: 2
Flags: HW
LayerCount: 2
Fore
SplineSet
55 647.079101562 m 1
 426.079101562 998.995117188 l 1
 551.62890625 851.75390625 l 1
 233.875 534 l 1
 551.62890625 216.24609375 l 1
 426.079101562 69.0048828125 l 1
 55 420.920898438 l 1
 55 647.079101562 l 1
EndSplineSet
EndChar

StartChar: guilsinglright
Encoding: 8250 8250 305
Width: 611
GlyphClass: 2
Flags: HW
LayerCount: 2
Fore
SplineSet
540.62890625 420.920898438 m 1
 169.548828125 69.0048828125 l 1
 44 216.24609375 l 1
 361.75390625 534 l 1
 44 851.75390625 l 1
 169.548828125 998.995117188 l 1
 540.62890625 647.079101562 l 1
 540.62890625 420.920898438 l 1
EndSplineSet
EndChar

StartChar: Euro
Encoding: 8364 8364 306
Width: 1295
GlyphClass: 2
Flags: HW
LayerCount: 2
Fore
SplineSet
607.417589095 500.62890625 m 2
 637.707890074 373.95703125 705.594816227 290 809.17270629 290 c 0
 969.561994594 290 1052.53320312 434.754882812 1064.546875 589 c 1
 1261.91894531 589 l 1
 1261.08105469 59 l 1
 1033.12402344 59 l 1
 986.319264027 165.220703125 l 1
 941.514305359 115.474609375 l 2
 886.539802978 54.4365234375 788.08407596 30 657.778792422 30 c 0
 362.244855261 30 209.141601562 248.309570312 139.501953125 529.26953125 c 2
 129.90234375 568 l 1
 21 568 l 1
 21 690 l 1
 113.846679688 690 l 1
 108.791015625 745.6171875 l 2
 108.318359375 750.814453125 108 758.272460938 108 767.5 c 2
 108 840.5 l 2
 108 849.727539062 108.318576617 857.185527123 108.791015625 862.3828125 c 2
 113.846679688 918 l 1
 21 918 l 1
 21 1040 l 1
 129.438476562 1040 l 1
 138.657226562 1079.37402344 l 2
 205.895507812 1366.5703125 361.319101007 1598 656.898595249 1598 c 0
 787.288116406 1598 886.16675066 1572.54296875 941.894234217 1512.10839844 c 2
 986.65191667 1463.5703125 l 1
 1033.12402344 1569 l 1
 1261.08105469 1569 l 1
 1261.91894531 1039 l 1
 1064.5390625 1039 l 1
 1052.43554688 1194.25683594 969.130491682 1338 809.17270629 1338 c 0
 699.760931249 1338 633.12639502 1240.87011719 604.360107311 1099.48632812 c 2
 591.646243644 1037 l 1
 764.282650434 1037 l 1
 764.282650434 915 l 1
 582.081835488 915 l 1
 582.081835488 687 l 1
 764.282650434 687 l 1
 764.282650434 565 l 1
 592.024453367 565 l 1
 607.417589095 500.62890625 l 2
EndSplineSet
EndChar

StartChar: trademark
Encoding: 8482 8482 307
Width: 2454
GlyphClass: 2
Flags: HW
LayerCount: 2
Fore
SplineSet
801.602174389 1234 m 1
 761.795183787 1433 l 1
 606.965538424 1433 l 1
 606.965538424 727 l 1
 711.22194238 727 l 1
 711.22194238 588 l 1
 240 588 l 1
 240 727 l 1
 347.272314024 727 l 1
 347.272314024 1433 l 1
 190.842773438 1433 l 1
 147.842773438 1234 l 1
 52 1234 l 1
 52 1571 l 1
 892.248971067 1571 l 1
 892.248971067 1234 l 1
 801.602174389 1234 l 1
1078.01492721 585 m 1
 1078.01492721 725.610351562 l 1
 1165.9238826 748.923828125 1182.27133116 834.149414062 1182.27133116 909 c 2
 1182.27133116 1434 l 1
 1076.11935623 1434 l 1
 1076.11935623 1572 l 1
 1524.08591068 1572 l 1
 1756.55159038 967.07421875 l 1
 1962.19327467 1572 l 1
 2390 1572 l 1
 2390 1441 l 1
 2292 1441 l 1
 2292 732 l 1
 2395 732 l 1
 2395 588 l 1
 1968.93328829 588 l 1
 1968.93328829 732 l 1
 2047.599484 732 l 1
 2047.599484 1490.97167969 l 1
 1747.92988936 588 l 1
 1636.23096282 588 l 1
 1291.26666257 1459.4375 l 1
 1291.26666257 888.721679688 l 1
 1292.21444806 884.721679688 l 1
 1292.21444806 855 l 2
 1292.21444806 782.282226562 1344.08904338 742.046875 1394.57528104 731.494140625 c 1
 1394.57528104 585 l 1
 1078.01492721 585 l 1
EndSplineSet
EndChar

StartChar: commaaccent
Encoding: 63171 63171 308
Width: 491
GlyphClass: 2
Flags: HW
LayerCount: 2
Fore
SplineSet
209.125 -681.380859375 m 1
 209.125 -611.875 l 1
 34 -787 l 1
 106.484375 -787 l 1
209.125 -907.818359375 m 1
 209.125 -784.506835938 l 1
 337.349609375 -770.83984375 399.125 -687.120117188 399.125 -550.5 c 2
 399.125 -462 l 1
 210.125 -462 l 1
 210.125 -198 l 1
 625.028320312 -198 l 1
 636.688476562 -283.561523438 642.125 -356.915039062 642.125 -424 c 0
 642.125 -755.15625 514.669921875 -892.994140625 209.125 -907.818359375 c 1
EndSplineSet
EndChar

StartChar: uniFB00
Encoding: 64256 64256 309
Width: 1537
GlyphClass: 3
Flags: HW
LayerCount: 2
Fore
SplineSet
642.308403393 1366 m 0
 506.205703069 1366 490.33442194 1234.98039501 496.093941991 1120.17089844 c 2
 498.511037902 1072 l 1
 944.811351619 1072 l 1
 944.811351619 1123 l 2
 944.811351619 1163.63183594 943.799010829 1200.3671875 943.000072888 1258.77246094 c 2
 942.442756356 1299.49804688 l 1
 954.745166077 1513.21191406 1044.73326763 1606 1238.28436109 1606 c 0
 1321.89550781 1606 1425.66015625 1588.55761719 1496 1571.63671875 c 1
 1496 1361.04394531 l 1
 1479.89257812 1363.01464844 1465.40234375 1364 1451 1364 c 0
 1301.10474068 1364 1282.66538598 1233.60121546 1289.078125 1118.17089844 c 2
 1291.75488281 1070 l 1
 1468 1070 l 1
 1468 861 l 1
 1296 861 l 1
 1296 303 l 1
 1406 303 l 1
 1406 100 l 1
 868.959866094 100 l 1
 868.959866094 303 l 1
 944.811351619 303 l 1
 944.811351619 861 l 1
 501.441358847 861 l 1
 501.441358847 303 l 1
 600.77068513 303 l 1
 600.77068513 100 l 1
 55 100 l 1
 55 303 l 1
 139 303 l 1
 139 861 l 1
 55 861 l 1
 55 1070 l 1
 138 1070 l 1
 138 1121 l 2
 138 1161.3828125 136 1198.86241164 136 1256.39257812 c 0
 136 1503.75702721 238.258789062 1608 449.067714079 1608 c 0
 525.727837674 1608 619.426679686 1590.55761719 682.943127782 1573.63671875 c 1
 682.943127782 1363.04394531 l 1
 668.398224482 1365.01464844 655.31363159 1366 642.308403393 1366 c 0
EndSplineSet
Ligature2: "'liga' Standard Ligatures lookup 0 subtable" f f
EndChar

StartChar: uniFB01
Encoding: 64257 64257 310
Width: 1420
GlyphClass: 3
Flags: HW
LayerCount: 2
Fore
SplineSet
636.93279685 1368 m 0
 502.564408416 1368 487.006902527 1236.89957617 492.684955804 1122.17089844 c 2
 495.064321367 1074.109375 l 1
 1296 1072.11523438 l 1
 1296 299 l 1
 1380 299 l 1
 1380 102 l 1
 867.662528893 102 l 1
 867.662528893 299 l 1
 940.712096567 299 l 1
 940.712096567 863 l 1
 499.742145364 863 l 1
 499.742145364 299 l 1
 597.735467854 299 l 1
 597.735467854 102 l 1
 56 102 l 1
 56 299 l 1
 140 299 l 1
 140 863 l 1
 56 863 l 1
 56 1072 l 1
 139 1072 l 1
 139 1123 l 2
 139 1163.3828125 137 1200.86241164 137 1258.39257812 c 0
 137 1505.75702721 239.258789062 1610 448.072938961 1610 c 0
 522.939872141 1610 614.944327159 1592.45117188 677.020974232 1575.64746094 c 1
 677.020974232 1365.04394531 l 1
 662.671703447 1367.01464844 649.763101538 1368 636.93279685 1368 c 0
1071.66680935 1632 m 0
 1207.11816406 1632 1300 1559.70507812 1300 1438 c 0
 1300 1315.34765625 1204.25878906 1239 1072.55765773 1239 c 2
 1061.83267833 1239 l 1
 1060.42332835 1238.20898438 l 1
 946.123304538 1243.12695312 869.444225666 1318.61816406 869.444225666 1438 c 0
 869.444225666 1558.92480469 949.214304847 1632 1071.66680935 1632 c 0
EndSplineSet
Ligature2: "'liga' Standard Ligatures lookup 0 subtable" f i
EndChar

StartChar: uniFB02
Encoding: 64258 64258 311
Width: 1429
GlyphClass: 3
Flags: HW
LayerCount: 2
Fore
SplineSet
941.376623377 1416 m 1
 746.077922078 1416 l 2
 638.405683509 1416 495.489177489 1397.65722656 495.489177489 1226 c 2
 495.489177489 1071 l 1
 653.333333333 1071 l 1
 653.333333333 862 l 1
 499.948051948 862 l 1
 499.948051948 298 l 1
 598.043290043 298 l 1
 598.043290043 101 l 1
 56 101 l 1
 56 298 l 1
 140 298 l 1
 140 862 l 1
 56 862 l 1
 56 1071 l 1
 139 1071 l 1
 139 1122 l 2
 139 1162.38183594 137 1199.86338798 137 1257.39160156 c 0
 137 1615.14688464 427.834466315 1630 795.571428571 1630 c 2
 1310 1630 l 1
 1310 303 l 1
 1388 303 l 1
 1388 99 l 1
 875.385281385 99 l 1
 875.385281385 303 l 1
 941.376623377 303 l 1
 941.376623377 1416 l 1
EndSplineSet
Ligature2: "'liga' Standard Ligatures lookup 0 subtable" f l
EndChar

StartChar: uniFB03
Encoding: 64259 64259 312
Width: 2294
GlyphClass: 3
Flags: HW
LayerCount: 2
Fore
SplineSet
1481.33339235 1370 m 0
 1339.44920638 1370 1322.51692306 1239.24526512 1328.54911845 1124.17089844 c 2
 1331.07482104 1076 l 1
 2167 1076 l 1
 2167 309 l 1
 2251 309 l 1
 2251 106 l 1
 1722.88675947 106 l 1
 1722.88675947 309 l 1
 1800.25932237 309 l 1
 1800.25932237 867 l 1
 1335.0803771 867 l 1
 1335.0803771 309 l 1
 1438.87283953 309 l 1
 1438.87283953 106 l 1
 893.490627835 106 l 1
 893.490627835 309 l 1
 972.750326421 309 l 1
 972.750326421 867 l 1
 509.45851683 867 l 1
 509.45851683 309 l 1
 613.250979264 309 l 1
 613.250979264 106 l 1
 54 106 l 1
 54 309 l 1
 138 309 l 1
 138 867 l 1
 54 867 l 1
 54 1076 l 1
 119.98046875 1076 l 1
 137 1041.9609375 l 1
 137 1258 l 2
 137 1505 238.998046875 1610 456.618717773 1610 c 0
 535.91619593 1610 633.365376125 1592.45117188 699.115652732 1575.64746094 c 1
 699.115652732 1365.04394531 l 1
 683.91720746 1367.01464844 670.244688306 1368 656.655099918 1368 c 0
 514.77091395 1368 497.838630627 1237.24526512 503.870826026 1122.17089844 c 2
 506.396528614 1074 l 1
 972.750326421 1074 l 1
 972.750326421 1125 l 2
 972.750326421 1165.3828125 970.863190741 1202.86314964 970.863190741 1260.39257812 c 0
 970.863190741 1507.75700623 1067.35129549 1612 1281.2970102 1612 c 0
 1360.59448836 1612 1458.04366855 1594.45117188 1523.79394516 1577.64746094 c 1
 1523.79394516 1367.04394531 l 1
 1508.59549989 1369.01464844 1494.92298073 1370 1481.33339235 1370 c 0
1939.90736274 1634 m 0
 2079.11816406 1634 2172 1561.70507812 2172 1440 c 0
 2172 1317.34765625 2076.25878906 1241 1940.85093058 1241 c 2
 1929.49125837 1241 l 1
 1927.99850457 1240.20898438 l 1
 1806.93432768 1245.12695312 1725.71746299 1320.61816406 1725.71746299 1440 c 0
 1725.71746299 1560.92480469 1810.20825008 1634 1939.90736274 1634 c 0
EndSplineSet
Ligature2: "'liga' Standard Ligatures lookup 0 subtable" f f i
EndChar

StartChar: uniFB04
Encoding: 64260 64260 313
Width: 2271
GlyphClass: 3
Flags: HW
LayerCount: 2
Fore
SplineSet
656.470176383 1364 m 0
 514.698594029 1364 497.787192326 1233.24017175 503.814061027 1118.17089844 c 2
 506.337645005 1070 l 1
 972.300255823 1070 l 1
 972.300255823 1121 l 2
 972.300255823 1161.3828125 970.41470311 1198.86315968 970.41470311 1256.39257812 c 0
 970.41470311 1503.75700595 1066.82187169 1608 1280.58812441 1608 c 0
 1360.62560195 1608 1458.45245914 1590.55761719 1524.76720075 1573.63671875 c 1
 1524.76720075 1363.04394531 l 1
 1509.58150425 1365.01464844 1495.92045388 1366 1482.34226471 1366 c 0
 1340.57068236 1366 1323.65928065 1235.24017175 1329.68614935 1120.17089844 c 2
 1332.20973333 1072 l 1
 1498.36946277 1072 l 1
 1498.36946277 863 l 1
 1336.21192945 863 l 1
 1336.21192945 305 l 1
 1439.91732867 305 l 1
 1439.91732867 102 l 1
 894.992594587 102 l 1
 894.992594587 305 l 1
 974.185808536 305 l 1
 974.185808536 863 l 1
 511.282617477 863 l 1
 511.282617477 305 l 1
 614.988016696 305 l 1
 614.988016696 102 l 1
 56 102 l 1
 56 305 l 1
 140 305 l 1
 140 863 l 1
 56 863 l 1
 56 1072 l 1
 139 1072 l 1
 139 1123 l 2
 139 1163.63183594 137.87890625 1200.3671875 136.994140625 1258.77246094 c 2
 136.376953125 1299.49804688 l 1
 150.000976562 1513.21191406 249.65625 1606 454.716036085 1606 c 0
 534.753513626 1606 632.580370818 1588.55761719 698.895112428 1571.63671875 c 1
 698.895112428 1361.04394531 l 1
 683.709415919 1363.01464844 670.04836555 1364 656.470176383 1364 c 0
2150 301 m 1
 2228 301 l 1
 2228 98 l 1
 1700.12360307 98 l 1
 1700.12360307 301 l 1
 1769.88905345 301 l 1
 1769.88905345 1415 l 1
 1690.6958395 1415 l 1
 1690.6958395 1626 l 1
 2150 1626 l 1
 2150 301 l 1
EndSplineSet
Ligature2: "'liga' Standard Ligatures lookup 0 subtable" f f l
EndChar

StartChar: invertedbreve
Encoding: 65540 -1 315
Width: 720
GlyphClass: 2
Flags: HW
LayerCount: 2
Fore
SplineSet
209.215820312 1203 m 1
 56 1203 l 1
 80.9482421875 1355.70703125 218.97265625 1445 354.986130501 1445 c 0
 492.831054688 1445 629.674804688 1354.36425781 654.059570312 1202 c 1
 502.775390625 1202 l 1
 482.293945312 1297.71386719 406.424286061 1363 355.497014695 1363 c 0
 304.510372998 1363 229.609375 1296.578125 209.215820312 1203 c 1
EndSplineSet
EndChar

StartChar: macron
Encoding: 65541 -1 316
Width: 783
GlyphClass: 2
Flags: HW
LayerCount: 2
Fore
SplineSet
714 1318 m 1
 68 1318 l 1
 68 1542 l 1
 714 1542 l 1
 714 1318 l 1
EndSplineSet
EndChar

StartChar: Ymacron
Encoding: 65542 -1 317
Width: 1466
GlyphClass: 2
Flags: HW
LayerCount: 2
Fore
SplineSet
909.160866035 964.82421875 m 2
 977.883281853 1080.45507812 1018.99781261 1157.35546875 1018.99781261 1221 c 0
 1018.99781261 1289.87207031 965.343398134 1319 922.15348159 1319 c 2
 911.393000365 1319 l 1
 911.393000365 1569.15820312 l 1
 1421 1570.84082031 l 1
 1421 1321 l 1
 1398 1321 l 2
 1234.84082031 1321 1181.49599765 1201.13345934 1143.91852295 1128.75488281 c 2
 955.331632033 765.514648438 l 1
 955.331632033 358 l 1
 1096.11459473 358 l 1
 1096.11459473 101 l 1
 408.340503099 101 l 1
 408.340503099 358 l 1
 547.330052254 358 l 1
 547.330052254 719.012695312 l 1
 131.466796875 1320 l 1
 44 1320 l 1
 44 1570 l 1
 741.915421072 1570 l 1
 741.915421072 1320 l 1
 615.799393603 1320 l 1
 669.168333077 1238.84082031 l 2
 693.861045445 1201.29003906 794.18799641 1023.63085938 834.162378526 962.840820312 c 2
 872.937065062 903.875976562 l 1
 909.160866035 964.82421875 l 2
1071.90351197 1745 m 1
 492.630939361 1745 l 1
 492.630939361 1978 l 1
 1071.90351197 1978 l 1
 1071.90351197 1745 l 1
EndSplineSet
EndChar

StartChar: ymacron
Encoding: 65543 -1 318
Width: 1295
GlyphClass: 2
Flags: HW
LayerCount: 2
Fore
SplineSet
932.643306553 -326 m 1
 442.859122423 -326 l 1
 595.421728293 34.453125 l 1
 142.94921875 812 l 1
 38 812 l 1
 38 1021 l 1
 636.357564611 1021 l 1
 636.357564611 812 l 1
 517.99718384 812 l 1
 752.324457337 345.711914062 l 1
 954.697466968 812 l 1
 822.193592101 812 l 1
 822.193592101 1021 l 1
 1254 1021 l 1
 1254 812 l 1
 1144.92675781 812 l 1
 700.605940253 -133 l 1
 932.643306553 -133 l 1
 932.643306553 -326 l 1
880.924789469 1234 m 1
 314.650856645 1234 l 1
 314.650856645 1467 l 1
 880.924789469 1467 l 1
 880.924789469 1234 l 1
EndSplineSet
EndChar

StartChar: Delta
Encoding: 65544 -1 319
Width: 956
GlyphClass: 2
Flags: HW
LayerCount: 2
Fore
SplineSet
510.116750004 1238 m 1
 555.943909266 1238 l 1
 535.322035236 1371.39355469 l 1
 510.116750004 1238 l 1
727.180664062 154 m 1
 555.943909266 1187 l 1
 646.077119301 1187 l 1
 917.719726562 51 l 1
 40 51 l 1
 334.43142355 1187 l 1
 510.116750004 1187 l 1
 314.928943222 154 l 1
 727.180664062 154 l 1
EndSplineSet
EndChar

StartChar: foursuperior
Encoding: 65545 -1 320
Width: 718
GlyphClass: 2
Flags: HW
LayerCount: 2
Fore
SplineSet
533 404 m 1
 605 404 l 1
 605 337 l 1
 293 337 l 1
 293 404 l 1
 367 404 l 1
 367 583 l 1
 54 583 l 1
 54 671.358398438 l 1
 350.620117188 1022.90820312 l 1
 534 1022.19726562 l 1
 534 630.615234375 l 1
 667 631.615234375 l 1
 667 583 l 1
 533 583 l 1
 533 404 l 1
367 631.538085938 m 1
 367 964.959960938 l 1
 98.8134765625 633.954101562 l 1
 367 631.538085938 l 1
EndSplineSet
EndChar

